<mxfile host="app.diagrams.net" modified="2023-07-28T09:56:49.530Z" agent="Mozilla/5.0 (X11; Ubuntu; Linux x86_64; rv:109.0) Gecko/20100101 Firefox/115.0" etag="jSlAER9WANoeLduwevFH" version="21.6.5" type="google">
  <diagram name="Page-1" id="wkUR4VwVcdYkuNvKDyIb">
    <mxGraphModel grid="1" page="1" gridSize="10" guides="1" tooltips="1" connect="1" arrows="1" fold="1" pageScale="1" pageWidth="850" pageHeight="1100" math="0" shadow="0">
      <root>
        <mxCell id="0" />
        <mxCell id="1" parent="0" />
        <mxCell id="D3aQGoSbThy1BRufcLk6-8" style="edgeStyle=orthogonalEdgeStyle;rounded=0;orthogonalLoop=1;jettySize=auto;html=1;entryX=0.5;entryY=0;entryDx=0;entryDy=0;" edge="1" parent="1" source="D3aQGoSbThy1BRufcLk6-1" target="D3aQGoSbThy1BRufcLk6-3">
          <mxGeometry relative="1" as="geometry" />
        </mxCell>
        <mxCell id="D3aQGoSbThy1BRufcLk6-1" value="Loading..." style="rounded=0;whiteSpace=wrap;html=1;" vertex="1" parent="1">
          <mxGeometry x="255" y="70" width="120" height="60" as="geometry" />
        </mxCell>
        <mxCell id="D3aQGoSbThy1BRufcLk6-30" style="edgeStyle=orthogonalEdgeStyle;rounded=0;orthogonalLoop=1;jettySize=auto;html=1;" edge="1" parent="1" source="D3aQGoSbThy1BRufcLk6-2">
          <mxGeometry relative="1" as="geometry">
            <mxPoint x="249.9999999999999" y="240" as="targetPoint" />
          </mxGeometry>
        </mxCell>
        <mxCell id="D3aQGoSbThy1BRufcLk6-2" value="" style="shape=image;verticalLabelPosition=bottom;labelBackgroundColor=default;verticalAlign=top;aspect=fixed;imageAspect=0;image=data:image/png,iVBORw0KGgoAAAANSUhEUgAAAWkAAADaCAYAAABkUrMhAAAABHNCSVQICAgIfAhkiAAAIABJREFUeF7tnQeU1VT39jdKVaQJqEiTDgooSlNQ7NKbSrM3VMRCtdIEG92CvvLKay9IFVAsgKgodkUUBOEPgoINey/59nM+MyuTm5PkDjOTOzPPXmsW3OS0/M69OycnuxRzVIRCAiRAAiSQkQT2yMhRcVAkQAIkQAKGAJU0vwgkQAIkkMEEqKQzeHI4NBIgARKgkuZ3gARIgAQymACVdAZPDodGAiRAAlTS/A6QAAmQQAYTKB42tnfeflvGjh4TVoTnSIAESIAEckCgfoP6MmnKlMiaoUr6xx9/lJ07dsi1N1wf2RALkAAJkAAJxCPwztvvyJr334tVOFRJo4W99t5buvfoEasxFiIBEiABEohHIK6S5p50PJ4sRQIkQAKJEKCSTgQ7OyUBEiCBeASopONxYikSIAESSIQAlXQi2NkpCZAACcQjQCUdjxNLkQAJkEAiBKikE8HOTkmABEggHgEq6XicWIoESIAEEiFAJZ0IdnZKAiRAAvEIUEnH48RSJEACJJAIgUiPw7ij+nTrVnl26bPyvro6bt+2XX5Sl/IKFStKrdq1pGXLVnLyKadIxUoV4zbHciRAAiRAAkpgt5X0pk2b5LZbbpHlLyyTlHSJW7bIe+++KwvnL5Axo0ZJn7595YohV0mlSpUInwRIgARIIAaB3VLSTzz2uIwbM0Z+//13qVatmvTt30+OatdO6tarJ3trzI9du3bJ2g8+kBdXrJBFC5+SRx5+WJ5+eonMuOceadmqVYzhsUheEdi5c6ds3rxZfv3115QuDj/8cPnjjz/ko48+kgYNG0q1Aw5IKfPdd9/Je++9J7UPOkhq16qVch4Htn/2mWz65BM55phjAs+jj5dffjnwHA7iZt6oUSMpU6ZMYBkEAFu3bp3gX7/Uq19fatWsKd988418oN/BMKlatao0adJE3njjjcC2UBdjwFiiFhivvvqqlChRQp8eW8qXX34Z2DfO4/dST38nFBKIJIBs4TZR5ep0aH904OnZTzzh1K1V22nSoKEz8z/3On/++afz1ptvOpNum+ic0a+/06tbd+fC88937rz9Dmfjhg3Ot7t2Oddfc61Tr/ZBTqN69Z3XV68ObJcH85bAxo0bHd16ckqULOkUL1Ei8G/VqlXOE7Nnm3N333134ICWL19uzo8dNy7wvCpgp/mhhzolS5VyVBEHllElFti/d1x7ly3rjB8/Plv977//3rngwgudMnvtZa0/ZcoUU+epRYusZdx++vbta8oefsQRkWV79+7t6E0h8Hpw8IBq1ZyDDznEnJ83f35oe42bNHGefvppa1s8UXgJLNDvRo+uXWNdYI5X0sX3LG5WFuMmjJfKlSvLwAsulJUvvphyU8A2yPSpU6VL164yetxYaXNkW7lj+u0p5Xgg7wls/fRTOVpXtV999ZUceuih0k6feoJWqQdWr25Wwbsjd9xxh3z44YemiUGXXSZ6AzcrzCBpqKv1bt26pZz67bffZO6cOTJm7FjB6v4Ufa+Bp7ZTOnaUN7W9mjVqmHcdFSpUSKmLlaxXTjrpJGndunVKORzAKtqV0qVLy+DBg1PK/fPPP7Jy5UpZ+NRTZjyTJk5MKWM7cMIJJ8hhhx2Wdfrvv/+W9evXyzPPPCM9evaUxx9/XHoy0qQNH4+HqfKwlbRbD6vkloe1MKvqLqd0dB575FFH96kdfZHofPThh2aV3bZVa3P++GM6OLu+2RXWJc/lIYGzzjrLrOyGDR/uqKII7Wl3VtKfff65U7FSJadho0aO2+e0adNS+nNX0v3790855x5QRW/GfO6555pDM2bMMJ9POvnk0BWtW99dSU+fPt3ah3sCK+mq++1nLac3CKdu3bpOjZo1rWWCVtJ33XVXYPmlS5c6pUqXdmpqe2ibUnQIpLOS3m0TPOxrfvvttzJo8GWyYPEiqbRvJbn37nvk+muvlYcfekiaHNxElq1YbmJSb9++XfcIv+adMQECWAkuWrxYDtD95Qnjx8see8SfeqxesYft/ftW96RtMmL4cLO3O2XyZJmoK06sdHVbRD7XBBLpSuPGjc0KfJt+dyALFi40/96pK/WyZcvKX3/9Zb5/QX/6k8/WHVawGJf/D8fjSMmSJUW3KAwH3d6LUyW0zMknnyx9+/QxXFavXh1alieLLoEcb3e4yHRFI2vXrzMfseWBl4RewcvF0/SLOHnaVLn5tlsFX3RK/hPAiz4opyOPPDLtOXhm6VI57bTTYg36lVdekdlPPimdO3eWTp06mTqj1bLnqiFD5Jqrr5YHHnggVjtuobfeessoxNq1a5tDuNFD6dfXF4MQvOw7pkMH83+/fKHK1CvLli2Tzl26+IvJU6r4O+oWSpT88ssvamL6vtTQ7SDb1k1UG/7zrfQF+iOPPiqfbtvmP8XPJGAI7LaSRiOlSpWSD9b8fyuOZs2byZBhw6WG7heuXfuBTLz1Npk/d65cP+oGY/FBSYYAVp177rmnfP11+k8yhxx8sFl9e2WTPkHNmjUr2zEo00sHDTI3gcmTJpkV4u+6r4wVYy21AHlM917PO++8QGsPrNax2vYKLDPmz59v2rvk4ovNqXLlyhmrFOxXY/+4Tp06cveMGdnq3a3WQ2vWrMl2DB8a6ap8mr4f8UsTvT6/6AvTrNU7zsEK5rnnnpMdek0Tb7vNXzzHn7/Wa4SUL18+x22wYuEmkCtKGoiaNmsqz+u2RnVdZWzTVcGrr66SE048UZY+/5xRDFTQyX6RoOjwMg0rUyiwZs2axR4QTMVGjBiRrfwKfWLyK2m8LIRJ3DXXXCNqPSLYqsDq0yuDL79c3tYx+FeiUNLYGvFLRXWIWqLbNC1atDCn8LIT1/DYY4+J7lPL/vvvLxdccEG2amoxEaik8aJxkN5E4sjDjzxiVul+ueXmm+XKK6/0H87RZ9xo8NKwePHi0sbyUjNHDbNSoSIQf2MyxmUfpDazf/7xp5zao6fccO11cv4555rVDhQ3JXkCI0eONHu4vXr1En1pFWgjndNRYtU8fsIEsxUwUhU69oPn6RPUUrVgcP96dO9ulDiUuV+wQv5T7abdv+91e6ZNmzZmr9m7Xwslixv+kKFDZebMmYJtnLyQVbpt4x3PFVdcYbpZoRZMUK67I3g/sHbtWump86AmkXL++edLlSpVdqdJ1i3MBMLep8ax7vDXV/Mup0Gdusaao23LVv7T/JwwgQkTJmTZSJcuU8apUrVqyt/rr7+etp30gAEDjNXFk3PmWK9QtwqcfStXNpYfauLnRFl34LsEm2O0e8stt2S1u3jxYqdc+fJZNsj+a3Dtp3W7JMtOGsf2KVcu8O+MM84wbYdZd6hiNRYmGIvuazuqqAOvM8i6A2P1jhHjcG201ZzQ+fnnnwPb4sHCSyAd645c2+5wb2SwmZ44ZbJxE+9/xoDCfH8rkNd2rVrdnKjbULP+9z+zqg3yOMTTT3ld2cIOXhVq4HViNYvzVXS+P/74Y9monoUD+veXU3v3DiyPg9iawN42+n7owQdl4MCBZhsDXotBgu+SKmQ555xzRB1DjK0x7J3xUhJehPfo3jO2PtS5Jai62UaoqC8ZYWMdJtV1GwTSGNer2ytBUqxYMdMf9t036Op3ku65X3fddSlFYX8OdhD07W7TeAtiXNh6gY30aaeempalTUqHPFDoCRTDvcp2lXBOGTNqtKx4aaWtCI+TAAmQAAmkSWDhggVyv754n6/OUVGSq3vSUZ3xPAmQAAmQQHoEqKTT48XSJEACJJCvBKik8xU3OyMBEiCB9AhQSafHi6VJgARIIF8J5Lp1R76Onp3lKQHEe168ZInArjdI4CDTVd2sYfkQJoixHBa34yh1VUdMkTBB7A41DbQWQexof+Q7f2HE6ED8EtiKBwmsLnA98MwMEzi5hLlxI9oe7MUpJJAbBKikc4NiIW3j7LPPljnqkBImCOuJQEo2gelcv379rIoe9eDRuPq116yu0Qie30FDrIYpRngwzp83z7ig2+TiSy6R+++/33baHIe538x777WWgRMQnFBsih4VccN4Ta+HDipWjDyRBgEq6TRgFZWiWEEjEFI/tXt+R9Of2aw0sfLsrnGg4fkH12z/inquKs06agONlSUix9kEwZuWLV9uPAz9WWC2aAq2tRqXGjbFixYtsjUhGu7TKEWs/LuoHbVXsIK+7777jA03MsHYngwQGRB2y/eqkoYXoH9FjbYxvqOOOko+1djcNkFs7NW66m96yCFZgaFsZXmcBCIJhPn05MTjMKw9nisYBIYOG2Y84qZOnRo5YMSmRlk3E4pbAV6LyMrSuk2byDZ0+8DEVW7VunVKWQ2KZDKwaCqvlHP+AxooyZRFDGqvaJB+M8Zxliwy3rLINIOy/owz6sZt2kYfUYL+45aNaovnCyeBdDwO+eIw8jZW9Aq4IT53fvFF5MXbyn6p2V+wYt0ZI4Y0tjOw2g0q68ZujhO9z1bWXcXHuZ6ssr6VP/qHt2HYE4ELK52ykYBZoMgToJIu8l8BAiABEshkAlTSmTw7HBsJkECRJ0AlXeS/AgRAAiSQyQSopDN5djg2EiCBIk+ASrrIfwUIgARIIJMJUEln8uxwbCRAAkWeAJ1ZivxXIBVAn7595fkXXpDOmu0bHoM25w8kID5dM8E/qwlae/boka2hVppPsWHDhtJTnVDgfffZ55+ndvTvkYYNGpgEAt01vZZfzjzzTFO/kiYfCPN+hJcfyiJbuT9/IxxU5qljDca4QDOD27wF4ZzTS8c7V70sUccraLN58+Ymx+Kbb74pW0OcWZA8wC3rvx5+JoG0CYSZitOZJYxO4T6n2U4cdefOSvPkpnvy/6u5Bh2UDRIcVyVvHFX89byf4SCisTmCmnCQtkqzgzt169YNbQPOI+qy7fzwww+B7WAsF150UWgbGBPK2K4HbT/zzDPGUSXseurWq2fGjLFTSCCIQDrOLFxJp31bK/wV4LQxe/ZswYr67XfeCXULR0AilIUbtd8t/IVly+Sg2rVN4KMvQhxjsNrG6hRu2X638K1bt8qHH30k3XSVjVRaNqmh6ajgFv7SSy+Z9FpegaPME088YVbJOG97MkD/vTUuB8qed955KW7hK7Uuxte2bVvZtm2bbSjStWtXM+Zi2l7tWrWs5XiCBGIRCNLy7jGupMPoFN5zrqv3tGnTIi9y+IgRZlXpdyF3Xb3juIWrgs5Tt3DX1fvGG2+MvB64juN6/C7k6bh6p1M2ckAsUCgJpLOS5ovDWLeyolXIdc/eERIUySViK/tFiKu3nyZW2XnpFq5Zyk2Xca7HLeMvq5nL6Rbunzh+zhcCVNL5gpmdkAAJkEDOCFBJ54wba5EACZBAvhCgks4XzOyEBEiABHJGgEo6Z9xYiwRIgATyhQCVdL5gZickQAIkkDMCVNI548ZaJEACJJAvBOjMki+YC1Ynrqt3p44dQ93CkS38VM1PuPTZZ6WHz6W75RFHSAN19+6hrthR2cIb1K9vXMiRG9AvAwYMkNWrV0uFChVC3cJrqjMLyq5atUqaNm2arRnkNoSrN8Y4f8ECY+4XJHALR5k5c+YYpxavwC0cf8hvGJUtHG7ubtmgfniMBNIiEGYpTmeWMDqF+9x3330X2y0cZYMExzUZrcl1GOZG3bhJE0czgQc1YVyrN23aFNst3ObSjbHEdQu3XQ/ajuUWri7sGDPdwgOnlAeVQDrOLFxJp3VLKzqFy5cvH8stHEGLUDZIcLytZgBv1apVpFt4jerVg5owruYHacbxrrrKXqLZum0Ct/AjdPVerly5wCIYC1bUUW7hCKxkux60jT6Q1Xz79u2B/eBgF3WVx5j9bvLWCjxBAiEEiuG2Zju/8sUXZcyo0bLipZW2IjxOAiRAAiSQJoGFuu12/6xZMv+ppyJr8sVhJCIWIAESIIHkCFBJJ8eePZMACZBAJAEq6UhELEACJEACyRGgkk6OPXsmARIggUgCVNKRiFiABEiABJIjQCWdHHv2TAIkQAKRBKikIxGxAAmQAAkkR4BKOjn27JkESIAEIglQSUciYgESIAESSI4AlXRy7NkzCZAACUQSoJKORMQCJEACJJAcASrp5NizZxIgARKIJEAlHYmIBUiABEggOQJU0smxZ88kQAIkEEmASjoSEQuQAAmQQHIEqKSTY8+eSYAESCCSAJV0JCIWIAESIIHkCFBJJ8eePZMACZBAJAEq6UhELEACJEACyRGgkk6OPXsmARIggUgCVNKRiFiABEiABJIjQCWdHHv2TAIkQAKRBKikIxGxAAmQAAkkR4BKOjn27JkESIAEIglQSUciYgESIAESSI4AlXRy7NkzCZAACUQSoJKORMQCJEACJJAcASrp5NizZxIgARKIJEAlHYmIBUiABEggOQJU0smxZ88kQAIkEEmASjoSEQuQAAmQQHIEqKSTY8+eSYAESCCSAJV0JCIWIAESIIHkCFBJJ8eePZMACZBAJAEq6UhELEACJEACyRGgkk6OPXsmARIggUgCVNKRiFiABEiABJIjQCWdHHv2TAIkQAKRBKikIxGxAAmQAAkkR4BKOjn27JkESIAEIglQSUciYgESIAESSI4AlXRy7NkzCZAACUQSoJKORMQCJEACJJAcASrp5NizZxIgARKIJEAlHYmIBUiABEggOQJU0smxZ88kQAIkEEmASjoSEQuQAAmQQHIEqKSTY8+eSYAESCCSAJV0JCIWIAESIIHkCFBJJ8eePZMACZBAJAEq6UhELEACJEACyRGgkk6OPXsmARIggUgCVNKRiFiABEiABJIjQCWdHHv2TAIkQAKRBKikIxGxAAmQAAkkR4BKOjn27JkESIAEIglQSUciYgESIAESSI4AlXRy7NkzCZAACUQSoJKORMQCJEACJJAcASrp5NizZxIgARKIJEAlHYmIBUiABEggOQJU0smxZ88kQAIkEEmASjoSEQuQAAmQQHIEqKSTY8+eSYAESCCSAJV0JCIWIAESIIHkCFBJJ8eePZMACZBAJAEq6UhELEACJEACyRGgkk6OPXsmARIggUgCVNKRiFiABEiABJIjQCWdHHv2TAIkQAKRBKikIxGxAAmQAAkkR4BKOjn27JkESIAEIglQSUciYgESIAESSI5A8dzo+u+//5YffvghN5piGyRAAgkT2GOPPaR8+fIJj4LduwRyRUm/99570qZtW1IlARIoJAT23Xdf6d+/v1x/3XVSqVKlQnJVBfMyckVJN27cWF5fvbpgEkhg1L///rts2bpVnlq4UObNny///PNPAqNglyRgJ/DNN9/IHXfcIYsXL5bnnntOateqZS/MM3lKIFeU9F577SUtWrTI04EWtsbb6pNHv7595ZVXXpFevXvLt99+W9gukddTCAj83//9n3Tt2lVefuklqVChQiG4ooJ3CbmipAveZWfOiNu1ayeLFy2SE048UX799dfMGVjASPAj7datmyxdulS+/PLLgBLZD5UqVUrOPPNMefDBB+WPP/5IKV+mTBk5+uijpUaNGinnfvn5Z3n0scfkjAEDZI8990w5jwMff/yxvP766ynnihcvLk2bNpWDmzSR0tqHKz//9JM89vjjps2333lH1q1bl61uEy1/aPPmpl+/NGjQQOrXry9LlizxnzLXgPN+2aWr0TfeeEO2f/ZZtlMVK1aUww47TGrXri3Y/3UF24ZvvfWWHHPMMVLLsnL96KOPTJn8lPXr10sfXVDge1qiRIn87Jp9gYATIi+uWOF0aH90SAmeyi0Cc+fNc0qWKuUUL1EiY/8OPewwc7kdjj021hgnTJhgyo8eMyalfMVKlRxVklZ827ZvN3V+++03a5l77rknpd1mzZs7GzduDKyz9dNPs9ocNnx4St2RV1/t/PzzzynHVdE7a9ascf7880+nxeGHp5y///77A/vDQb3xOgMGDMiqc9ngwc4vv/wSWP7mm2825ebMnRt4HgenTZuW0n9+fWfOv+AC67h4Ij0CC+bPd3p07RqrElfSGXKv7tWzp4wbO1auv+GGDBnR7g2jXr16MnToUPnkk09k5IgR8sgjj8iWLVuyGj3l5JOlUaNG0r1HD3nttddSOnP36atUrSrFihUz5z/WFd1DDz0k4ydMMJ9VaWarV7JkSdEvv+ypK+muuuLHihOWR67kdO//sssuM6voHTt3yrSpU+X4E07A4iZb32+//bZ07NQp27HSpUvL7bffLlO1zuwnnzQr7tunT5eFTz0lo0aNkp3anlf0hpT18cUXXzRs/OK/Zv/5vPz8wAMPSKOGDWXYsGF52Q3b9hGgks6gr8TIkSNFV3syc+bMDBpVzoYyZfJk2bx5sxx73HHyrm4tTJkyRXr16pXV2E+6nQHRVWXofrx3CwiK8a+//jJ1guT444+Xgw46SE7p2FGWLVsWVCTbsT11GwV/rnj/7x7bf//9jYUDxg+lP2/ePOnfr5888uij2drCuILeKzyoiq1H9+5SpUoVOe+880SfEOSMM84QvDwOE9xQbNcZVi+vz12rLGrUrCl9Tj89r7ti+/8SoDNLhn0Vpk+bJsepYivIAqXUURXlUF1xwUoATwddu3SRzp07Z10WLAZg2fK8/vun7ld7//CyavDgwWkjqKnKA4p81apVsereOG6cYJ/a/ZswfnxKvdtuu01+1DK3TZwoi9TS4emnn5Zbb7019ku0Nm3ayI8//mgUOCwkoOihoPfZZ5+U6wYDPA24gpfLf2hZ7x/2q5MU8L3wwgsD3wUkOa7C3DdX0hk2u3gx8+Ts2dJeH43xkqigCSx9JukqWvdVZceOHTJ8+HCzXfGTKrqpuhrFCheP9diG6NOnjxxYrZrsp6tVr2BFPHnSJGP+BYUdV77Sl5noCy8idV86stp//vMfWaJK15W+Op6zzjor6zMUIo7BXrjjKafIQXXqyOeffy6ddFtjtG5XXDVkSLY+sMXzyMMPZx3be++9zQvFEfqEhG2KL7/6Smr++5IUq+TWqsBdwY3tmmuuydae7oOn+B9s2LAhW5kkPuDp5tTTTjM3Q/d6khhHUemTK+kMnOly5crJwgULpKruxxY0uVoVUpXKlc0+NJQZTDNhyfDc888LVrojVGl75TNVeu/odoj370ndv4WyrV69elqXv2z5cvnuu+9koq5+cbOIEmwtQdG4f7BddwU3S+wfr1y5UpY++6x0UyWKa6mglhnYQ7/44oulWbNm2bqA1y1uTvibr/OHrRKUveuuu0y5eXr8iCOOkHPOOcfcpLzX/Om2bSnD1ZeYKWxws8sEwX56F306+v777zNhOIV6DFxJZ+j0wjwLK+qT9AVb1P5lfl8CtgV2+ey6oYzmqhK66qqr5KabbxYoHWwVeOWuO++UEaq8YQaHVSb24P2CfWEosq+//lqwkkxHoDAuuugieVhXsxvUPA8v837xmDV+o22qdUWsJvGyEKvgAbp/DMXoXWHjBvD+++/LHfpSUC1dstqDWeJE3RZx5dVXX5Ul+jSAl6Zq4SGPP/GEdFbFNvPee+XKK66Qj3VV7L7MrKN76V7BDWC+bgf5ZZGawc2aNct/OJHPMGEEH7yshdkjJW8IcCWdN1xzpdUjjzxS7tUftGvdkCuN7kYj2FvFXjKUVkldaXr/sPLEi0GsOmHNECSjRo8WWC3A1hrlK6rdtf+vrCrvpc88I8fplod/lfairmqjtjGwgsU2wpw5c4wNsrf9cv/Go3j55Zdle8DKdZuurHEOVhlgr6aDsnbt2pRLwVbFVVdeaezaW7ZsKR+psgqyXX5JHUDwkrCc7j+fffbZZr8cyh4K+z1V8uX1ickdH/assRUEpQ17aayy/YzxOdOU4bM637gxeq1oUoDxwG4RKAZDPVsLK/UHNWbUaFnx0kpbER7PBwJ4UVVYTPPyARe7SIAAtrawrVP9wAMT6L3gdYntzPv1iWi+mmNGCVfSUYQy4Dy2BWDSRm+vDJgMDiGQAKxe4OU5+PLL5YUXXhC8a+DqOhBV2ge5kZQ2smQqwCTtRHUdv/HGG2WxuiZnog1tMmTYa6YQwDaYeoGav6IsX6sVT26GeqWSLkDfJnjo4SUUFPSmTZvkU91D/dXjpVaALoVDJYFCSyCOZVE6F08lnQ6tDCmLLwEeLfFHIQESKNwEuCdduOeXV0cCJFDACVBJF/AJ5PBJgAQKNwEq6cI9v7w6EiCBAk4g3/ak4ZH24YcfSk8NyYn8aX6BEwI8wvZRA/+eGqIRXmMw7IczAJwLYM6N4PGIgXDqqadaA9zAlfYxDdoOx4XTNb7Af//7X9OmLWrXw/oi7m+NYAZng0wQeOrBTRlBf/xywAEHZAtSBE9ElEV8C9fcHQ4cdTTGBJwxvMF60BZMouDmjJChtrCdcMU+ReNUPKghQX+MSC4MR45WrVr5h8nPhZQAQpVGuaUjoNT++j2FFyK+G/iOuILf/3J13R80aFC2ZAfueXiIoozXu/Nzjf8yXyMPhgmi8nXT7DGFVuDMYpPcDPqvwWhMsHL1psrWnXqxORrAxpxr2aqVo/GHzXnN6GGOTZ8+Pav8pYMGmWNjx42zDdm56aabTBl1ADFl9q1c2TmsRQtr+YaNGjk6ydbz+XUCweEvGjgwNPD/iSedlDUc9fRy1HXcGgBeQ3Y6KOMKAs0f1a6dtbwbOF7jMJsqdevWjSyrHoT5hYf9ZAAB/E6iEgwg0YN6lZpyY8aOzTZqjY9tjqt7fMrV6ALCwW+xRMmSDhI+uKJem5F9amjalPYy/UCBCfqP9Eena5QxRHtDSqMZM2YIUipBxqk9MEJZ3nzLLXLuueea0I6I64sVNgKpX6Z3Y38WY7jWTtVQn9X0To7YCwVJEP4RsR0QVeyCCy6QuhpRzZtaCddSVWMSQ5CSqae6YOOp4ixNT9W+fXspq3wgP2j8CrgjIwUUyqzQlQtWNP/73/9MeEkEnkf7NseYA/6NSIckpD//G7cZJn/nn3++HH744dmqLhWRAAAWgklEQVQCvjfRBMSUokPgbv19uiafeMrSRYW0bt1arlQXeVcOOfhg+eKLL1KgIH0anuIg+G75n2wRjRBmpZBl6gzjf7I9VfOA9tYn6CDZf7/9gg4XnmNhd5y8XEmrEnHKV6jgVNp3X+eJ2bMDh3HlVVeZu+j48eOzzmvYx8C7NAog/RHK33fffVnlC8JKWuM0mHFjJaFR3AJZeA9q0CVTXh8/rWWR0gllUBbipotSbzBrHdsJjAlt9dCVEIUEQECDSZnvxOmnn54CJGgl7R7TTDumni4YstXD97RylSpmJY10Y664K+mwp+eUARSAAxm9ksZeKFxH4ZWEaGePaYYLRHwLkuuuvdbsQ2N1jNCQ2MtGqEvsM2M1PVhXy+5qGntXd999t4lc5t3T8raL4Dn+hKi/ZUDyVwQtglxz9dWRnkqIxYyVMhxbbNeJtrASmazxm1EWdcAaAu6ws0aSWK9g3x972fiXQgK5TeCFfzPlIL4H3jNhNY1UaBDsQ69YsUKu1u8/Yogj5Cz0hP9JEvvhQQGvEMe7sobHLayS79Ydb775plEUeKx/VrNO2xQ0gAP8EA19iWhoEzUIPASKWu/egti901VRu6KrbeOJp3ti1khhyHiM1EreP8QYSFq+0hemECjeKMGWDlI1IddclDTW9lAWYUXxEhXRypBf72gNZo9Icd6/5oceKjU1c8iTGj2OQgK5TeB5jSeO33Nv3YI7WcPvauLlrCzq+B0juh++nwh9gDC1CAXrF2yLIhmG/+953R4pzJLvShr7owgYhFxvSOjp7kPZIGO/C1YNuANv/+wzE9R9gVqCQLCaxoQi2ak+3pu91+4aBtMmyDeHt87eP+xfJy3uXjOC0EcJnhywnxynLMrgy19JA9Uj3CniOSNE53Jd1SAcqPfvCd0Pr6jlBuo+ozchatR4eJ4Eoggghdq7774rJ2j4WayO8QSM9ynIjIPf7+MaXxx7zoighzIQBGnyS2N9B4J0a/6/4wt4ujn/dfo/55sJntsxlMV4fSnYVldy5+gLQbXoMCtrrPSCBMHhse2BYO2a8t68QMTEwkxsqa7Eb9fHps36wgGTfqu+ZAyLvXyC3hT8UkYf/ZMOVoTVw3XXX29uOviy+h/zvGPGNgVeFOLxELGZO3To4L8k8xnnEJP4WA1K793CQLYXW8aXDzV2Ml7YwqQPPwgKCeQGAWx1YPvC/f3h+37IIYeYWOkQxOV2X/Tjuw3jAdRB6jWv4Ldv+77nxjgztY18V9IuCCQlfU0zVyBXGoKgQ+kgCavfthflkWUZj0SwUIACO+qoo2S2rvygSNREz6z8umh77dq1y1TOoeNCeinYhsNWXM3sZNjQoWZv3a+soWzxVIH8ethr7qUKfZQmeYUiRsotCLaGYIs6Xrd9kOUEZd3ju3btso7jK43cBWsa3ORsStxamSdIIISAuyrGk7Mrl+g7pkG6okb2HthWu/b2+I7j9433R97FE7b5bPku3d9FyBAK9qmwF6F5ad3h9gs76X79+pk3vq1at3Z0IgKHpHulpgz+1JTHlNE7sflcqnRpR18+BNYrCNYdGLgqV6dL165Z1+heq/dfr520ax0TVA7HNBefo2mqsphotpTQtt129IklhSOtO1KQFPkD6Vh3wGa/abNm2Zip05mjCYjNd3L2k09mOzdp0iRzXJ+UnTh20ieceGKBm4+MtO7A3RKPNWpyl+2uVrZsWRN+E485az74QGaq5QasHHDcK3jhcLlahSDdEGx9IUjo+ZZ6KTXVR6cmTZoE3i27awLRKv/aFwcV6KgvEjMhhyBWwov0pR5WwXgRgr13vzTU1bUr/fQlaAd9AYikrRs0M7YbYB170A3q15fT9AkFiVBdQcQ82EfbBLzhpYis1X7B0w3ssQ/Vl4sUEgABrF7xnXCthrxU8L1zvy/4Hp+sW5Nt27bNBg4WRkizhm05PEV6Bb/ZT7CFqS+93bbCqBf2rTmmzwqbfZ4jARIggTwgwPRZeQCVTZIACZBAEgTy3QQviYtknyRAAiRQUAlQSRfUmeO4SYAEigQBKukiMc28SBIggYJKgEq6oM4cx00CJFAkCOSZMwucKmAih8BHQbKfhhe8X51T/OFG3bIwKbv8iivkrbfeCqpuAgTdq26lceJd+BvQOLfyjLpFBwkcSCZrnBCYoyUtGzZskAs1noHNTbtFixZyp3pcwmklSOAAAK/OnTt3Bp025k2YA7iDBwnmAJ6e8FwMEphhzVSvMTje2GTy5MmidrC20zJO5wKxHGyySAPuIC6LTc7UYD05CUuLsK0aZdGa/ABecfCMtQlCFCCELmLIBAnMJeFRl5sBq6LmA78JzEfDkLguUzTolkadDBqyORY1H7aKSJ6BoEk2GXTppaEBwRB+9woNAWFLRgFvxQkh3wNbvwgZcb6antp+QzArRbgEmK4GCUwIMc9heuwBDUlh+w0FtZn2sTAr8Jw6s2i0KuepRYuMk4nN2aJkqVLOnLlzHTiz+EWDAjnq628C9tvq4/joMWMc/ZH4q4d+3rx5s1MzIni5ejim3W5opzk4iesap8kNwq6/YqVKjmazcMDLL+CqHoyhSQQwByhjmwO0jT7CxoAx2uZAg1c59Rs0CK3fq1cva32027FTp9D6TQ4+2NGbkP/yQz+jXSRYCLuu6jVqOBs3bgxsB/U14mJo/b3LljWOGEjmkBuCOcZ8ILRv2LgR0tM2H5/rfDRo2DC0PsLR2urbrkMXA86RRx0V2q4G83JQLkjQ38CLLw6tf2D16tb5CGoTx9AukhCE8YLTlwZ9czSsREoz+F1oQLLI35AGiwr8DaU06DmQqDMLXDk1NqwJEL9aU2YhuEqQ4M6jHnGiGVRMwB+v8woC4CM40Mvq+qxfrKDqWUGGDlZHFgS210wigeW8B1Wpy8KFC+VpDTBuW13CLRrOLapcjHOJN/1PZAe5VADur3D1HqurTARAR1ySIKlWrZpZfSBQP1IbuYIUYuqFZRwIMAc2d3A8xTykSRRu0Zgn6AdxUlyBK/4OXYGveuWV0DnAWOEoA7d+9SzLqo8V2390VTdHV9FwObcJngLAGiFrcc2uaFYZ8xQA9/+hQ4bYqpuoiHAjHqqu9Jdccom1nHsCgX46aQiBmTNnmsDz+rsJrIOnDERNxCr/JnWxdwUB7Y/ReCkX6ursJQ1ib4v7grkZPXq0/KIOXLCJtT3tBHYecBBJFxCx8RV1lw77TWA+EBcDTiLe+ZimIRdmaCjfJ3UVjdg3NnHn41FdGR8XI3ARnpKG6PzM1eiJYam14KzVrHlz813r369fVveYj85duphgS4jfEzYffbUennBuvukm2/Czjm/ZulWO1Xm6QcMmQL/4QxS7BTFPmjVKKuv3CAlFXHH1GH7/r69eHarHkGAD1+XXY5GDjFsgTNvnZCWN1QfuXHFSUmn2EVNWY8RmGwbubji+Y8eOsOE56lVnymk+vtBy7km4pqK8PlqFlndTfSEVVxICl2+MU/NBhnbvuuZqDsds5datW2fqwx03SlAGZVHHK2gTx9FHmGCMKIcxe0XDSZrjGis7rLpJhYZySObgFd3qMsfdNGi2RrDSQTk3uYGtnHt84sSJpnyQ+7u3Lp7kUK5R48bZmtSQm+Z4u/bto7oy5fAX9KQSWdlXQHN2mrb0JhFaFU8mKPfIo49mK6c3FnMcrtZh4j69DR8xIqxY1jmNDW3a1RjvoeXdJBR9+/bNVs51Adc4HqH1kXYP/SAxRhxBIhGU79a9e2hxXUSacnvtvXe2crrVaI7jqTtK3FRzttAUQfXTWUnzxWHcuxnLkQAJkEACBKikE4DOLkmABEggLgEq6bikWI4ESIAEEiBAJZ0AdHZJAiRAAnEJUEnHJcVyJEACJJAAASrpBKCzSxIgARKISyDYzSZu7YByderUMZ6GbVq3NumubDaZsJMepamdYOPs9xocq/bMmzZvljfV23D9unUBvYjxELpYU/D88OOP0lXtLOMIbCbna5ZiNXIXNcWyVkGCATX5kTPPOstaJi9PdO7UyeSDu1S9tBAYHRm/g0TNkWSwegTWqF492+n6GvT/LB17e00ndt9994XaSWMOkKoIdbyCOUCy4NfURvTj9euDujdzgDH+qunLMGavXHvNNcb2FQkDwlgj8Shsei9S23ivXKo2zx9oEgikRAurj2QSyHeJrPJxBKnanlZvU9hIq/mX1S4XKc2QWEGdabI1i/Hg+wYb7jvVUw2JLIIEmdfhvffjTz+lJLAIKh91DPMB34HV6ikZNR+wzfbPBxJp3K25ROEBGcbzeJ2PFTofA9XTNY5cpdy/+PJL8xsOaxcevLC7hk21V/r37y9L1G+hb58+ofMBz0DMxymapCOOdNTvBGyqLxs0SGAjbvM1UOceQbLr/TT3p1fgd3H22WfLkeprMGvWrFA7aaPH1E8gzNMzzpitZYJs+NxjObGTduu6tr6wNbT9wXbSJpq+PdTTB22qW6+tuvU47EzLV6hgHRPa7d27t7V+fp4YMnRo6DjhMaiKzDokdVQJrY9rRRmboG30YZs/HMcYbQKPLzdFkq0NzXtnq26OR3mywTMQqZjSFdjr2saE47ATh4eeTTQpcmh9tKE/XFv1HB2PMx+w8bdJnPk49rjjbNWtx+ENCc/PMJ6wNw/y6nMbdVPo2drAfMCDNV2BvbetTRwvUbKkAxtsm8DePKw+zqkjma269Xg6dtK5nplFRyXDNMsv0urs1LgdX1m8myrpSrq2eqghoSoS0HqzfGMFvvnfjNXq6BJ4g8EqDqswrGZQ3ustF1hBD8LTUJ0fpIuuhF5TT7wgwTiwCrlNV9qIDZJEUlZ4OyFeAFapy/UObVsFIGUYYhNUP/DAbKmxMAeqPE2Cz+3btsk3lgS0+6rHoTodyauaEHiqegh650CdEwTxKerVqyd6wwxCZbw+j1MvwRkzZpg5QEokVzCvWMVjpbRS/28TJBAGa8R98D4RbNmyxcTWGD5smFlp2QT9o288UeB6owQesEgjhkzUaBesgqS1PgmqI45ZpXuf1DAX8IhVpSLqTmw8CoOktq6k4eUGL7yrdRW7uwKWeLLBE486TQQ2h/k4Xler+E3oAijbfLyinqPwssSTxIvqKWkT23zYyuO7gZUk+D+rvGxysiZYxrjghQmPSFfSnQ94gHbr2tXWTdZxPOHgN4SnbVyvzeMQqbe2qK7B73zgwIFZ9fG9GKrfPSTI3aGenjY9ht8QnprwNOrXY2GDTCczC76kVsnJSlqVhrnzpONx6PfUceNFRMVkcD0Ow1aD3otzPQ7hqx8mrschVktJCBLIgmGUx6G6W5ty8Ebzyvr1683xdDwOUccrrocb+ggT1+PQm/QW5V2PQ3johYnr4WbzONRs0mHVTYwYXGtcj0PXwy3K49D1cPN7HGrma9NfHI9DrNJQFrFsdlfcp78oD1DX49DvAep6HKq7fehQbrzxRjNmv8ehBj5ycO1+cT0O9SbiP5XtM1abaNfvcagBuMzxKI/D999/35QL8jhctWpVytMUktuifJTHoYZMMOUQa8Urrud0LI/Dfz2n8fQfV9JZSef6i0MdZNgNJPCcv4772X88sLIejFvOrR+3fNxytnHl9Hjcfm2c4tb3js9fx9a27Zr89eOyjvq22NqN275/vFHtRbUbtz7aSZehf6zez+m2ZRun7XjUdU+fPt3sB9si6OW03ah6UePCSh6xgi7y7aGn266/vP9z2NzoRJvTadUJbTD7yVxX0mn0zaIkQAIFhIAbSOpX3YrLJMH2E16s2wJdZdJYczqWXLfuyOlAWI8ESCBzCYwcOVLqqMUDrDAySZprZD1E4MuE+O95xYVKOq/Isl0SKEQEEMI00xS0i7ezvnwuzMLtjsI8u7w2EiCBAk+g0CrpsEDzBX7WeAGxCPA7EAtT7EKZyjNTxxUbbETBXN/uQEYL2EG2UI8teIypyVDgECpXrmw8gmC/Wd3nMXeietvBJhT5xWw2ocjnBq882OC2VJtsr6jpnNyj3lUva9s1a9TIOoX+YC9ZpkwZWabZGoIEOQ6PPvpoY2favn37oCJ5fuxwzV3o8lHzImt+NnCDHef+mi/SK8g2ARtq2PquWbPGmhmlSpUqJoML8v2hjlcwBzs1CwmyuqCNIIH3GpjCKxFj9tffph5ysD+1sUZ5eKYiK0+HY47JVh9ZWh566CFjbx9WHzbi+M5hvF7B90YdM+RWzZgBe1lX4DG4zz77SIcOHYyXmC2nHtpE7kZ44HmlsXJFn7hu5OXTgP7ZzrsfMDcnqW0wXmjh+7a7gutDphzkrcTvKkjwm8C4Vqnd+xGaGckrqA97YOQWDeMJW/Og+YB/ATyJFy9aZDLhuILf4FLNogN747B24Y0HL2OU9wraSmc+/NlikHuwnbZxlnoHjlEbbFegf/D9xnVH/YZwzcjw45UsPabf67DfEH6n+A3B1+BA/V7kiajZiFVyYieNxmB7uHjxYqfMXnsZG8SgP+Q/XLBwoYPMCH7R9FWOJqCN9FZD/rIgO17YzKJPv40ubD1hD+xmhAkaF44h31pQu/5x5uVn9K8peQLZueOuUrWqyc8GXn7BHMCGuHSZMtY2cE4TvZr58gvaRNvow8YJxzFGGytN5eQc0rRpaH3Yzdrq4zhy7oX1f1iLFo66S/uHb7L1oJ669qacQ7uwkw5rFzbmsHvV5K+B9WEX7NpBB7UDO3PkOMyNrCwYgDsfVffbL3TcsO238YwzH3369Amsrw5qpl/YNfsF/gwdjj02dFywm7dlWsJ4B19+eWh923ysXLnS1EP/fkG7biaeoDnCscpVqphMTZqo1l89S4+F/YbC9FhKg54D6dhJ5/pKGncS3DGxwsNqKCx2B1ZRQdnCEe8BefPg+bfW4l0Fj8OOareJO5lfblebTnXnTFkFwaMOqyM1+BedXH+1rM+n9u4d2K61Qh6cwHXh+pAt2+pxqKuXZs2amfgYfsEctP53Dmx5JrF6aKU53IIyHaNNtI05+MgSPwUebrY5wHhq164t6nAkS5Ys8Q8v6/Ppai0QNIcogOPIM2jL1IwyPXv0yPa05DaMOA/qACGILeEXtNurZ0/jMai/G/9p8xkrPKz+8GTlF9THShwWBbbYHbXUkxPxP7y5O/3tpPPZOx8fWjxAw34T6AvzgTyCi3MwH4j9ge9hUB5JrM7BO8wMDuexOg0Sdz7wZGKbD7AOmg887V5//fWC36xf0C48RnUxaP0NNdaYI/ie4ynEL64ew+rdpsegv2x6zN9eTj/nult4TgfCeiRAAiRQVAik4xaeukwoKpR4nSRAAiRQAAhQSReASeIQSYAEii4BKumiO/e8chIggQJAgEq6AEwSh0gCJFB0CVBJF92555WTAAkUAAJU0gVgkjhEEiCBokuASrrozj2vnARIoAAQoJIuAJPEIZIACRRdAlTSRXfueeUkQAIFgACVdAGYJA6RBEig6BKgki66c88rJwESKAAEIgMs/f7bb7LqlVUF4FI4RBIgARIoGAQ2btgYe6ChShqRoYppFLARw4bFbpAFSYAESIAEogkg5nscCY2CF6cBliEBEiABEsg7AtyTzju2bJkESIAEdpsAlfRuI2QDJEACJJB3BKik844tWyYBEiCB3SZAJb3bCNkACZAACeQdASrpvGPLlkmABEhgtwlQSe82QjZAAiRAAnlH4P8BH9tf6dIxJ98AAAAASUVORK5CYII=;" vertex="1" parent="1">
          <mxGeometry x="50" y="190" width="165.6" height="100" as="geometry" />
        </mxCell>
        <mxCell id="D3aQGoSbThy1BRufcLk6-7" style="edgeStyle=orthogonalEdgeStyle;rounded=0;orthogonalLoop=1;jettySize=auto;html=1;entryX=0.5;entryY=0;entryDx=0;entryDy=0;" edge="1" parent="1" source="D3aQGoSbThy1BRufcLk6-3" target="D3aQGoSbThy1BRufcLk6-5">
          <mxGeometry relative="1" as="geometry" />
        </mxCell>
        <mxCell id="D3aQGoSbThy1BRufcLk6-3" value="&lt;div&gt;LAST CHARGE - 68&lt;br&gt;&lt;/div&gt;&lt;div&gt;kwh,cost,time,wifi,heat&lt;br&gt;&lt;/div&gt;" style="rounded=0;whiteSpace=wrap;html=1;" vertex="1" parent="1">
          <mxGeometry x="255" y="210" width="120" height="60" as="geometry" />
        </mxCell>
        <mxCell id="D3aQGoSbThy1BRufcLk6-14" style="edgeStyle=orthogonalEdgeStyle;rounded=0;orthogonalLoop=1;jettySize=auto;html=1;exitX=1;exitY=0.25;exitDx=0;exitDy=0;entryX=0;entryY=0.25;entryDx=0;entryDy=0;" edge="1" parent="1" source="D3aQGoSbThy1BRufcLk6-4" target="D3aQGoSbThy1BRufcLk6-10">
          <mxGeometry relative="1" as="geometry" />
        </mxCell>
        <mxCell id="D3aQGoSbThy1BRufcLk6-19" style="edgeStyle=orthogonalEdgeStyle;rounded=0;orthogonalLoop=1;jettySize=auto;html=1;" edge="1" parent="1" source="D3aQGoSbThy1BRufcLk6-4" target="D3aQGoSbThy1BRufcLk6-18">
          <mxGeometry relative="1" as="geometry" />
        </mxCell>
        <mxCell id="D3aQGoSbThy1BRufcLk6-4" value="&lt;div&gt;VERIFYING - 69&lt;/div&gt;&lt;div&gt;id, wifi, heat&lt;br&gt;&lt;/div&gt;" style="rounded=0;whiteSpace=wrap;html=1;" vertex="1" parent="1">
          <mxGeometry x="255" y="480" width="120" height="60" as="geometry" />
        </mxCell>
        <mxCell id="D3aQGoSbThy1BRufcLk6-6" style="edgeStyle=orthogonalEdgeStyle;rounded=0;orthogonalLoop=1;jettySize=auto;html=1;entryX=1;entryY=0.5;entryDx=0;entryDy=0;" edge="1" parent="1" source="D3aQGoSbThy1BRufcLk6-5" target="D3aQGoSbThy1BRufcLk6-3">
          <mxGeometry relative="1" as="geometry">
            <Array as="points">
              <mxPoint x="440" y="370" />
              <mxPoint x="440" y="240" />
            </Array>
          </mxGeometry>
        </mxCell>
        <mxCell id="D3aQGoSbThy1BRufcLk6-9" style="edgeStyle=orthogonalEdgeStyle;rounded=0;orthogonalLoop=1;jettySize=auto;html=1;" edge="1" parent="1" source="D3aQGoSbThy1BRufcLk6-5" target="D3aQGoSbThy1BRufcLk6-4">
          <mxGeometry relative="1" as="geometry" />
        </mxCell>
        <mxCell id="D3aQGoSbThy1BRufcLk6-5" value="Tap event || App event" style="rhombus;whiteSpace=wrap;html=1;" vertex="1" parent="1">
          <mxGeometry x="275" y="330" width="80" height="80" as="geometry" />
        </mxCell>
        <mxCell id="D3aQGoSbThy1BRufcLk6-16" style="edgeStyle=orthogonalEdgeStyle;rounded=0;orthogonalLoop=1;jettySize=auto;html=1;exitX=0;exitY=0.75;exitDx=0;exitDy=0;entryX=1;entryY=0.75;entryDx=0;entryDy=0;" edge="1" parent="1" source="D3aQGoSbThy1BRufcLk6-10" target="D3aQGoSbThy1BRufcLk6-4">
          <mxGeometry relative="1" as="geometry" />
        </mxCell>
        <mxCell id="D3aQGoSbThy1BRufcLk6-10" value="&lt;div&gt;Tap id &amp;gt; Network&lt;/div&gt;&lt;div&gt;wait&lt;/div&gt;&lt;div&gt;pass/fail &amp;lt; Network&lt;br&gt;&lt;/div&gt;" style="whiteSpace=wrap;html=1;rounded=0;" vertex="1" parent="1">
          <mxGeometry x="610" y="480" width="120" height="60" as="geometry" />
        </mxCell>
        <mxCell id="D3aQGoSbThy1BRufcLk6-12" value="Yes" style="text;html=1;align=center;verticalAlign=middle;resizable=0;points=[];autosize=1;strokeColor=none;fillColor=none;" vertex="1" parent="1">
          <mxGeometry x="310" y="428" width="40" height="30" as="geometry" />
        </mxCell>
        <mxCell id="D3aQGoSbThy1BRufcLk6-24" value="" style="edgeStyle=orthogonalEdgeStyle;rounded=0;orthogonalLoop=1;jettySize=auto;html=1;entryX=0.5;entryY=0;entryDx=0;entryDy=0;" edge="1" parent="1" source="D3aQGoSbThy1BRufcLk6-18" target="D3aQGoSbThy1BRufcLk6-35">
          <mxGeometry relative="1" as="geometry">
            <mxPoint x="314.9999999999999" y="760" as="targetPoint" />
          </mxGeometry>
        </mxCell>
        <mxCell id="D3aQGoSbThy1BRufcLk6-27" style="edgeStyle=orthogonalEdgeStyle;rounded=0;orthogonalLoop=1;jettySize=auto;html=1;" edge="1" parent="1" source="D3aQGoSbThy1BRufcLk6-18" target="D3aQGoSbThy1BRufcLk6-26">
          <mxGeometry relative="1" as="geometry" />
        </mxCell>
        <mxCell id="D3aQGoSbThy1BRufcLk6-18" value="pass ?" style="rhombus;whiteSpace=wrap;html=1;" vertex="1" parent="1">
          <mxGeometry x="275" y="590" width="80" height="80" as="geometry" />
        </mxCell>
        <mxCell id="D3aQGoSbThy1BRufcLk6-29" style="edgeStyle=orthogonalEdgeStyle;rounded=0;orthogonalLoop=1;jettySize=auto;html=1;exitX=1;exitY=0.5;exitDx=0;exitDy=0;" edge="1" parent="1" source="D3aQGoSbThy1BRufcLk6-22">
          <mxGeometry relative="1" as="geometry">
            <mxPoint x="249.9999999999999" y="508.8333333333335" as="targetPoint" />
          </mxGeometry>
        </mxCell>
        <mxCell id="D3aQGoSbThy1BRufcLk6-22" value="" style="shape=image;verticalLabelPosition=bottom;labelBackgroundColor=default;verticalAlign=top;aspect=fixed;imageAspect=0;image=data:image/png,iVBORw0KGgoAAAANSUhEUgAAAWIAAADVCAYAAABt5PoDAAAABHNCSVQICAgIfAhkiAAAH8BJREFUeF7tnQm8VeP6x59mDRSaJ2nW5EqZh+aUqaRyo7rJUFIqmZu4CklKUmQorluUZok0oXDD50qhQrlcSi6JlHH/n2f97fPZZ++19j5nnbdzjrO/z+dzPtrvet/nXeu7t9961rve530LRdQEgwAEIACBPCNQOM96pmMIQAACEPAIIMT8ECAAAQjkMQGEOI+/ALqHAAQgUNQPwW+//ir7f/zR7xBlEIAABCCQAwJFixSVUqVLZfLgK8Svvfaa9P9bvxx0RVMIQAACEPAj0LRZU1m4ZElqIbYa1apVk/mLFvr5oQwCEIAABEIQeGnFCpk/b15CS9+I2GoVLlJEKlSokNCAAghAAAIQCEegzOGH+zbkZZ0vFgohAAEI5B4BhDj3WNMTBCAAAV8CCLEvFgohAAEI5B4BhDj3WNMTBCAAAV8CCLEvFgohAAEI5B4BhDj3WNMTBCAAAV8CCLEvFgohAAEI5B4BhDj3WNMTBCAAAV8CgQkdvrVTFH733Xdy8MABOeKII6Rkqcy51CmachgCEIBA2hLIkRAf0IWBlixeIiteeEE2vfuumBBHrWKlStKyZUvpfN650q5dOylSNEddpe0XxIVDAAIFn0BodZz37LMy8Z4J8r///c+jVKZMGbHFLMqUOVy++eZ/8snHn8jzy5Z5f/Xq15eRo0fL6WecXvCJcoUQgAAEskkg20L8888/y43Xj5BlS5dKEV2P4sKuXeSy3r2l2fHHi+iuSwd/+klKly4t+/fvlw3r18uTs2bL6xs2SL8+fWTY9cNlwDXXSKFChbJ5mlR3QcCeWJbr08vHH30kP+oQUrxdffXV8sP338szepM9/7zzvCeaeNuxY4c8MWuWtG7VSlq3bh1/2Pv88ssvy3r9zkeNHCmFCye+hrDfxrjx433bWuHRRx0lx+vvqU2bNgntf/nlF8//pk2b5Lt9+xJ8dO7USc444wzZunWrPP3PfyYcjy1o0qSJ9OjeXaZOnSpf7trlW7dUyZLS8LjjpGOHDnJ4wDoB1nDChAlSSofjrr32WtmyZYtv38WLF5eqVapIh44dpdYxx/j2R2GaErA96+Jt7Zo1kVZnnhVf7H2ePGlSpM4xtSJtzj47sundTZF9+/ZFpk55INKtS9dI/Tp1vGNNGh4X6dXzkshTs2dHDh48GFm+7PnIicf/xTu2aMFCX78UHloCz86bFylfoUKkaLFigX/r16+PqAh7x6dPn+57QqtXr/aO337HHb7H9QkpUrlKFa/Oo48+6lvnq6++CjyH2PNr1759RIU3w8e///3vSIOGDZO2naS/T7MlS5cmrWf9XHLJJV7dE1u0SFm3Zs2akU8++cT3eqywStWqkcZNmnjHFyxcmNTfYSVLRm686abIr7/+GuiPAwWTwCL9bXQ5//yEi8t2RHy2RkI//LBfBl07SN544w1dt/hvOhTxjXcbs9Xa9Eemx7+XN/WY/c18+BF54KFpMm/hAnl85qPS/MTmaXrLy7vLfvXVV6W3PrVYdDp06FA566yzxCK9eGvUqJF8/t//xhdn6/Mtt94qX3/9tRQrVkxu04i4S5cucvTRR/v6OPvss+WWm29OOKY3b5n64IOyatUqmTlzpgwcOFB2794tnTp3lj179sjF3bpJt4svliPLlUtoW7devUxlgwYNkm4XXZRQzwpiVxe0aNeG2+Ltt99+k5dWrpQpU6bIiBEj5LnnnouvEvj5Gn36u+D88zOOm68PPvhA7p04UfSG4UXQY3TIDoOAjiYkWrKIOFrb6tQ7tnakfu06kb/ffntkxyc7Mhz9/vvvkS2bN0cGXnW1FwU3qt8g0/HEHik5lATatmvnRWjz5s9P2U1OIuK33norUrxEiYg+ekf0Ud3rc+A11yT0GY2Ie/XqlXAsWqCCGylWvHikR48eXpGKuufv+hEjAtvEHohGxCqgKetbRKwvl5PWa3nSSZGjy5eP2G/bz/wi4mnTpvlVjejNzns60SURIxrE+NahsGAScBYRR+9dFuVYdDv4uqHSuHEjmTJ5sqxa+bJ8+eWXUr1GDTlXxxjvnXSftFneVnQ4QkqXKc1tLw8I2JiqDjlIgwYNvEgyO2bR8SuvvJKpiUV0fqYCJYOHDPGi7kn33Sf1NDKd/eST8thjj0lffT9w8skn+zULLCun0a69g4iOA69Zs8Z7t3CbRtxmFnWvXbfOt31sFGoVVPjldX06i7dT9Jwq6eyerJj93m1c2qLaojmcAVStalX5mz5JTtb/Z15//XXprJE+lt4Esj00EcXVpGlTmasrzduPvPM5neQrfXQsqY+7trPHF/o/8IyHHpK1q1fL4mVL5WJ9IYLlDYHv9eWbjkVK7dq1s30CGuFK3759s9TOhhA2btwow4cP1xtzY6+N3ZzP0ZdnQ667zntxa8KaVZs9e7Z33ieccILXZO/evXLkkUd6f2bbtm2Tv/71r77udse9eNOxZblYhzLibcnixdJJzy+V2c1ng758bNasWY5FONpX3Tp1vH9+8+23qbrneBoQCC3EUTaWwFG4cCG5/IorZNjwYV4ih0Ur4/9+p2x+7z35VSMI5hDn3S+pbNmy3ljkRzpTIrvWSsdwbcZLrL399tty7eDBmcrs+x49ZoxU0RkBFrHO13HUvX8IzDE1a8o777zjRcZXXXVVwinYDIo2bdtmKrd3Djt37pTqelMf8kdf5tvE16ZLek9jzZvLNp0ZEWsDdCxZXyYm9HH66afLuyrG8aYv4OKLpH///rJZZz1Ezcart2/fbkN4Mu7OOxPqhy3Ypj7NbBYFBoEcC3FNnYbzmj5emS1euEinFq2UXpdeKpOmTIZuPiBgUahNvVq4aJHozAlvulZWzYYHWrRokam6Rdjxduttt3kvbGfptLb39OarY7+ecMXayFGjpGvXrgnbb9lwQzTKtfo//PCDJ8JW9qpuYmsCbGbT0tbpUIRNe7Ohj8MOO0yOPfbYTH2UDsjmtOmU9iIyK2Zb2cSej73otOEde0nXvn37rLhIWeezzz/3WB2l0/ROPfXUlPWpUPAJ5FiIo4gsUrlR3yrbGNpb/9oor2/8V8Gn9ye5wrFjx8qLL73kDTPYcEM7jUDLly+fcPb1NfEmu2YRsg0jmKD00qECE9afdS55rN2pkaROdxMT44dnzMh0zKJ1y8yMtaHDhom+6PJmS9hGiyVKlPCi6Ud0+MOb8/vFF9K9R4+Eubh7YzI7o/52fvqpN7vHzyyytrHsWLPhlFizOdV9bA68zjZppsNxtWrV8nPlW2aCa08DUftRM1Ht84R77xWd9ikP6EwMG87DIBB61kT8O839P+yPNG92vDdL4vzO58Yf5nMeE9CpYJEaOhc2dp5u/L+zO49Yb7qRU087zZspYTMmgszmkh/XqJFXT19ORVLNmrD5tT179vTO9Tydc2ntzWweb4uWLZNeg7WxucxZmUfcvXt3z2+qWRMzZszw+qyj8+R37Nzpe5l+sybi+UY/ly5TJnL33Xf7+qGwYBNwPmsi/h5WqnQpeU4ff23ucLsObh7h4vvgc3gClqX2wfvve5l19vLJxj7jrVr16t54ss1/barRn5/V0BkxdvwkzbpTYZRWOq/8Sn0/cOKJJ/pV98osop35yCPy/PLl8rG2Md833HBDYB82nGKP7vbS74Cep0W0NufYhiLs92Xziy2y/16HMfzMhi3q1a3r9ZHMLLPOzGZ1xK6TEt/GMg4tK267jrOv0qw+G0eOt2t1vrKxM6uvUbZf33ZdNZWfzYe28W8MAlEChez+E49j3dq1Mnb0GFnziv/0oPj6fIYABCAAgdQEFmuwOuvxx2XhkiWZKicuBJDaFzUgAAEIQMAhAYTYIUxcQQACEAhDACEOQ402EIAABBwSQIgdwsQVBCAAgTAEnM0jDtM5bfInAVtj4q677hJbP8LPbBaErRoWm/gQX8/a6hQtsbm0QdZT5wLbrItk9uKLL8oiTUUOMksVtrTqZGtc28ptd44b56VM+5mtHTFSk1KSrTth77Tv00QSm/URZF0uvFA66lrDGASySwAhzi6xNKjfr18/WaszZ5LZt5pJZ4kcQfa4vhkeo4kkycyy1bZr2rKlYfuZrWPSo2dPsUSIZGaLTJmoB5klhizVnWKS2X/1hrFgwYLAKpbYYUt8JrM5c+Z4adcVK1ZMVo1jEEgggBAnIEnfAouEb9DsyHs0kn1U14bwmdnowbEI8nIVa1t05yFd3Ck2MrZI2DLjbAW02zTKtGg0yC684AJvjQqLJON3+3j++ee9FOcndQW3FStWBLnw5uVaCvNNuq7x3RrFx0bG1vd1uuDQKM3o04SLwAjfVoy7QucG60Lx8sADD2QSUmNgvs/WNZxv1xtLsgjfFhC6T9cZtrqsqBb4lXHAj4BfHktW1iP2a0fZn5uALs3oZZDZ2r+pTKNmr66uM5Gp6gsvvJCRhZbKhwqsV1dXhkuoGt1NRFc9SzgWX2BrCZsfywyMNV2cyCvX1d/imyR81iU8vbr231h77bXXvPJU6xVbG+s/q3UTToCCtCAQlFnHyzq/u1OalkXHUIPGUmOxBNW11fbMcuIjtn1O/ASdo9/XG1Q3qDw7PvzqUgaBWAIIMb8HCEAAAnlMACHO4y+A7iEAAQggxPwGIAABCOQxAYQ4j78AuocABCCAEPMbgAAEIJDHBBDiPP4C8lP3Np/WLFmWWvR8g+oW1h06zKLHk11ftI5f3WTH4n0G1Q0qj28fe77x5+LCh19/lEEglgAJHfweMgiM0eSKr3XLK9vXTucSJ03oGDJkiOzRTUNtC6FY66D7412mexZ2012Tbbv4r/bsCSRse+n1vuwy6datW0Kd6dOne9l9B3RzWtsTL8hsgXXbVmnNmjVy2mmnZap2syZi2P53lnxi2zQFpWyb2Pa//HLZsWOHWJtYs41Hr9CF721hfUtesaSXIGvTunVG3aA6lEPAl4DfLGoSOvyopE9Zu/btvcSEZH+6j1tSIDNnzkza3nxXqFgxsnfv3kA/mhkXOaJs2ZR+5j7zTKAPO6Cblqb0YXWS2Zy5c1P6KFuuXMTOGYNAEIGghA4iYt/bU3oWWrR3o24vZKnCj+laEfpj8gURTXG23ZotGo1PcR6mi/BkJcXZ6th6FJbiHL/4z3LdVslSnG09C1v4J8hq6PZOZTTF+eZbbvHOO9ZsrYqhGrGP1Og+VYqzRcR2PRbFx64VYQzM91lnnilj9YkhWURsC/5Muv9+ry4pzkHfGOW+BPyUm4jYj0rBLyPFmRTngv8rz9srDIqIeVnne3tKz0IX6bykOGctvTs9f2FcdRABhDiIDOUQgAAEcokAQpxLoOkGAhCAQBABhDiIDOUQgAAEcokAQpxLoOkGAhCAQBABhDiIDOUQgAAEcokAQpxLoP8M3URTm7OS4hxUNz+lOAedo993EVSXFGc/WpS5JkBCh2uif2J/luJsacvdNT150LXXBqYEFy9eXAYPHuylL/ulOPfSvewsxXn8+PFJ93i7WFObL9UkCqsbb5YoYinO+/btk4HXXBN/OOOz7eI8derUwBRnS1u2FGfdAilw15BogsonukOzX4qzbabatm1bmThxYtJdnC1B5XJNDLF0aAwC2SLgN72ZhA4/KulT1rZdu5TpvL17904KxEWK865du5ykOHfp0iXl9VidZEaKczI6HMsqgaCEDiLibN220qPywzNmyOjRowMj4hIlSsjdutNzMtMsPdm6bZt8/tlngdUu1QV/ypYtG3i8UqVK8pjuJv3c/PmBderUretF8Mlsiu7MXKZMmaQR8TiN3pOZLYS0efNm+fijjwKrWWQfmx4dWJEDEIgjUMiUPJ7KOn0kHDt6jKx5ZV38IT5DAAIQgEBIAosXLZJZuo7LwiVLMnngZV1IoDSDAAQg4IoAQuyKJH4gAAEIhCSAEIcERzMIQAACrgggxK5I4gcCEIBASAIIcUhwNIMABCDgigBC7IokfiAAAQiEJIAQhwRHMwhAAAKuCCDErkjiBwIQgEBIAmkpxB9++KGXJYVBAAIQyA8E0jLFuVOnTvLjgQOye9eujO/gm2++kaOOOio/fCecAwQgkGYECnxEbBtizn3mGW8Vr6jdfscdMn7cuEyfK1epIvOfey7Nvn4uFwIQyA8ECrwQb9OFZ3SlMFn58ssZvPvo5/79+2d8LqHLOtp6tLa8IwYBCEAgtwkU+KGJRo0ayRYdD66rq3QFma1BO3ToUDnssMOCqlAOAQhA4JARKPBCbOTq16+fEiAinBIRFSAAgUNEoEAPTezRHSQOHjyYJXTff/+9DB02TJ544oks1acSBCAAAVcECrQQ99Ntax566KEssVq4cKHY9jxXDxiQZfHOkmMqQQACEEhBoEAPTcydM0dKliyZAsH/H9btgaRVq1bSrFkzxoqzRIxKEICAKwIFWohte5ysWrWqVWXlSy9ltTr1IAABCDgjUKCHJozSpk2b5Msvv0wK7MUXX5Qrr7pK3nvvvaT1OAgBCEDgUBAo0BGxAVu/fr00bNhQqmjCRpD16dtXLLPOtlNfFTPfOKg+5RCAAARcEijwEfHAgQOldevWGcwsq656jRpy4003ZZSdcsop3r+j/3UJGF8QgAAEUhEo8BFxLICffvpJxuu26b///rvcf//9crOKsa0vsUBTm3ft3i02ToxBAAIQyG0CBT4ijgVaokQJOfPMM72iFi1ayJFHHun9u0iRIohwbv/y6A8CEMggkFYRsV31C8uXy9atW6VevXre+hIYBCAAgbwmkHZCXKxYMWnSpElec6d/CEAAAhkE0mpogu8dAhCAQH4kgBDnx2+Fc4IABNKKAEKcVl83FwsBCORHAghxfvxWOCcIQCCtCCDEafV1c7EQgEB+JIAQ58dvhXOCAATSigBCnFZfNxcLAQjkRwIIcX78VjgnCEAgrQjkOKHDtqu3bYYKFy4sZcuWTQnv22+/9epYevGPP/4okUgkaZvSpUuLrRFhdf3M0pOPOOKIhEM///yz/PLLL1KqVCkvgy5VX7aD8/79+73zsTaWDh1kdr123bbovCWI2HZMVr9o0aKeD+s7mj4d78PWufj000/F1kquUKFC/GHPr/mPN+PALtPxVPgMgYJBIMcRsYlOy5YtpWKlSrJx48akVJ6dN8+rZyuimdXVNONyKsjJ/kyUHnvsMa+d39/R5ctLZV3isnv37vKfzz7L6H/Y8OGe3w8//NArK1uuXNJ+xowdKw8//LDXR8uTTpLvvvvO91o2bNggVXRxoMaanffFF1/IvPnzPb+PP/64V79///7SQJfdfPPNN33b79u3T+o3aCAjR43KOG43jIkTJ0qTpk2lpN4E/K5zgW7lhEEAAgWTQI4jYosex991l1x66aUyeMgQ2aDr/1p0HG8HDhyQW2+5xYs2777nnozDFhmeccYZ8dUzPluUGbWmKlQVK1ZMqPuZCvCixYvl0//8R15XobQo2c9spbWTVGT9rKGKY58+fTwfM2fOlF56PYsXLfKi3Kjt1Ei2e48e3vUtXLBAateuLf+Ku/lYHYv6O55zjizRczrrrLP8ussoswi460UXiS1ObztJ22JEfk8WlfUGgUEAAgWTQI6F2LD00Gh09uzZ8pJuNfSPp5+WPr17J9Ay8TWRGz9unNQ65piM4zVr1pSlS5Yk1PcrGKVRZNcuXRIO2XCCRaJP/eMf8uqrr3p7z/mZCXmqvqZMnuwtEG/XcsONN8r9kyZ5riyS7aJ9f/311zJ37lw5+eST/brwymzIwqJcE9hlS5fKqaeeGljXonATYXuqePbZZ6V6tWqBdTkAAQgUTAKJoWvI65ys6/vaOOmtt96a8Fi/Y8cOmaSCVrduXRmiUbNrszHgc887z3P70Ucf5ci9jfk++8wz0rhxY3nwwQdl+vTp3rhtz0sukS1btshdup6x380gtlOL2p/TIQsb2+7UubOsW7cu8JzsxmUR9lNPPokIB1LiAAQKNgFnQmzLSg4ePFh26wLrd2rUG2s33HCD90IrKtZ+SG0XZRt3jf0bOmyYX1Xfso//EGAbM05ll6ioXqTRauyfRbpRs5d/NvRgL9OGX3+9XHDhhfKybqF05ZVXynAde86KnaNDE/N1TNxE/EKNpNeuXevbbPv27VKrVi2pU6eOd3zFihXeGHL8X1PdXRqDAAQKJgEnQxNRNKNGjpR5+nhtkWRfHW+15SZXrVoli3XowYYvOnbsGEjRtrGvUb16puN1/xCn2EKLrt9+551M9bbqC7n7NOI24ezQvn1gH9ED21T8LFqNNRtKiLVjjz3WG+O1G8TKlSulQ4cO8sCUKSl9x1YwMTYeNq5sYrxIX7idcMIJmXzYTIjffvsto8xmW5zYvHmmOqtWrxYbY8cgAIGCScCpEMe+uLt+xAh5ftkysf8efvjhMuHee5MSjI7FJq2kB1erKA34Y9ZFbF0b9nhSx6ltmlcqe+ftt1NV8Y7bizObjWHj3xP1/GNf3GXJgVbq1KmTN9TRo2dP6dK1q8yaNStTUxNmE/rNmzd7Ny4be54zZ06mOifrnnrvv/9+VrukHgQg8Ccj4GxoInrdFvm2adPGE0wTHhtXHXnbbc62IrpQhwnefOONjD8TcBsjtvFpe8R3bVHxDSPC0XPprOPETz31lPcCr3fci8wBAwZ4c5d76xOEDVNgEIBA+hFwGhFH8U3ToYm/aKRnswGOO+44b+w4yHbu3Clt2rYNOuwND8RaeR0Dtr+oNdfHeBt/vkVfErbWG8DLGl1Wrlw50F9eHbAXfE/rizmb5hdr5+tLxkGDBsm0adPExoHr168vVeM2Mc3pC8i8umb6hQAEskbgkAixDRNcry+5JkyYICbKNhMhyCzjzaacBVn82K1fvRE6/PHVnj3ezsydzz1XXtIbQH40E2OLjPv27Ss1a9TIOEV7iWlDEibGmzZtkg8++CDh9G2OMQYBCBRMAoX0sTghx3idvuEfO3qMrHkleNpVVnDs3btXymlGWzLz6T5T9Zxs8Gm+c9I+2XnHHstuP8bFZmb4Jb5ktU/qQQACfz4CliQ2S7NwF8blThySiDiKJ5UIW71DKZSH0nfsTyC7/WSFy5/vJ8YZQwACYQk4f1kX9kRoBwEIQCBdCSDE6frNc90QgEC+IYAQ55uvghOBAATSlQBCnK7fPNcNAQjkGwI5elm3R6eMLdA1GTAIQAAC6U6gX79+oTdvyJEQ2zQsWxgdgwAEIJDuBC677LK8EWJbcc0y2TAIQAACEAhPgDHi8OxoCQEIQMAJAYTYCUacQAACEAhPACEOz46WEIAABJwQQIidYMQJBCAAgfAEEOLw7GgJAQhAwAkBhNgJRpxAAAIQCE8AIQ7PjpYQgAAEnBBAiJ1gxAkEIACB8AQQ4vDsaAkBCEDACQGE2AlGnEAAAhAITwAhDs+OlhCAAAScEECInWDECQQgAIHwBBDi8OxoCQEIQMAJAYTYCUacQAACEAhPACEOz46WEIAABJwQQIidYMQJBCAAgfAEEOLw7GgJAQhAwAkBhNgJRpxAAAIQCE8AIQ7PjpYQgAAEnBBAiJ1gxAkEIACB8AQQ4vDsaAkBCEDACQGE2AlGnEAAAhAITwAhDs+OlhCAAAScEECInWDECQQgAIHwBBDi8OxoCQEIQMAJAYTYCUacQAACEAhPACEOz46WEIAABJwQQIidYMQJBCAAgfAEEOLw7GgJAQhAwAkBhNgJRpxAAAIQCE8AIQ7PjpYQgAAEnBBAiJ1gxAkEIACB8AQQ4vDsaAkBCEDACQGE2AlGnEAAAhAITwAhDs+OlhCAAAScEECInWDECQQgAIHwBBDi8OxoCQEIQMAJAYTYCUacQAACEAhPACEOz46WEIAABJwQQIidYMQJBCAAgfAEEOLw7GgJAQhAwAkBhNgJRpxAAAIQCE8AIQ7PjpYQgAAEnBBAiJ1gxAkEIACB8AQQ4vDsaAkBCEDACQGE2AlGnEAAAhAITwAhDs+OlhCAAAScEECInWDECQQgAIHwBBDi8OxoCQEIQMAJAYTYCUacQAACEAhPACEOz46WEIAABJwQQIidYMQJBCAAgfAEEOLw7GgJAQhAwAkBhNgJRpxAAAIQCE8AIQ7PjpYQgAAEnBBAiJ1gxAkEIACB8AQQ4vDsaAkBCEDACQGE2AlGnEAAAhAITwAhDs+OlhCAAAScEECInWDECQQgAIHwBBDi8OxoCQEIQMAJAYTYCUacQAACEAhPACEOz46WEIAABJwQQIidYMQJBCAAgfAEEOLw7GgJAQhAwAkBhNgJRpxAAAIQCE8AIQ7PjpYQgAAEnBBAiJ1gxAkEIACB8AQQ4vDsaAkBCEDACQGE2AlGnEAAAhAITwAhDs+OlhCAAAScEECInWDECQQgAIHwBBDi8OxoCQEIQMAJAYTYCUacQAACEAhPACEOz46WEIAABJwQQIidYMQJBCAAgfAEEOLw7GgJAQhAwAkBhNgJRpxAAAIQCE8AIQ7PjpYQgAAEnBBAiJ1gxAkEIACB8AQQ4vDsaAkBCEDACQGE2AlGnEAAAhAITwAhDs+OlhCAAAScEECInWDECQQgAIHwBBDi8OxoCQEIQMAJAYTYCUacQAACEAhPACEOz46WEIAABJwQQIidYMQJBCAAgfAEEOLw7GgJAQhAwAkBhNgJRpxAAAIQCE8AIQ7PjpYQgAAEnBBAiJ1gxAkEIACB8AQQ4vDsaAkBCEDACYGiQV6+27tXJt4zIegw5RCAAAQgkE0C27Zv823hK8SVK1eRtu3bye6vdvs2ohACEIAABLJPoGzZstKkSdOEhoUiagmlFEAAAhCAQK4RYIw411DTEQQgAAF/AgixPxdKIQABCOQaAYQ411DTEQQgAAF/Av8HNa2yvxNPOYMAAAAASUVORK5CYII=;" vertex="1" parent="1">
          <mxGeometry x="50" y="458" width="169.52" height="102" as="geometry" />
        </mxCell>
        <mxCell id="D3aQGoSbThy1BRufcLk6-25" value="Yes" style="text;html=1;align=center;verticalAlign=middle;resizable=0;points=[];autosize=1;strokeColor=none;fillColor=none;" vertex="1" parent="1">
          <mxGeometry x="320" y="680" width="40" height="30" as="geometry" />
        </mxCell>
        <mxCell id="D3aQGoSbThy1BRufcLk6-28" style="edgeStyle=orthogonalEdgeStyle;rounded=0;orthogonalLoop=1;jettySize=auto;html=1;entryX=1;entryY=0.5;entryDx=0;entryDy=0;" edge="1" parent="1" source="D3aQGoSbThy1BRufcLk6-26" target="D3aQGoSbThy1BRufcLk6-3">
          <mxGeometry relative="1" as="geometry">
            <Array as="points">
              <mxPoint x="500" y="240" />
            </Array>
          </mxGeometry>
        </mxCell>
        <mxCell id="D3aQGoSbThy1BRufcLk6-26" value="&lt;div&gt;FAILED - 71&lt;/div&gt;&lt;div&gt;id, wifi, heat&lt;br&gt;&lt;/div&gt;" style="whiteSpace=wrap;html=1;" vertex="1" parent="1">
          <mxGeometry x="440" y="600" width="120" height="60" as="geometry" />
        </mxCell>
        <mxCell id="D3aQGoSbThy1BRufcLk6-32" style="edgeStyle=orthogonalEdgeStyle;rounded=0;orthogonalLoop=1;jettySize=auto;html=1;entryX=1;entryY=0.5;entryDx=0;entryDy=0;" edge="1" parent="1" source="D3aQGoSbThy1BRufcLk6-31" target="D3aQGoSbThy1BRufcLk6-26">
          <mxGeometry relative="1" as="geometry" />
        </mxCell>
        <mxCell id="D3aQGoSbThy1BRufcLk6-31" value="" style="shape=image;verticalLabelPosition=bottom;labelBackgroundColor=default;verticalAlign=top;aspect=fixed;imageAspect=0;image=data:image/png,iVBORw0KGgoAAAANSUhEUgAAAV4AAADUCAYAAADUd0sQAAAABHNCSVQICAgIfAhkiAAAHw1JREFUeF7tnQeUFMX2hy8IKlGC5KiSMQDyAGGXIBkEARMgSjAHkhIM7ymgIIJI8PlAUTGhoiQDSxABwYQBHxhAfIKAAgYQUYKIzv/ePsz+J4cNvbsz3z1nDkx3dVXX17W/rqm6tyqfR00wCEAAAhBwjUB+10qiIAhAAAIQcAggvDQECEAAAi4TKOAt79mnn5E9e3a7XDzFQQACEEh8ApddcYWceeaZ6RVNF95FCxdIoUKFpWrVqolPgRpCAAIQcInA0rQ0aXbBBaGF1+7hij695eIePVy6HYqBAAQgkPgE1q9fH1RJxniDkHAAAhCAQPYSQHizly+5QwACEAgigPAGIeEABCAAgewlgPBmL19yhwAEIBBEAOENQsIBCEAAAtlLAOHNXr7kDgEIQCCIAMIbhIQDEIAABLKXAMKbvXzJHQIQgEAQAYQ3CAkHIAABCGQvgfSQ4XiKOXDggHz04YeyZfMWOXDgF/n777+lSpUqUrNWLWnarJmcfPLJ8WRHWghAAAJJRSAu4d28ebP8e/oMeWvlSjl+/HhIUMWKFZPuF18sg4cNldNPPz1kGg5CAAIQSGYCMQnvX3/9JVMfmiKzH39c7P8mqB06dpQGjRo6/z/+53H5/vvv5Z131sl7774nc59/XhYvWiRj77tPevTqmcx8k6buBw8elOLFiydNfakoBDJDIOoYr21QcetNN8usmTPFerPjxt8va997V66/8QZHhD9c/6F8+eWXUqJkCZkwcaK8+8H7MmDQQDn6x1EZcdtt8oj2kLGcIfDxxx/L5ZdfLhUrVZKCOvwT+Ol60UXOjZ19zjlStVq1sDfZ5sIL5dRChcKe/+STT5wyRo0eHTbNrYMHB5XvvZ9ChQtLvfr1ZeSoUXL48GG/PHZ9953cfMstzspOdg+BdTi9TJn09P9o0kROPuWUiJ+tW7fKosWLg/LxzfeMM86Q3r17y/bt28PWZ6b+PVhZCxYudNI0aNgwZJ4lS5US4zfv5ZfD5sWJ5CMQtcd76NAhWbd2rdSpU0cef+pJ+fXXX+XagYO0Z/tuEK38+fPLRd26ye2jRjr/3njd9drzXSiDhw4JSsuB7CUwf8ECufrqq+XPP/+UcuXKSatWraRAAf/H3aBBA+cmbIzePuEs0nk7N2ToUPnjjz9kxowZcmXfvnLeeeeFy0ou0OXxCqvQ+tqxY8fEhrGmTZsmv/zyizwxe7Zz2l7obdu1k59//tnpTTdRYQ28tohPXnYvJ510kjRt2jRs+b4vkFo6J2FzE75mHY1t27Y5grpx0yb5dMMGOfXUU4Pys3Tej/ekzW2kpqb6pf3222/lXf1beeedd+T999+XaVOnBuXFgSQkYHuumfXo1s2jwwPer37/7tu3z6N/WJ5FCxZ6ap9Vw3NWteqeju3aeyZNnOgce3HuC55xY8Z4mjdt5pw7v0FDz4fr13sOHzrk+e2330LmycHsI/DTTz95tKflKVykiOf5uXOjFlS3Xj1PpcqVw6Zr2aqVR3uEIc/Pnj3bU6BgQU+79u2df1NbtvSoAAalveXWW53zX331VdA5O6AveI9OzDrl2P1bHk2aNnWuGX3HHR4V55DX+R5sdP75njJly0ZNt1DbueX76KOPhkxrZQ+/7TYnzUvz5oVMY9fa+Vfmz3fOn9eggUd7/SHTbtiwwVOjZk0nfVpaWsg0HExcAq1TW3rWrF7tV8GoQw32LiqlP5fsbT7pwQedHoUNKbyetkTad+gg+/b97PR2evbqJStXr5Ibb7pJflWvh1n/mSn2E7Jo0aJJ+DrL2Sov1N6avvBkqPZErQeaXbZ//3751z33SPny5WXB/PlycffuTq/u2WefjbtI68l27dLF6UXacMBnn30mKljSsmVLeWDCBClYsGDceWb0gnz58slll17qXL71q68ymk36dQ11GOLxxx5zvs+ZMyfT+ZFB3icQdajBt4pznnlGf66epOJbQK7Qhrlp4yY/Atozkin6U6pDp05S+vTSeZ9OHq3BlhNi0UknQOO1S/W5bv36a7/LduzYETKbu+6+2xkGeO6555yhgIf12a986y3RHqpcpOPHpUvH1wZ27trllFOyZEn57PPPnf9bHUwIzbTXLDZuHWi9dVuV4cOH+x2+9rrr5IsvvvA7dvbZZzsTxLGY773Ekj5aGhvqKVKkiHypQyoYBOIS3tp1ajvEBvUf4Iiu+ex26txZjh49Kgt1THHt22/Lkzo+N2L0KMjmIAH7VWLmFax4bsUmq37XcX1f27Nnjxw5csTvmPVGrffWokULuUIn8Myq6njp7TqhOk69WcaOGyczpk8PWfTXKuw7d+5MP2fj0B9+9JHMnTtXztGJPptP8AqUbx0qaM/6TJ348tov+svqLRX6lJSUoHLM26ZihQp+x0O5N9qLY+PGjX7pbIx3/PjxcopOnplrZFaZ1SVwnD2r8iafvEUgLuH1Vm2I+uj2uvQSsVnxn3780Znd7T9wgCycv0BSUoP/CPIWkrx/t97JrRVvvhk02ROtdua9EmitWrd2hhC8ZpNY5mlgk6mP6ISazfBPOyGyx1VEzR7XnuXAAQPEfmYH2iz92W0TcYF27rnnyryXXnJeGOfp/82sDiNGjHD+/89//tPvEvOmMOENZRMfeCDU4aBjH2ogUKjtrsroC8heBPYyyQqzybXff/89vV5ZkSd55F0CMY3xBlbPXGfMa2HJG29IavMWzueb//1PevftI5WzqKEGlsn32An00F5a2bJlZar+9H/1tddivzDGlE8++aSY6N1www1iP99tPNmGKOzTu08fueaaaxxXw8FDhoT0lrhRr1u2dGn6Z+DAgU7JZ6nLWLUTbm01atSQNm3ayOrVq+U+7UFbftlh5inhey/T1bPCfjHY0Enjxo2zpEjz2LjhxhudF8p1OgSCQSBDPV4vtnVvr3X+II6o7+UHH3wgOjsO0VxAwCY05zz1lFxyQgxNxOrrswmcoLIe5p133hnXHduE2j333uuM3/5Le6AmJqND+O/u3r1blqq4Pv300zJo0CC/MmrWrCn28ZoJ7O8q3uohIP369ZPnNQDH7tUmpGxs1IYuZj/xhJj7m6/7mA01BJr1Knv0DB+0E9jTtuGHtm3bpmdj/7eyrUffTl3ZVmqUZqWKFQOLCfndXC376IvH17apL/AmdUuzSM87dOw71LBIyMw4mNAEMiW8fftdKfZTrUSJ06Rr164JDSqvVa6DepyY//WYsWNl1apV8j/9RRJoB1Xs4jXvhJqJYqTJs6kPP+yUe+ddd0l39XaIZDZkYQJ9QIVLXb3kqquucsS3evXq8r6+0MdqHRZr0IMJeTSz8eIlS5aETTZBx26jmfVK9+7d6wi+ia8NZwSOF4fKw7x7zH/a16z3bC+M23Ts+/LLLgt1GceSkEA+cy6zevfUP44B2jMJNd6VhFwSrsq2sNGJR51eN+vZWe9Y/WadczY8EcrUj9sJxDC3MW8+JUqUiDp5Z2HE9ovIyrDrTZjsJ7x38i+wLEtjPVYzi5IMnIiyc5Ym0GwSzNzRLNgn2pCE3YulsbzsGrs2nFkwh1khjZgLDKKw+7AJR8vD7tNb18C8ItU3MC3fE5NAm5atZMy4sWJzJV7LVI83MTElZq1MKMOZTSRFMt+ebaR8AvPwXbvBRD4w6iwwvaUxV7JwFs0n3Ny1YjHrYUcqx5tHpDR2r75DN6xTEQt50ngJZGhyDXwQgAAEIJBxAghvxtlxJQQgAIEMEUB4M4SNiyAAAQhknABjvBlnl1BX2sRX4JKMvhW08dVAd7RAADZBZ5Nv4czW+4hlHDbcJJo330hjr940tuKZTbaFM7uPWHZK8U6whcrHOzkZ6hzHIBCJAMIbiU6SnDPXKVvwaMuWLWFr3KhRIyfQIJzomeja8pCzZs0Km4dNrr326quOb244W7FiheN/bGHo4WzYsGEyedKkcKcdLw1bqP/zE+s9hEpoPszLly2LuEvK3eqnPClCOeYR8fK8edJFF/fBIBAPAYYa4qGVgGl36zoMtnvIQfWhjWTWG7bFcixIINBMdG3t3L2aVySzIIJf1cXMVh8LZbpkpPykayeEchnzTW9BHBYNFspMdL/TxdMtmi6S2flduiiPucqFMsv/e80nkll9flO3NLtvDALxEKDHGw+tBEtrImqRWha9ZYvemC9qOLP1ONq3b+8sEfr2mjV+vrgjRo50FsxZsXx5xB6i+cM+NGWK9O/fX1ZrcIV3IXYrc926ddJZe453aSTdN998I8d06COcmWDqWr1yh0bM3a0rpHnNXg7W0zU/YVuoP9JQg92LlWdp39Gyff107x0zxgm3XpqWJvdqlF44O0UXSNf1iJ0wYOs92yLvGARiIYDwxkIpQdPYqmMW0WYfGwaIFIlmvTpbVczMxoN9fXLXaoSc9SBtDV3vugvhkFlaG8M1ofcV3vXr1zv5rlURvEuj3SLZIo1us6EIS/v/siuyXwMefIcXbAufcPa9hjR709oLyFd47SVgwRG2HoWtvhbJrD6W9iNdXQ3hjUSKc74EGGqgPUAAAhBwmQDC6zJwioMABCCA8NIGIAABCLhMAOF1GTjFQQACEEB4aQMQgAAEXCaA8LoMnOIgAAEI4E6WxG3AloOsoBtCnnbaac4WPZHCYy2NpbXlDwNDbc/VDSotgKJWrVoR87DrbDNL2/3XNrT0tfr16zt7uNn5aCHDltb8by2tr52m91atalXJr+esrEj1KaQ+uJY2n5Zpa//6muX73nvvST3dtSNSHhYybGnfVZ9hS4tBIGYCthC6WY9u3TyLFy3yfuXfJCGg/rmeTz/91FOvfn1PgYIFw35SUlM9urW6R31/g8jouggeFSrPTTffHPZ6y7tkqVKeNWvWeHTjzKA87IBuCOlJS0vzFC1WLGI+uguGk1YXNA/KZ/v27R71EfY0bNQoYh7nN27sUT9dz46dO4Py0Ig0J/+Ro0ZFzKNY8eKe5cuXe1R4g/LgAAS8BFqntvSsWb3aDwhDDTG/ohIzofX2nNDXKCG21vOzXmaoxcxtBwZbIP3HH36ICMkCJGx7n3CBGtYD36fhwNFChi002aLtrIccaN5FeKKFQFvQhO0X57uHmzcvq6fdY7QQaFuIx4I2oi0kH3iPfIcAQw1J3AackGHdU8xE5tMYQoZtHzcLGda3d9iQ4cmTJ4clatFhU3QvNotuW6X7mAWGDHfRffvu1A0ho4UM21oMjf/xj7Ahw/YisKGCaCHDVp6Jd2DIsO1T97Dep4UM235v4cwbMnz99dc74dLNmjULl5TjEPAjgPAmcYOwkGELA7ZPLCHD3sVtMhsybL3rUCHD3jBgt0KGLcTZLDBk2BsGHE/IsG36ivAm8R9TnFUP/q0WZwYkhwAEIACB+AggvPHxIjUEIACBTBNAeDONkAwgAAEIxEcA4Y2PF6khAAEIZJoAwptphGQAAQhAID4CCG98vEgNAQhAINMEcCfLNMK8m4EFIZQvXz7mkGFLGypk+Jyzz3bCgGMKGda0tvND7dq1/cBZyK351J6t56OFDPum9c3EQoarVqkSc8iwpQ0VMmz3YH7AdevWjRoybGktZNjSYhCImYA3jo2Q4eQMcdSdhZ0Q27r16kUMj22RkuLR7W08u3fvDgKlfr1OiO2NN90UMY8SJUt6VmvoZLgQW/Wf9SxZssRTpGjRiPncedddHktrob2Btm3bNicUuEHDhhHzaHT++U4I9Lc7dgRm4eSr2/94dC+5iHlYyPCyZcuctBgEwhEgZDjm11HyJLSep4XZxhIyXLlyZWehnECzBWmaNGkiP+g28ZHMAi8OavBE8+bNQyZLTU2NKWR4j+6XZnuhWWhvoNk+a6U0Ei+WkOEyZcs6C+UEmuVr9xhryHBKSkpgFnyHQEQC+UylLUXP7t1lwKBBcnGPHhEv4GRiErC1GA4cOBC2cjYsEbiKV2BiW2PBwnnDmYUMhxLuwPS2EWWkXYarqliGEl3ffCwazbaBD2cW+mwrrkUyXYRHdu7cGTaJhQxXDPEiCnsBJ5KSQJuWrWTMuLHSqnXr9PozxpuUTSG40iVLlhT7ZMZsmcRIO/vGmnelihVjTRo2nYlqNGENe/GJEybuWVGfaOVwPvkI4NWQfM+cGkMAAjlMAOHN4QdA8RCAQPIRQHiT75lTYwhAIIcJILw5/AAoHgIQSD4CCG/yPXNqDAEI5DABhDeHHwDFQwACyUcAd7Lke+a5vsYH1Kd41apVsuGTT5x93I4f/8vZY612ndrSXrcfqlqtWq6vAzcIgUgEEN5IdDjnKoF9+/bJjGnTZd6LLzobcIayB8ZPkNSWLWXUnXewPkIoQBzLEwQYasgTjynxb9I22+zasZPMfe65sKLrpbBu7VrpcVE3eWzmrMQHQw0TkgDCm5CPNW9V6n1dCezK3n3k559/jvnGLZx38oMPag95WszXkBACuYUAwptbnkSS3sd3u3bJ4JtvkWPHjmWIwCPTZ8iypUszdC0XQSCnCCC8OUWech0CNmYbaXGeaJhsjadx946RI4cPR0vKeQjkGgIIb655FMl3I5s3b5YVy5dnuuI//vijvPjCC5nOhwwg4BYBhNct0pQTRCDtjSVyYlXS9HPVqleTR2fNlHbt2wel955r275d0LklmhcGgbxCAHeyvPKkEvA+bVIt0Dp26iT2scXZV775pt/pdu07OOeKFi0mb7250u/cZ5s2OVsGFS1aNDBLvkMg1xFAeHPdI0meG9JthIIqO+/Fl8TW9V311qqgcwteeUUKFTpVVq7wF2RL+Pfffzs7RtSoWTPoOg5AILcRQHhz2xNJovs5pD3UQLOdIx595N+Bh53vNgn37xmPhDxnB+1aDAJ5gQBjvHnhKSXoPZbWMOBYzHrAsViZMmViSUYaCOQ4AYQ3xx9B8t5AtQhrLnTo2FGemPOUfLLxv7L5663y8X8/lX/ec0/YMdxTTjlFyun28xgE8gIBhDcvPKUEvcc2F14YVLN8+fLJpCkPyX8em+UshmNuYhad9uUXX+hmrANlwauLpWSp4L3hUlqmiokvBoG8QIAx3rzwlBL0Hjt37eKE/R45ciS9hn379ZNel1wiTz81Rx6YMF7+0pXJvNapS2eZNmOGTHxwktxw3XV+VHr26pWglKhWIhKgx5uITzWP1MnGZAdec43f3f7++2/O4jfj77vPT3Qt0bK0pTJ86FDZ+8Nev2vOa9DAcTPDIJBXCNDjzStPKkHv85bBt8q769bJxo0bnRq+umhxxJouXZIm9vGa+ftOnPSg2BAFBoG8QoAeb155Ugl6nzYuO/Pxx+TMM8+Mu4aFixTWKLdZUrNWrbiv5QII5CQBhDcn6VO2Q6BsuXIyf/EiubBt8GRbOETVq1eXlxcskJTUlHBJOA6BXEsA4c21jya5bqx48eLy+JNPylPPPC1NmjaVk046KSQA6xnfM2aMLH1zhdSpUydkGg5CILcTYIw3tz+hJLu/lq1aiX32798v/93wqezZu0f+PPanlNNece26dTI0JJFkCKluHiCA8OaBh5SMt1iqVCm5sF3bZKw6dU4CAgw1JMFDpooQgEDuIoDw5q7nwd1AAAJJQADhTYKHTBUhAIHcRQDhzV3Pg7uBAASSgADCmwQPmSpCAAK5iwBeDbnreeT6u9mxc6fMnj074n32v/pqqRmwE8SixYtl61dfyejRo0Ne+8cff8h999/v+Ob2u/JKWadhxMtXrJCrr7pKakWITJurq5fZppmRbED//lKosEa5PfpoULL8+fNLubJl5UJdKa1+/fpB5zkAgewggPBmB9UEzvO7XbvkQV1RLJK1aN7cT3h36jUDBw6UQ4cOOeG9vXr2DLr86NGjTr5du3Z1hPeDDz5wvje/4IKIwrtQo9dee/31oPx8D6SmpEhZFdfJkydHTNe3Tx+ZOXOmFFaRxiCQnQQQ3uykm8B599de5MABA0LWsF69en7Hbxs+XA4fPuzspTbi9tulY4cOzmaWWWlL09J0P7ZCIbO0nuz27dudc5fqkpPXXnttejrb5Xjbtm0yVdf8feHFF8V6wHPmzAmZDwchkFUEEN6sIplk+VSpUkVatGgRtdZv6k7Br772mvS+4gqpUrWq0+uc8MADMl6HFbLSmmqYcbFixaJmaYurt20bHJjRt29fOb9xY7Ghi1GjRkndunWj5kUCCGSUAMKbUXJcJzY8YL1FXzv55JOlRo0aziEbtx06bJjz0338hAlyeunS8vK8eTJNe5dX6YLnWb3WwkcffSTfff+93/2cqqufde7cOerTsm3hhw4Z4tzvmjVrEN6oxEiQGQIIb2boJfm1n3/+uVyg47m+VlV7wt98841zyHq3X3/9tUwYP17suJkJcD8VXRO45cuW+V2b2S9Tp06VV+bP98vG1niwcelY7KyzznKS2ToRGASykwDCm510EzzvM844I2g81HqOZt/u2CGTVHit9ztEe5LPz50rR09s8WM7T6xatcoRycsuvTTLKE1+6CG5RzfE9LUCBWJv4lu3bnUurVSpUpbdExlBIBSB2FtlqKs5ltQESuvQgXkghDKbULO91B6eMkXeWLLE8WoItNtPTLTZkpBZYZUqVhSxTwbs4MGDMn36dGcCsF379hnIgUsgEDsBhDd2VqSMkcAK9b99/Y03pNtFF6WPr/557Jjf1bePGCEzdONKm2ibqJ9wtmXLFilRokTI082aNUs/vn79+rBuYL4TZT/s3SsbNmxIv87GoTdt2iRTHn5YzEfZXgaV6fGG5M3BrCOA8GYdS3JSAiZkw7S3a1v6TJo0KSyTe3VI4JVXXnF6mdZrNi+JUDb6jjtCHXaO7d+3L/1c5y5dwqZ7VYM3KlSo4Jw3rwX7BJq5kQ0ePFju1002MQhkNwGEN7sJJ1j+lVUgLfrMghJCmfVQe/ToIeeee266d0OodDa88JTuOLFq9WrZqhNwFulm+Xo9Haw3Gy7KzZufibttBV83wG84sDwbZy6iY88jR44MPOX47VZUUe6gvsVeb4ygRByAQBYTyKcO5B7Ls2f37jJg0CC5WP9oMAhAAAIQyBoCbVq2kjHjxkqr1q3TM2SRnKxhSy4QgAAEYiaA8MaMioQQgAAEsoYAwps1HMkFAhCAQMwEEN6YUZEQAhCAQNYQQHizhiO5QAACEIiZQNzuZIPU82G1ugBhEIAABJKZgC0vevfdd2cIQdzCa3H3toQeBgEIQCCZCVTTJUYzanELb4MGDTJaFtdBAAIQgIASYIyXZgABCEDAZQIIr8vAKQ4CEIAAwksbgAAEIOAyAYTXZeAUBwEIQADhpQ1AAAIQcJkAwusycIqDAAQggPDSBiAAAQi4TADhdRk4xUEAAhBAeGkDEIAABFwmgPC6DJziIAABCCC8tAEIQAACLhNAeF0GTnEQgAAEEF7aAAQgAAGXCSC8LgOnOAhAAAIIL20AAhCAgMsEEF6XgVMcBCAAAYSXNgABCEDAZQIIr8vAKQ4CEIAAwksbgAAEIOAyAYTXZeAUBwEIQADhpQ1AAAIQcJkAwusycIqDAAQggPDSBiAAAQi4TADhdRk4xUEAAhBAeGkDEIAABFwmgPC6DJziIAABCCC8tAEIQAACLhNAeF0GTnEQgAAEEF7aAAQgAAGXCSC8LgOnOAhAAAIIL20AAhCAgMsEEF6XgVMcBCAAAYSXNgABCEDAZQIIr8vAKQ4CEIAAwksbgAAEIOAyAYTXZeAUBwEIQADhpQ1AAAIQcJkAwusycIqDAAQggPDSBiAAAQi4TADhdRk4xUEAAhBAeGkDEIAABFwmgPC6DJziIAABCCC8tAEIQAACLhNAeF0GTnEQgAAEEF7aAAQgAAGXCSC8LgOnOAhAAAIIL20AAhCAgMsEEF6XgVMcBCAAAYSXNgABCEDAZQIIr8vAKQ4CEIAAwksbgAAEIOAyAYTXZeAUBwEIQADhpQ1AAAIQcJkAwusycIqDAAQggPDSBiAAAQi4TADhdRk4xUEAAhBAeGkDEIAABFwmgPC6DJziIAABCCC8tAEIQAACLhNAeF0GTnEQgAAEEF7aAAQgAAGXCSC8LgOnOAhAAAIIL20AAhCAgMsEEF6XgVMcBCAAAYSXNgABCEDAZQIIr8vAKQ4CEIAAwksbgAAEIOAyAYTXZeAUBwEIQADhpQ1AAAIQcJkAwusycIqDAAQggPDSBiAAAQi4TADhdRk4xUEAAhBAeGkDEIAABFwmgPC6DJziIAABCCC8tAEIQAACLhNAeF0GTnEQgAAEEF7aAAQgAAGXCSC8LgOnOAhAAAIIL20AAhCAgMsEEF6XgVMcBCAAAYSXNgABCEDAZQIIr8vAKQ4CEIAAwksbgAAEIOAyAYTXZeAUBwEIQADhpQ1AAAIQcJkAwusycIqDAAQggPDSBiAAAQi4TADhdRk4xUEAAhBAeGkDEIAABFwmgPC6DJziIAABCCC8tAEIQAACLhNAeF0GTnEQgAAECgQi8Hg8gYf4DgEIQAACWUjAT3hvHzZc7INBAAIQgED2EcinPVyni7t79245evRo9pVEzhCAAASSlECF8uWlUOHC6bVPF94k5UG1IQABCLhOgMk115FTIAQgkOwEEN5kbwHUHwIQcJ0Awus6cgqEAASSncD/Aefx3DN4uZtUAAAAAElFTkSuQmCC;" vertex="1" parent="1">
          <mxGeometry x="600" y="580" width="165.09" height="100" as="geometry" />
        </mxCell>
        <mxCell id="D3aQGoSbThy1BRufcLk6-33" value="Text" style="text;html=1;strokeColor=none;fillColor=none;align=center;verticalAlign=middle;whiteSpace=wrap;rounded=0;" vertex="1" parent="1">
          <mxGeometry x="310" y="350" width="60" height="30" as="geometry" />
        </mxCell>
        <mxCell id="D3aQGoSbThy1BRufcLk6-34" value="Blink plug your EV" style="text;html=1;align=center;verticalAlign=middle;resizable=0;points=[];autosize=1;strokeColor=none;fillColor=none;" vertex="1" parent="1">
          <mxGeometry x="110" y="160" width="120" height="30" as="geometry" />
        </mxCell>
        <mxCell id="D3aQGoSbThy1BRufcLk6-39" value="" style="edgeStyle=orthogonalEdgeStyle;rounded=0;orthogonalLoop=1;jettySize=auto;html=1;" edge="1" parent="1" source="D3aQGoSbThy1BRufcLk6-35" target="D3aQGoSbThy1BRufcLk6-38">
          <mxGeometry relative="1" as="geometry" />
        </mxCell>
        <mxCell id="D3aQGoSbThy1BRufcLk6-42" value="" style="edgeStyle=orthogonalEdgeStyle;rounded=0;orthogonalLoop=1;jettySize=auto;html=1;" edge="1" parent="1" source="D3aQGoSbThy1BRufcLk6-35" target="D3aQGoSbThy1BRufcLk6-41">
          <mxGeometry relative="1" as="geometry" />
        </mxCell>
        <mxCell id="D3aQGoSbThy1BRufcLk6-35" value="Plug ?" style="rhombus;whiteSpace=wrap;html=1;" vertex="1" parent="1">
          <mxGeometry x="275" y="750" width="80" height="80" as="geometry" />
        </mxCell>
        <mxCell id="D3aQGoSbThy1BRufcLk6-37" style="edgeStyle=orthogonalEdgeStyle;rounded=0;orthogonalLoop=1;jettySize=auto;html=1;" edge="1" parent="1" source="D3aQGoSbThy1BRufcLk6-36">
          <mxGeometry relative="1" as="geometry">
            <mxPoint x="270" y="790" as="targetPoint" />
          </mxGeometry>
        </mxCell>
        <mxCell id="D3aQGoSbThy1BRufcLk6-36" value="MCU Parm" style="triangle;whiteSpace=wrap;html=1;" vertex="1" parent="1">
          <mxGeometry x="179.52" y="765" width="40" height="50" as="geometry" />
        </mxCell>
        <mxCell id="D3aQGoSbThy1BRufcLk6-48" value="" style="edgeStyle=orthogonalEdgeStyle;rounded=0;orthogonalLoop=1;jettySize=auto;html=1;" edge="1" parent="1" source="D3aQGoSbThy1BRufcLk6-38" target="D3aQGoSbThy1BRufcLk6-47">
          <mxGeometry relative="1" as="geometry" />
        </mxCell>
        <mxCell id="D3aQGoSbThy1BRufcLk6-38" value="&lt;div&gt;CHARGING - 73&lt;/div&gt;&lt;div&gt;id, cur, kwh, cost, timer, wifi, heat&lt;br&gt;&lt;/div&gt;" style="whiteSpace=wrap;html=1;" vertex="1" parent="1">
          <mxGeometry x="255" y="920" width="120" height="60" as="geometry" />
        </mxCell>
        <mxCell id="D3aQGoSbThy1BRufcLk6-40" value="Yes" style="text;html=1;align=center;verticalAlign=middle;resizable=0;points=[];autosize=1;strokeColor=none;fillColor=none;" vertex="1" parent="1">
          <mxGeometry x="320" y="868" width="40" height="30" as="geometry" />
        </mxCell>
        <mxCell id="D3aQGoSbThy1BRufcLk6-41" value="&lt;div&gt;PLUG YOUR EV - 72&lt;/div&gt;&lt;div&gt;id, bal, time, wifi, heat&lt;br&gt;&lt;/div&gt;" style="whiteSpace=wrap;html=1;" vertex="1" parent="1">
          <mxGeometry x="440" y="760" width="120" height="60" as="geometry" />
        </mxCell>
        <mxCell id="D3aQGoSbThy1BRufcLk6-44" style="edgeStyle=orthogonalEdgeStyle;rounded=0;orthogonalLoop=1;jettySize=auto;html=1;" edge="1" parent="1" source="D3aQGoSbThy1BRufcLk6-43" target="D3aQGoSbThy1BRufcLk6-41">
          <mxGeometry relative="1" as="geometry" />
        </mxCell>
        <mxCell id="D3aQGoSbThy1BRufcLk6-43" value="" style="shape=image;verticalLabelPosition=bottom;labelBackgroundColor=default;verticalAlign=top;aspect=fixed;imageAspect=0;image=data:image/png,iVBORw0KGgoAAAANSUhEUgAAAWQAAADXCAYAAAAtMitPAAAABHNCSVQICAgIfAhkiAAAIABJREFUeF7tXQeYFEXTLiQj+UiSlcyHgqACkoMBkAwqgogYQBDBRJAcjZ8KCAYQxQAoKllASZIMmEARBRMiQQUUVERR56+3P+b+3dnp2b3j7lxv33qefe62pzq9PVtT010hi6MkJCJABIgAEfjHETjtHx8BB0AEiAARIAIGAQpk3ghEgAgQgThBgAI5ThaCwyACRIAIUCDzHiACRIAIxAkC2bzjuOO222TXzl3eYn4nAkSACBCBU0Rg9NgxUrtOHWsrEQL5i88/l1rnnquValsr8QIRIAJEgAikDIFJ4yfIzz//HFgpQiCDG8K4fYcOgRV5kQgQASJABGJH4OEHH4rKzD3kqBCRgQgQASKQMQhQIGcMzuyFCBABIhAVAQrkqBCRgQgQASKQMQhQIGcMzuyFCBABIhAVAQrkqBCRgQgQASKQMQhQIGcMzuyFCBABIhAVAQrkqBCRgQgQASKQMQhQIGcMzuyFCBABIhAVAQrkqBCRgQgQASKQMQj4eurF0vXvv/8uG9avl00bN8qnOz6Vo0ePyJ9//iVlypSRSpUrScuLLjI+21myZImlOfIQASJABBIegRQL5L/++kuee+ZZeXTaNDl48GAEgIiFsW7tWpnx+BNSoUIFGTJsmDRv2SKCjwVEgAgQASIQjkCKBPIPP/wg/fr0lQ/ef1+yZs0ql1x6qVzWtq2cW7u2JBVJUg35T9n77beyccNGWblihWx55x258frrpVPnzjLh7kmSI0cO4v8PIYC12bFjh2ANvVm7kpKSpFatWvKOrhceuPXr1/cd5YcffihHjhyRJk2a+F5H4fLly6Vu3bpSuHBhX57PPvtMvtV7xI+yZcsmFSpWlNKlSvldNmU7d+6U/fv3m3stlFDXHdd7770XNYjLBRdcIL/88ot89NFH1r7wtnfWWWcJ2rbR3n37NDriTvnPf/4jRYsWlbffftu066X8+fNLtWrVJG/evN5L/E4E/h8B5NQLpQ5t2zoLFyzwFjvHjx93mjVu4lQoV965vHMXR29C58cff3RemDvPufWWgU6ndu2dbpdf4QwdPMRZumSJo1sazqrXXneaNGxk6lzb85qINlmQ/gj8/fffzoMPPugUL1HCyZY9u++ndZs2ZiDVqld3SpUubR1U4yZNnOw5clivz5k717TfqnVrK0//m2/2HUPo2HSry/n888/D2liydKlTpWpVa92kIkWS+VHfNle3/NNPP3Ve0fs8Gt8ZJUs6i/V+ttG0adNMG/Nfesmw1KxVy9pmntNPd/r07escPXrU1hzLMzECTRs1dnT3IHCG9ke/56mFveBChQpJo8aNZcSokTJvzlyZ/NBD8tNPP4VxvqMawvwXXpCSJUvKyDGjZeGSxTL0zsGSIye1439CERiqW0YqkOX000+XbldeKaVV6/NS5UqVvEUp/o6wgkOHDDH1Xn/9dXnp5Zeli74Z2ei6667z1aI/+eQTWbZsmfS69lpZ/8Yb5gzi5VdekW7dupmmWrduLVWrVjVvaKGUK1euiO933nmnrXvBW4FLLVu2lHM15KyXDh06JHPnzpVevXoZTbrkGWd4WXy/58mTR/r37x92TZUXeW3lSnnyySfl448/ltWrVknOnDl967MwgRHwimubhhzKN/Ku4UbrrV65ijNm1ChHD/ecffv2Od/s3m204v433eRULH+m+Tw96ylvF/yeQQhAC8yRM6fRer0ap98QTkVDvu32241mOHzECAeaYPny5R0V0hHduBqybl1EXHMLunbtatr66uuvzZtWmbJlnZy5cjm6HWKtE3oBGnLRYsWi8roaMrRcGz3++ONmLCpIfVn8NOSSpUr58gIP3eYz7T366KO+PCzMvAjEoiGnyuzt3Xe3yJlnnimLly2VG/r0kW1bt8qIYXfJhPHj5YsvvpCJd98tTz0zWwoWKijbtm1N4MfdPzv1xYsXi25ZyPC77jIHrCkhaIcHDhwI+5w4ccK3CWi1KmCkjlrVjBs7VgYOHCjf7t0rk/Q+SA3VrFnTVPt2zx6zJ4s94ysuv1wu1TMLELRxaJzez7FjxyK6Qxn4Qz9+fBEVTxacc8455r89ln1vWz2/cuwfPzJ1qrm0YOFCPxaWJTgCMW9ZhOK0WF8pYcy2bu06uf3WW8MOMVa/vkpmzZwps2Y/LW/qIdFpp6VK5if4sqTN9CEUQeedd16KG2yhr/Hbt2+PqOc1Y1R9Rm5RAYzDwKlTppj1HjF8uLyo21aTJ0+WnldfbbYYUkJvvvWW2aoorw/99WpaCTr//POTm+jStausWbMmoslbbrlF/vvAA2HlML/csmVLWBkO9GCuGQu9+eabhu3M8uVjYY/KU1EPLbH1t3v37qi8ZEg8BFIlkN1T5znPPy9//PGHDNI8fK3atJbjv/1m9pbnzpkjy19dLtX15Jn0zyGAk32Qn3litFENUiH7/fffh7E98cQT8o1qraGkB3nyhu71Yk+4Ro0a8tVXX5nLffv2lWGqmUNYY+/Uj5bqg33z5s3Jl2A5AeG5UYUl9p9hbeHO4dDhw8l8A1Xwdu3SJfn77m++kXvuucevC7lN783vVNMPJT3gjOCF9cfsZ54JK//qyy9l4aJFUqZ0aenYsWNEndQUwH4f2jreMElEwItAqgSy28hDUybLsV+PqblPEXMQU6BAARk/aaJcf+ONUqq03XTJOwh+Tx8EGjZoYBp+9tlnpVWrVinqBAdZXlr26qthAhmC5S49NITGN37cOBmkb0uzZs0Kq7ZWbdJfePFFs+XgJVybolq1l7pfdZXo3qwprqcmdNmzZ5cXVOMeMniw4PAOB3uhBDM3m0AOOlgMbQNbbffff793KIIti/k6/nz58kVcS03BHFVW8OBp2LBhaqqzTiZH4JT2E6C9lDijhDw6/VG5beAgua7XtbJm1WopV75coO1mJsc0bqZ3kb6uw3pATbJk4KBBEdrtqQ50jO4X79P93bFjxhgbXFhxrFA7ZPcD4YO3KQhSCG8vYXvhhL5huR88OLDl8bZudf2k9s6gIkWKSO/evWXXrl3SsVMnY6GAffG0Jgj50LHs0H3xYsWKmX6//vrrU+4O1kh4w9DDT2PxMmDAgFNukw1kPgROSUN24YCzgd//mQ+uf9eMINywl3upasfTp083H2h6XkeHZk2bGg00JeQe5MEh4oYbbjBVm2o7XnpL94OhBU+YOFHutWwruHWuvOIK+UkP6wbolgRM0VavXm1Mze67915zWLxKTcXghJQ7d26jKbuE/Wsv4cAvv76x2QjmmUGEvd5FevB20cUXmweB2uZLs2bNgqokX8PvoVjx4mG8GA8IJnHP61Zf+XLlYmqLTImFQJoI5AEDb9HXsBNSsGBB6di5U2IhGOezVfMzee/dd4396xrdIoDFgpdKnLSvhRDy8zJz+XGw5dqdP6lbE2effbY8+N//Rgj40PZHjRwp76tn56ZNm+S7776TsmoHXVuFqpqxeYdhvmPvGQIN+8vDhg41WiWE2LKlS42mD8GIfWyvpx7quh5+NfQhgW2OIIINcCG9XzEWNZHzZcVh6DzdIx81erSMnzBBzlSvPa8gheCFdUlh3bYBVVdvPD/7YnhCoj3MDxiQiIAfAllg9Rd6oWO7dtJLXxHbd+jgx88yIkAEiAARSAUC6uksY8aNlSY+b5Juc6e0h5yKMbEKESACRIAIWBCgQLYAw2IiQASIQEYjQIGc0YizPyJABIiABQEKZAswLCYCRIAIZDQCaWJlkdGDZn/ph8C2bdtkp9re2qiWxpmANUYQwcRrtY9rs1sHFgnNmzcPasJcW6kefj/7xBZ2K7bS2Baw6Q0imOd9onGgbQSLjGiu3bChXvnaa7YmJL+aEl6s5nEkInCqCFAgnyqCmag+3JYR+yEo+A4cNTarCZvN9Reu9LB7hqlbEE1XTzzXftmP7161PR6hJnNBhID0cMu2xUuBEwlOtDX+sLUZeJcizGf16tV9eWDj3FYtj2C2F0SwsYabNokInAoCFMingl4mqrtu3Tpj7wvnB2iVNmqkLr9faoyHX3/91cSuCCVoxnCvhuuz6wjh1w6EIGx3n1MHiR7du0ewPPXUU2YccDoJejhc3aOHzJ49Wy5Xt2yvpgyHFAjTi9TB5P0PPojowy04X22DEdnuXbXV9gZhgmb8isZiRj8aXtbaBvpu1KiRGcs111xj5eMFIhAVAW/00VjiIXvr8Pu/GwFNQ+SoV5uD7Biq4QZOBnGvXV7EKg4lTedlYv2++uqrgW3gomqdhldjoITxPvvcc6ZcBVvUNp6fM8fw9uzZM4z38OHDTuGkJKdI0aJRs3OE8mp6qrB2NCi+aV9jcUQdy1VXXRUzb9TGyJApEYglHjI15KiPrMzPcFTjRkATxQcecEFebnj9D+UNzZOI+Mkg928QcjbeAyc9CQ+oV180svH+qvNwtyl+0wiEQYGBjun1UF43upyZx8kxuP0EjSclvEHt8FpiI0Ari8Ref86eCBCBOEKAAjmOFoNDIQJEILERoEBO7PXn7IkAEYgjBCiQ42gxOBQiQAQSGwEK5MRef86eCBCBOEKAAjmOFoNDIQJEILERoNlbYq+/mX05zV7RuHFjKaHB1pGyKMh1umqVKgIPuWKasgmZO0IJDhSHDh40aaNeevllK7JJhQsbZ4uDGoje60KNVEoPa7bq7uowEs11GmMurmMGbygV14Dzl1xyiWTX9FEIir9+wwbrWDCfS9UFO2vWrJKUlBTGB6eVzz//XBpobsKg+RTQVGbg3blzp+mXRARSjYDXApuOIV5EEuO7et45mvLeOH3AGcL2gfOIuiQ7J06c8AVGs304devVs9Z3250xY4bjdcRwG0S5uk5HbUPdvB3NYOI7juPHjzua/NRJKlIksB04j3zwwQeO18nFbVQ9Dp2mzZoFtoE5Pfjgg9b5+A6QhQmHAB1DUv2YSryKiGMBjRd58XYEBONBJmtonfpr8nWdRhAe5MZTDzgriHC+gBa9RNMywc3aS3BXhhaO+BJw7LAR6i7UvHddunSJcJ3+8MMPjZNLc3XB/nDrVlsTUkdTOMFFGkGV/FynFy9eLFd16yZ79+61tgGXc2SRxljUa9DKxwtEICoC3scUNWQvIpn/e1q5Trvu0LG4Trdr395onV7XaY1vYcp79eoVFfg5c+caXq+bdUpcp6EBQ4uGpuzV2F136Bfnz486Ft02MWOJhTdqY2TIlAhQQ476OCIDEEgr12k3gWosrtM23v0ng/jsP+mGHbRCNt6UuE6DVwWx6QbaeKjrtDsGt5/AsZwcbyy8Qe3wWmIjQCuLxF5/zp4IEIE4QoACOY4Wg0MhAkQgsRGgQE7s9efsiQARiCMEKJDjaDE4FCJABBIbAQrkxF5/zp4IEIE4QoACOY4Wg0MhAkQgsRGg63Rir7+ZPVyn4dhwRokSxv13l7oL26hK5comfxzck3PlyhXGBvdhuEPX1MzUQa7GyDoN3h++/97kzgulVpog9aGHHzbOGCtWrJBfNHefjTCOYjoO8IYS3LqRBTqbuk7DBC/IdbpypUrG3dnPdRqOJ3Alr1+/fuB8kHUavJ999hldp22LxfLYEPBaYNMxxItIYnz/5ZdfnM2bN8fkOv3RRx9ZXae///5754K6daO6Gj/xxBNWt2e4Q8fqOg3HDj9Sm2JHE5ea3Ho2N3CUwyFEM2Q7cLX2IziZxOo6bXPj9muXZYmHAB1DYnsmkUsRQObkc845J6rrdIMLL5SqVasa7dOPiqp2CtfpoKzTcL5AUCFkn/YjlENT1iSmga7T0IwLFizo14TR3pG1uoX2E811Gi7aOXPm9G2nkGrz3a68MqrrNLRs23x8G2YhEfBBIAueU6HlHdu1k169e0v7Dh182FlEBIgAESACqUGgWeMmMmbcWGmi8WJsxEM9GzIsJwJEgAhkMAIUyBkMOLsjAkSACNgQoEC2IcNyIkAEiEAGI0CBnMGAszsiQASIgA0BCmQbMiwnAkSACGQwAhTIGQw4uyMCRIAI2BCgQLYhw3IiQASIQAYjQIGcwYCzOyJABIiADQEKZBsyLCcCRIAIZDACFMgZDDi7IwJEgAjYEKBAtiHDciJABIhABiNAgZzBgLM7IkAEiIANAQpkGzIsJwIpQGDWrFlSrHhx388ZJUtKfY2SN3rMGNEwn6bVGTNmGN5ly5YF9tK8RQsprnGqg+jaa681bbltg3fr1q3Sq1cvqaKR+fzGdcONN/o2uVTHg/6qVqsm3+7d68tz9OhRqacxosEHfhBiV3fo2FHOPPPM5P4w79p16sjwESPk4MGDyW0tWrzY8EyePNm3fRRu27bN8Nxzzz2Gp2atWr7zAE/58uWlVevWgnZtpGFhrfVdfOqcd56JUli5ShUpWaqUfB4QFxz9vPbaa6bNqzQWdlqRfwzFtGqd7RCBBEEAwhA/5rPOOisiJOgff/whn3zyiWh8Zvlm92556qmnjPAE/x8nTgQiBOEXFMoUlX/VIP7gcQM3IjnANddcI+g3b968UqFCBROAP5QQ2N+PLmvTRm7u31/GjR8vHTTi47q1a00bLv3111/SU9t+7733ZMzo0QL+sePGyYQJEwxLUlKSEcogjGvHjh2i8bNlzvPPy+rVqw0+GBfGqzGrk9v1/vPnn38anuO//24uHT1yxPAjVKqXgNFaHeeqVatk2dKlJjmBl/7++2/THkKkllJh60fFVbgi3OqggQNl4KBBcov+fdXywMQcbrv9djPH0YpDmpE3TDQD1HsR4XciEB2BadOmmUD4CxYu9GVGoPvzL7jA8HyzZ48zZcoU8/8rCxb48ruFqrU52XPkCOTp2rWraevYsWPO/v37nQIFCzqn583rPP30044K0MC6fhdVeDmqXZs227Zr56hwTGZTIWXKu3fv7oDvjTfeMN9LlynjrFmzJqI5FZZO35tuMjyNmzQx11+cP998v/vuuyP43QIV+IZH3ypMkWrBTrXq1a38b731lpM7Tx6nWfPmvjzABe316NHD93poITDTNwDDr28wvvwPPPCAuT5i5Ejf636FsQSo55ZFmj3a2BARsCPgBroHx05N9ZReNG/ePKO13XnnnUZLPu20lP/Es2TJIprRxaTXWr58uajQMcN95JFHZPr06Sbd15NPPingw1/3mjcdF8rzaXqraVqvXr16ohlpjMacHlS3bl2TkCAt2gdmU6dMMdjdetttYVtBGPt3330nd+tWSpnSpWXokCFpOh1uWaQpnGyMCNgRcHMVltC9V2xhpAd9vH27abZd27bmL7YY2lx2mW9XE3Rb4jzdN/Wj7Nmzy1zN2NJQ8xaqNiianspstVTWnIovv/RScoaVjz7+WHLkyCGtLr3UrxlTBsHWVsegWqyAH4I8rQlbEsjnGLq9YutD05VJ18svj7isWr/J9QgCLldffbXMnj3b7HUPCRG8w4YNkyO6hYJzAGTaSUuiQE5LNNkWEVAEkOx0w4YNYVggjRQO/qDFVdFDI329jwkrV3jpK7BVkEEYgcDr8ttSUoHvq6++ki+//NLslQYR9oOxh9pANeKZM2ea/eFFCxdK4cKFk6tB2GJ/2rtH7W03dDyhc/Lyud/dOfld364Pnd9P7i3j+s8//2zSfeEQcpDu/cZC2AP20t/68Aqle1ULXqp70pPuvlu66cFd2TJlzEPlOd0Pb9mypXRMh6xKFMjeVeF3InCKCGzcuFFu6tcvohUcSD3/3HPWfIQRFbQAr/wQxnv37ZPSlsMoCCIIPOQRrKECHwSBj/4gKFfotkMoTZo0yVh8xEI4oBsxfLg55BqrdSpWrBhWDf3BogOCqkGDBtYmV598AJ1do4bs2bPH8GFONnItPAr65F3s1LmzeaB4qbVaWmCM0Qha9Go9AIxGeACNHjXKHO4Nv+suoy3jIA9vD5M1M3p6UMo3mNJjFGyTCGQiBJDAde7cucmfF198Ud5Xq4T31MoCGnJKqI6ajYGgofrRO++8YwSiy3eFJpjNkyePsZKAkEwLQnsgPTSLaA4md6B+apnxtVqQeAkPEz3ANHvR9dVUrpqa09WsWdM8KJYuWSJ62OatIifU8kQPJE157dq1I65DGLr4zlHNGFYk0NSx5eCONaJSKgtuVPPAc889V17QNezTt69s2bJFblehjK2b9CBqyOmBKttMaASgVbqmX9GAwEEZtgH8CNf6q6aNvduJEyfKEhVgOFArppm9f9I9zF27dhlBB3IPl7A/jQMp2Bk31UM57IXi8CmUdnz6qV93qSpr0qSJDBgwQKZOnWoELQ7Xkk5uacB0bbvulWOc0DafePxx0wfMy6677jpzcAh7Z+x3l1NbYuxFHzhwQJa/+qrZfsBcG+ketpcu9exXn69zVAsO6dmzp9kzR5ZwG72pDynYZ/tRIR33Qw8+GHYJD47p06aZbRs8JLBtMWTwYL/qaVPmNc+g2ZsXEX4nAtERiGb25m3BNXuD6ZTt88MPP5hqqgE7F118sZMjZ84I3lrnnuuoQ4S3eWflypWOOqMYkzlb+yrMI+r5FegDwbQx+5ln/C6bMj3gctQJJaKvvPnyOaq1O7rFEFZX93AdtV921Hkkog7M9nTLx1G74eQ60cze1NbZKVqsmJMzVy5n7rx5EeN0zd5sWKC8XLlyEfXcAtWODZZLli618kS7EIvZWxY0EiraO7ZrJ71695b26bBhnTaPELZCBOIPATgnHDp0SOBwEcvJOw6iDqujQhBBsw01W0Mf2DuFg0P+/PmljGprNgcPt12YwMFLzY+gqcbyio+xwtOuSJEiZk87iDA2WGSAVIAZbR6ar41weIdDRowR/+PAsFKlShH77Gq7bQ4svdp+aLv6ABNYUGTNls1osqGEtvd8+61tGKY8m9Yrpd6FfoRDwC+++MJsuaSWmjVuImPGjZUmTZtam+CWhRUaXiACsSMAAYlPrATBFk24edtC+7XUhTglhIdDrNsntnZTMlbYW+MTK+GBgz1gfILIK2D9eIuq8MfHj9BPubJl/S7FVIaHyqkI45g6USYe6sWKFPmIABEgAumMAAVyOgPM5okAESACsSJAgRwrUuQjAkSACKQzAhTI6QwwmycCRIAIxIoAD/ViRYp8RIAIpBkCD6u976KFiyLaw+HZ9McelQoej8AIxkxaQA05ky4sp0UE4hmB7R9vlz3ffKOxowtI2bJlzOe4xjv+QoPCwwwuUYkacqKuPOdNBCwIwN523bp1yQHvLWxS4owzpI3GjziV6G3jJkyUs88523QxXKOovTB3nq27hCinQE6IZeYkiUBsCLz++uvSS+NTlFQHiVCnFL/aX3/9tTRX92y4diOwUWpo166dKtD/VxOOHYlOFMiJfgdw/gmLADzqVmpeODjrXqHxgRHAaILGzEB0uLPP/p/WGgQO6sOj9zKNRTFfg+/s1uBC77//fnIQodC6f2lci9M0LoRXmx58+x1BXSTcNQrkhFtyTpgI/A+Bxx57TEZqeEkQIq+t1W2K11aujDkiXcGCBU285Hbt25vgPghLifx5yJv3mQYwgsZ7/bW9ZbsGpQcVVA++Ll27yK0aLY3kjwAP9fxxYSkRyPQI3HHHHTLwZJD6lApjFxy4Zi9etMjE1IAwRiwICPdxY8bIhRfUNQd1t2gs5fGTJsoTM2ckx2cOiveREhf0zLZI1JAz24pyPkQgRgQQeAjZN0CIQdyxU6cYa0ayIYs26GcN7rNK96GfeXq2FCpcSObNn2/+urRt6zb57dhvMnzUSHnrzTelu6ZJ2rxpowZkyistL7pIkookyQUawjNRiQI5UVee805oBBCrGHu/bhB7RGnD51QJEenGjhkreTWYPbYmQoVxaNsIApRHtevaGoB/8kMPiWatlplPzTrV7v/19bll8a9fQk6ACKQcgdWrV0sJDb95RA/moNHGcogX1AtCVw4dOlT2aWD5BYsWSply5UweOlLKEKCGnDK8yE0EMgUCn6sDBlJNIR4ysn5s1KSsHTp2lLVr16Z4fjjMQ5qqy9q0MXWh/f4l9qSsKe4ggSpQQ06gxeZUiYCLwG962Pa4plByk4VCMM/WFEXRbI/9EERePVcYI5C7Zk+Rb08mMvXjZ5kdAWrIdmx4hQhkagRwoKdpl8LmCIG8RROnFvDJ9uwHxkOacPTRRx81+fFCyRZQ3muH7NdmIpdRICfy6nPuCYsA9nwhfCdOmKDxJAoKrCRGjR4tSNeEg76+mmE5GuFgUHP3GbaRI0dKSXWlRpnmyjNOIH5UUdMzPaHBg7JmPU3y5M7tx5LQZRTICb38nHyiIlBYs0Ajo3KPHj0EmapBMIMboYJ1tNoQ11HrB+TQC6JZ6jKNLY+O6q03SuuBsGUxWbNeQ8j7UYOGDWT//n3GWeT+hx6Uw4cO+7ElbBkFcsIuPSeeyAg0btTIJPXUrNVSv149EygIThygw4cPy4UNGsQMz2+qXWuWaDl65IjRrpGQdJgGCrJRl65d1WOvq7m8aeMmG1tCllMgJ+Syc9KJjkD58uWNlcUydX1eqh9Q5cqVpXbt2imGBhmj169fL8eOHUuu21sP+kgpR4ACOeWYsQYRyBQIuN517mRm6MHchRdemKq5wbvugw8+SK7rbduv0R07dqi79TZz6XfVsjeoUIc9NGJeJCpRICfqynPeCY/AVN3r3brtfwIR2xfnn39+qjF5TC0tvjwZWD6veuBVqVIlaluIAFeyREm5+eYBkiNXTjnxxwmNPBe1WqZmoEDO1MvLyREBOwKV1OIBn7QgbHWkdLujhmrD+JD+HwE6hvBuIAJEgAjECQIUyHGyEBwGESACRCDVWxZ79+2TY2q3SCICRIAIJDIChfQQMprNdqz4pFogw5NnxYoVsfZDPiJABIhApkRgkAbgv/+++9JkbqkWyMgSgFxcJCJABIhAIiOQlvE5Ui2QMYi0HEgiLyjnTgSIABEAAjzU431ABIgAEYgTBCiQ42QhOAyaKSo7AAAY7ElEQVQiQASIAAUy7wEiQASIQJwgQIEcJwvBYRABIkAEKJB5DxABIkAE4gQBCuQ4WQgOgwgQASJAgcx7gAgQASIQJwhQIMfJQnAYRIAIEAEKZN4DRIAIEIE4QYACOU4WgsMgAkSACFAg8x4gAkSACMQJAhTIcbIQHAYRIAJEgAKZ9wARIAJEIE4QoECOk4XgMIgAESACFMi8B4gAESACcYIABXKcLASHQQSIABGgQOY9QASIABGIEwQokONkITgMIkAEiAAFMu8BIkAEiECcIECBHCcLwWEQASJABCiQeQ8QASJABOIEAQrkOFkIDoMIEAEiQIHMe4AIEAEiECcIUCDHyUJwGESACBABCmTeA0SACBCBOEGAAjlOFoLDIAJEgAhQIPMeIAJEgAjECQIUyHGyEBwGESACRIACmfcAESACRCBOEKBAjpOF4DCIABEgAhTIvAeIABEgAnGCAAVynCwEh0EEiAARoEDmPUAEiAARiBMEKJDjZCE4DCJABIgABTLvASJABIhAnCBAgRwnC8FhEAEiQAQokHkPEAEiQATiBAEK5DhZCA6DCBABIkCBzHuACBABIhAnCFAgx8lCcBhEgAgQgWyEgAikFIEPP/xQ3n33XWu10/Pmlfr16kn58uWtPEuWLpW//vpLOrRv78vz7d69smjhQqlbt66cd955vjy2wu+//16efPJJ6d+/v+TPn9+XbcWKFfLjTz9Jtyuv9L3+k1677/77pWGDBtK6detknj///FPefPNN2bVrl/z9998RdS+59FJxHEeWLlkScS204Mwzz5RWrVoF8vzTF7dv3y7r1q0LHEbWrFmlb9++8sqCBXJg/37p169fGP8jjzwijRs3lnPOOSeiHaz/lClTpFPnzlKubNnk6wsXLZK9334bwR9a0KVLFylevHggz7/yot48YdShbVtn4YIF3mJ+JwLJCEyaNMnJlj174CdnrlyO/th8UVNh5qjQdnLlzu1s3brVl2f16tWm/fHjx/teDyrs3LmzqXtjnz5Wttp16hieiRMn+vJ8vXu3uX7n4MHJ11UQO1WqVg2c96uvvuqosA/kQbudOnXy7TeeCh9//PGo88idJ48ZcpOmTQ1vKG3ZssWUnVOzpqMPr4ipzZ4921y/qV+/sGvNW7SI2u9bb70V0V68FzRt1NhZt3Zt4DCpIf8rH6PxMei77rpLzj777IjB7PjkE6Nd3jV8uPTp00dy5MgRxnPzgAHyxx9/GE1y4KBBsmb1asmSJUtEO6kpgOa7aPFi097TTz8tva+91mjZXjp27JgpGj1mjNHUR44c6WUJ+75z505p3aaN/Pzzz9K5Uye56KKLpEDBghF1atWqJdu2bTPl3a+6Si5r2zaCBwWlSpb0LY+nQsxx7ty5yUOaNWuWvP766/KArm2p0qVN+Wmn2Xc9V65caXg+0ftBH7DSsmXLsOlNmTrVfH/ttdfCyvEF6zdnzpyIcregUqVK1mv/5gsUyP/m1fuHx47XefxoI0hfQd997z1RbVGOHDkiRYsWTWaZ/9JL5sd5/fXXy359xV22bJk8rz+8Ht27RzST0gII+dvvuEPy5csnjz32mPTo0UMG3HKLvLl5s+DV2ktly5QR1eRl3Pjx4ujFUQFCWTV1I4zvnjRJ7tA+gsgVyDVq1JAuisW/lbCtgo9La9euNf9efPHFUq1atajTWr1mjeTV7avff/9dpurWRahAXr9+vejbkRQqVEh2794tn3/+uVSsWDGszX8zdlHBsTBQIFuAYXFsCHz33XeyV/d7Q+mrr7+Wd955R5o3bx4mjKGVDhs61PwIx40dK7/88osRzkO17DLVPgv6aJyxjeJ/XPer5gZN9p6775bLu3aVxboX+cKLL8qMGTPMPqeXCuo4lule9kUqYCBwjx8/LpMmTvSyme+vqWZYrFgxufXWW32v2wqPHj1qNEQvValSxeCQWQkPL91WkNa6T54nTx6Z98IL8tlnnwnmDcLeMYT1vffcI7q1JKtWrYoQyOD79NNPBfv5oZQ7d26pWbNmpoTO/r6RKafLSaU1As8//7zU1QO80M+VelAGYXvH7beHdTd+wgTZ/c03RhhDa4b2dbvyQKhDSz0V+mbPHrn/gQfMj/rmm282Td17333mRz9q9GjBQZ8flShRQl7XV2YICgj0YboN4yVsaRw+fNi07adpe/lDv7///vvSSA+1vJ/1GzYEVfvXX1v3xhty4sQJoxUPHDjQbE9Nf/RRMy/dn5el+mZ0zTXXSMeOHQ2mEMh+dJveH17suulWUGYlasiZdWUzaF6d9bTbq60cPHRIhqtg63r55bJTtSJoltCOoBXhtP26666TBWpBAUFXoUIFyaXbBo/qj7WX/kD9TuNjmcptqrn++uuvMvnhh40FxKfaH6hRo0ayfPlys589UzVlP4JQxt4zhMcDKtQhPG666aZkVgiMpKQk+UYFSUoJe8oQ+F7CdkZmJlfAAlM8yC644AKzpz961CiB5QUsVPopxngrqlOnjqzR7RAI8OzZs4fBAg168J13hpVB486sRIGcWVc2g+YFc6VQkyW3248++kjuvfdec8CFHyX2drHH+9CDD5rDmutvuCFihNjv1VPoFB/w4aAJB3nt27UzAhgHjdDEQ+mZZ56Ra3r2NNf9qHSpUubAqkWLFvLf//5X9u/bF8Z2kc4Br93YA++qD6FYCQKnadOmsbJnGj5gWa5cueRtiAF6kHv11VfL9OnTjWCGKWHlypXNfHEOgS0utcqQCy+8MAwDv0PjTAOSz0QokH1AYVFsCBzQrYavvvoqjBnaJfb95s2bZ8qhAUOI4cQdNr+wSa1du7a0U+EZSt31AA4/4mefe0566g/XJdgKe/twr51xxhnmXwhy7CtCu4WGhR92KG3ctEnUzExuve02eVv3NW3bDmXUcsC1BpgTYl2AtoYNG2aEfu/evY3WDxtivz3gUNvYwz/+aB07tLxMaUerWOFhiLcUHNy6BMuUoUOGCLatoB3frDbiLuFhp+aH8rpuW4QKZNu6o15JtVLJmTNnchuZ5h+vURztkL2I8LsXgVjskGFf2qdvX0e3ERwVyo4eoDnq7OFtKvm7a5tcslQp58cff3RcO2S0Y/uo04IzYcIEc33suHHWtnFBHQkM37Rp0wxf1WrVHNgi+5EKFKdipUqGf+iwYckssDEuWqyYdTzgj9UOuV379n5dx3VZv/79zdz1kDJinKF2yHqIavheevnlMD73vvHaJetWhVM4KcnRvWLDH4sd8saNGyPGEO8FtEPONI/N+JoI9kVDtR/v6HCQ1rBhQ7OF8IYe7sCKoUmTJoG2t9hnnDJ5smxRD0BouGXUJC1UU/b2ge9FihSRQ3rYhv3eO6OYoj2g2xBF9CBxj3qAQUO7XPe3c3j2K90+YA6HPdAhgwdLJz10cglaMWys58+fL5/s2GH2PL1UVrdwVDBEHbt3393bTjx+r6eHt8d/+83X/rqVeijibQgEU0LcH82bNQubBrz4Pv74Y3Mt1O48W7ZsMnLECPniyy/NucIler+U1+2OIMqsbxdZ8FQJnXhH/RH10tey9h06BOHBa0SACBABIpACBJo1biJjxo0VfZuw1qLZmxUaXiACRIAIZCwCFMgZizd7IwJEgAhYEaBAtkLDC0SACBCBjEWAAjlj8WZvRIAIEAErAhTIVmh4gQgQASKQsQjQMSRj8Y7a23A1/7H59SPUIVyD4YZqI3ikTVNvKBvBYyooshqCryN+gF/wdbR5ySWXmFgUNkJMCThPILiMH1XVmBFPPPGE1agfAYhQHwGK/AjOGE8/9ZTA3TklhMDyCPv5wQcf+FaD+/YMHZfrPebHBMcTOLnYaILG4/CNfmerEEM5AvTAoSW16wEzv2s1BKltPaqotxzWA/NPCamtuPTSdg8cOOBbDeuDdfJznkEFmLdhPRDrw49iWQ+/eihD7BI39KeXB78heIvChM9GcE6Ce7eNECvlanVkShfyGlPTMcSLSMZ9h3OExpkNdDyAs4VGEPMdFBwqNMhPYP0LGzQwjhd+hHavu/76wPplypZ1vvjiC7/qZlxwvLA5cqA8b758Doz6NbJaRBsqjB19GDkIeh7UhrreWjGIaFQL4HigGU6cQoULB7aLYPg2bOHU4jqL2MaGwPi2+n7jilaGttTFPHDMWA8NXenbFOqrq3JgfazHhg0bfNfDt1EtVOHuaCwSJ0fOnNa2cQ084PWSPhyd9957L+p6jFNnn5TiCSyAiW2NUA5Mbe3it1Gvfv3A+rhu+w155xr6nY4h6fIIS59GEWUMrsMrNciNTeuAMf2vqkFq1goTNvLcc89NHgxcfYeoa+orL78serNZB4lYwWdrgB/Ea0CISpf0B2KCqT85c6Zc1a2bcW7wI2g+CCh02WWXyfhx45JZMObG6vyBgDHr1RnEDQDvbQMurwgG/4c6VWhmmuQA53CyUO814zzyzttvmwhwfoTxQ/vRB4u8oemFChcu7McWVgaNG27emzZulH2eGBUuI4Lo64PGxMFA2qLQ9FPAaobi8rJqxz/88IO1P2hflVTjnKdrcarxK9z1QEAkuJwHrQeCOCE2BDR0l4Af1qPPjTdGXY9RGvDnuMYsRsqsoIDzaBsBnFpq7In69evLW/o2hSh4foR1gaZ5jwYHWq1ONqeffnoyG9Zjv94vQesBF3i4TmM9EIc5NC6zX38oG6H3FWJwL9dP0G/oN3VuqaxvakizhcBGLiFUK2JdY51tbxTgdX9D92k0QVsKMNsYo5Z7JTo1ZC8iGfPdTQ2k+eoCO+x/883m6a2vz2F8GvLSlEN7DKKZM2caPg3eHsamPxxTrhk8gqobTRN8/6lRI4zPTVsEF9og0lfVZO0DbtUuqQAx5fkLFAiqbq656Zc2bdoUlRcM0ALRtgrTQP4OHToYvrnz5oXxNWzUyJTrAzOw/pixYw1fqLt1YIWAixqYybR1y8CBAVyO0TTBV/0//wnj0ywcptx1R7Y1gtRK4MNHQ6ba2JLLd+zYYXhVQEblBQ94USeU8uXPb8o1JGpgGxqa0/CpshHI514EBuAHJkEETMEHjEOpe/fuplzzMQZVdzRziuG76qqrAvm8F2PRkHmoF/WRRQYiQASIQMYgQIGcMTizFyJABIhAVAQokKNCRAYiQASIQMYgQIGcMTizFyJABIhAVAQokKNCRAYiQASIQMYgQIGcMTizFyJABIhAVAToqRcVooxhgC3oCk3GiezIyH7sR7BDvvKKK0xaeTW5CWO5Tb25kDIIgd5t9VEBKXKaaeBwbzr7qzXf3EpNxol8cW6iT78xwPb5CrV7hc1wKCE102Vt2khvTWA6depUUccPv+pSrnx5k+jyd82vF5qsElmo4QGF/HzPaSZrb047tzEEv0c6pflqM3reeef59uEtHDtmjOxV++PNajf7maaX8iPYvfbXtEKwx0Xq+lC6S/vTLBgmPVQQtkhFhID8N4SkLvLrK5ayHprGaoXaW8NWPJb1aOtJiYXcge56wOsMtrd+VFYDwY9Rz7bfdL1CbYX9eFFWqVIl6YnchJqAQM3DAu2QcU+r04mpE0pYD3gQvqleiLb1QNB6BLTHuNqojXUshP6WaJot2Ebb1gm/IWCKnI/AOJTwm/he7czdDOS2PvEbat68ecRvyMafonKvrRztkL2IZNx3FRqOa6MJO0e/T7du3awDgkcaUhP51XPLYKsJTykbde3aNbA+7ITV6N5W3dHcaIH1MY7169db6y9btixq/cmTJ1vr2y5oslUne44cgW1rIlZbdefIkSNOseLFA+urw4S1fmovaGaTwD6xHvv377c2H0u6LaTCSimp00fguLDO4LGRCsRATz/UVxd+W3VrObAAJkG/AWBqI/w2qlWvHlgfv7Gg35Ct7VjskJkxJEWPr/RjXqxeQ/BAu1jT17ytnmp+hKc7tAU8/dXBw6SmdwmpccZqjAloea+px5+NLtVYFFOmTBF1S5Xq1asns8ED7Qb16kLK9WXq6aQ3lW8T8NCCNxS0rzb6cQkZpW/QTNJqXG/GD83Gj85UDRna2u+qid7pSe+ujhWC7M+4Bo3Wj/KphgxPw4XqVfb4Y49ZE5aG1oV2u2//fpNiCG8XfgTtFymHkBX5KY3BEKq9Q+tFmT4M5Y316/2qmzJgcp+uDTRSzONU6ODBgyYzd7T1QEyG5fpmhbVA/y7B8xHrgTcpZHQ+ZtGQsR54m8GaDNaUVdEI9wVinaDfbzVuCVJo+VGSeuqpC7Ns3rzZxI4ITdmEe1dd0c3bXGrWw68/lC1dtkz0gW4S0CIGiB+5vyGsE7wgkQbMpe3bt8tofVtAvBe8LdoIKabwFjhGNf0aNWrY2CLKY8kYgh9eGFFD9iKSMd9dT72tW7cGduh66qk7bxif66k3e/bswPrwQoL24PXUcz3DonnquZ5hXk89fZiYdlPiqYfYFS7Bawv1CxQsGDh+XHQ99fTHHpUXDO5bhwq5QH7XU2/eCy+E8bmeeoizEURp6amnbrkGj2ieehqcx/B5PfXgVYjyWDz13DeHUM9JzBPJTL2JaTWjuGk3JZ56qBNKrgYbzXPS9dTzek7ivvFLcup66gGTIHI99YBxKLmeevDECyJ9OBsM6KkX8czJfAV6I8Q0KRufrdxt1HbdVu4djI3PVu6tH/o9tI77f0raiZU3pW3b2rWVB80xtddi7cvGZyv3G48fPohZgeS0l2ryUtua+bXlV+Ydi19/fvXcMm/9Pn36yCU6Lmi0fuTl9+NBmY3PVm4bj6391JTTyiI1qLEOEcjkCCDcp9nK0GBW8UYIXIVwqtgmy2xEK4vMtqKcDxFIAwQQ0exV3Y+NJZpeGnSXoiawB71x06awaIcpaiCOmSmQ43hxODQi8E8iEJQI4Z8cV8GCBcMOMP/JsaR139yySGtE2R4RIAJEIJUIUCCnEjhWiz8EkBbIFjA9/kYb/yNS22tjghiPFJQoIB7HG+uYuGURK1LpzIdcbFmzZhV4KK1evdq3N2RzQCaKOXPmSAPNmBFKLdVLbPWaNcbLyFYf/NWqVRO88oE/lBqq5xX2DZtolglkaLDlcEPGENiPenPHqcmRyfYBbzXYIWuwc985lC5d2vSNA5mcOXMm8xQoUMDkCjxD29eA5tbMHhg7+kZWFIwjlDS9lWgAfdmgtsKYi0sYEzywDh06JGpW6Dsu5HBDu2/p2OvUrh3Gg3LY3MKbMAjbenXrCjwJm6jX4qlSWqwHbKExd9gh2zJguOsBwRuaVw/r01rtmksULy4vaxYal5DxBfbrdXWu6mxjzaACrJBZBPcC6oQSxoQMLnh4og0/ctcD3nze9dBUW8ZLcJPaOOOecwnrhPsW95VtnfAbwj3+7LPPCjAOJdyXsD/Gb8RWH/xVNWMPcgV6f0N+80hxmZp4hBHtkL2IZMx3ZNKA3aebZQF2jn6fAbfcYs18AS8l2J361XPLmjZrZvW0g13oTf36BdZX5wqTAQKZJryE+uqEEVgfdsawIfXLTgFvOP0hJGf48JsHbGbVtdrxsymuULGi6fvLL78MG5oKG0eFklO0WLHAscEW22YbizZhe+03JrcMdqm2+l6sYvmOtvr17x/Y51lnnRW4Hm6GGNu4sR7IqeddD314GU+6wklJEUNVQeqoI5OTK3du69hwbcnSpQ54vYT12LJlS9T1QBYbPzybt2hh+lXFIaxp3JO4N4GJbb4oB6Z+7aIxeKHClj6ovqbGCvSO9M7X/R6Lpx415BQ/wtKnAp7c0G7bd+hgvJv8CF5GnTp2DPMuCuWD9oocX0GvmbheXLUeP4LXUudOnUwmYL2J/FgEMRIwzlDPK5cR9aHBQ3u3xU4or7ETatWq5Rs3IX/+/CbHWcsWLYxnnR9BA8UYQr0UXT5kOcbYvfnXkC+vZs2axsvxE9W+/QieerC5DfXcCuVDm+pWbrwUbYTcdrb6tjpB5e56IL+ebT2g5Z3qeiA+iTeOBawr4AlZrFixiCFCO6yrbzOIiYK3Dj/C+lxw/vm+WaexHueot2W09YDHnR+ej6iXnDrvGE03lHBPAosO+hvRh77fsMx9i3vcr11UwG8DvxHb/QseXE9p1nPfwfgU0nXaBxQWEQEiQATSGoFYXKd5qJfWqLM9IkAEiEAqEaBATiVwrEYEiAARSGsEKJDTGlG2RwSIABFIJQIUyKkEjtWIABEgAmmNAAVyWiPK9ogAESACqUSAAjmVwLEaESACRCCtEaBATmtE2R4RIAJEIJUIUCCnEjhWIwJEgAikNQIUyGmNKNsjAkSACKQSAQrkVALHakSACBCBtEaAAjmtEWV7RIAIEIFUIuAbXGjXzl2yaeOmVDbJakSACBABIuBF4HfNURiNIgRykSJFZcErr5gPiQgQASJABNIGgSwa0TE0BrhfqxHR3vyYWEYEiAARIALpjwD3kNMfY/ZABIgAEYgJAQrkmGAiExEgAkQg/RGgQE5/jNkDESACRCAmBCiQY4KJTESACBCB9EeAAjn9MWYPRIAIEIGYEPg/ArRR3dmH3SUAAAAASUVORK5CYII=;" vertex="1" parent="1">
          <mxGeometry x="592.31" y="737.82" width="172.78" height="104.35" as="geometry" />
        </mxCell>
        <mxCell id="D3aQGoSbThy1BRufcLk6-46" style="edgeStyle=orthogonalEdgeStyle;rounded=0;orthogonalLoop=1;jettySize=auto;html=1;" edge="1" parent="1" source="D3aQGoSbThy1BRufcLk6-45">
          <mxGeometry relative="1" as="geometry">
            <mxPoint x="250" y="950.0049999999999" as="targetPoint" />
          </mxGeometry>
        </mxCell>
        <mxCell id="D3aQGoSbThy1BRufcLk6-45" value="" style="shape=image;verticalLabelPosition=bottom;labelBackgroundColor=default;verticalAlign=top;aspect=fixed;imageAspect=0;image=data:image/png,iVBORw0KGgoAAAANSUhEUgAAAWEAAADZCAYAAADxEYF7AAAABHNCSVQICAgIfAhkiAAAIABJREFUeF7tXQeYFEXTLlRyzjkHCZIEFCQcOQlKzigIfJKUKAhIlKgSBDMiKhhQgiJJBMEA5kwOiiJREANiQJ2/3pbZf7Z3enZvd29vj6t6nntge6rDvD1TU11d1ZXGYiIhQUAQEAQEgWRB4Ipk6VU6FQQEAUFAEFAIiBCWB0EQEAQEgWREQIRwMoIvXQsCgoAgIEJYngFBQBAQBJIRgav0vi/8doH+/udvvVh+CwKCgCAgCESIQOZMmejKq/zFbhrdO6L9TTfRV19+FWFXUl0QEAQEAUFAR2DJ00spoWFDv+IATRhXp947jZq3bKnXl9+CgCAgCAgCYSLQqV1715quQjhL1qyUN29e1wpSKAgIAoKAIJB4BK648krXSrIx5wqLFAoCgoAgEBsERAjHBmfpRRAQBAQBVwRECLvCIoWCgCAgCMQGARHCscFZehEEBAFBwBUBEcKusEihICAICAKxQUCEcGxwll4EAUFAEHBFQISwKyxSKAgIAoJAbBAQIRwbnKUXQUAQEARcEXAN1nDl9Cj8888/6fcLFwj/5sufn9KkSePBLZcEAUFAEBAEbATCFsK7vvqKVq9aRTve3UFHvvmG/vnnH9Vm+vTpqWy5ctS0WTNq174dFSlaVNAWBAQBQUAQMCCQaCF84sQJmjJpEm19Y4tqElpviRIlKE/ePPT33//Qse+/Jwho/D28aBH16t2bho0cQVmyZDEMQYoFAUFAEEi9CCRKCL+3cycNGTiIfvnlFypWvDj169+PbmzThnLkzEm//fYbZWAtGMe0Hdh/gF7ftImWLF5MS596it5991164snFVLRYsdSLdDLf+SeffKLm4YczZ+jff//1G025smWpT58+tIg/mn/88QfdddddrqNdsmQJHeWP7JTJk12vo+4kvtata1e69tprXXleXbuWPvjgA9dradOmpdKlS1Pjxo2pSOHCATxHjhyh119/nY6zInDx4kW/6xkyZKBJEyeqskcffZROnDwZUN9ZcOcdd9CpU6foueefN/IV5+f1uuuuo+rVqxt5PvzwQ1q3fr2654oVK9KDDz5Ip06fDuDPkT07Va1alZo0aUJXaUcZBjAnQQHudRO/k99+952aY53uHjuW3tiyhfCcDB06lAoVLKizqN/btm1TfAMHDqR0PF8L+ZkxUQE2TeI5qFevno8Fz+CGjRtdq1xxxRVUkhW6+vXrUzleTdu0bPlyOnjwoGsdu/C2vn2pQIECdPe4cXQLK36m5++VV19Vz9DUKVNoI4/j8Ndfe7aLOevYoYMnT8QXcZSlk9q1bWu9smaNXmydP3/euqZ8BatMiZLW/bPnWGz/tXbu2GENG3qHdX2Nmlbp4iXUtYS69awJ48ZZe/futXjiLRba6lqThIYBbUpB0iPw448/Wm14Tq9Km9b41/rGG9VAKlSsaBUuUsQ4qAYJCVbadOmM1ydOmqT6KHf11dbvv//uyjdk6FDjOOwx8gFSFr8gvvp///23NWr0aCt9hgzGurnz5PHxX1ujhpHP7mPfvn3Wan7OvXCxr90zcaLrvaDw4YcfVm28vHKl4qlarZpnm8D4iy++MLaXFBcWLlxoZc2WzXNcx44ft/r17694Pv/8c+Mwpk+frnjee+8968svv/Rs08ave/fuvvbmz58ftE669OmtJ554wleHFb2gdfjjYLGAV3y5cue2du7c6XoPE+65R/GwULfYZBq03VtuucW1nXAKG9ZvYG3nceoUsiaciQ8j7tuvH1WsVJFuqFuXWPjSG5s3q48ANBhoxtCwTpw4Ti8+/wK99OIK6nVLb5q/8EGqtfw6vvafzTjir4Y0kCgEunXvTm+++abSwoYMHkzFXFYjuXPnTlSbbsyHDh2iefPmqWfha9Yu5s6dSxMmTHBjVWVLnnySCrtou7t37yYWekrTgvaD9qbde6/SMPOzZnXX6NFUoUIFulI7kUrXLrPySYCvvvKKsX/gsGfvXnV9MONyU9u2Abxnzp6lyazZ33fffdSpY0eFYSiUI0cOevGFF/xYz/30E618+WVatXo18UePPmWNM1++fKE0FxHP8zyOkaNGUebMmWki41qrZk1Kly5dQJu5c+UKKAu1oH27dnT77bcHsJ/n1fHs2bOJP1DUuUsXAp9N0ESvv/76gDpHjx4lFpQ0mldjbXlOoN3ahNU1ngc3qlKlitLiQVipt2rdWs1/QkKCG7sqm8/P6088LzbddPPNlCdPHnqKV3w2xWKOQhbCsP2OHD1Kja0jn4v5xeefqw24EaNGUv0GDShjxozq2q+//kprWeVfOH8BPfv0M2rpM5MnQij2CGzfvl0JYCyn333nHdeXL1qjwov+119/Ea+iaOCgQTSHBVfPnj3VfoEb1a5d22/JafNguX7o8GFlUoAQLlSokBLuEGzvv/++q5nCrX0IZSxrQ6Gr+TlGv24EM0enTp3o7bffDlkIQ8i5tQdBfteYMbRgwQK1jJ/OH5ekJNa4aBLv3+CDtZmX4DCtJAXBzOh2v+irdKlSVJ1NEngWnULYNs24jefnn39WQvijjz+mtmzutKkuK3/Y+A9G+KBu4vttz2aE19j8hXpudM011/gV45mBsuk0n7jVi3ZZyELY2XGlSpWofIXydA9P8NtvvUX/69efPv7oI2I1n2rUqEGDhw6h1zZuoKmTJlOZMmWiPWZpL0QEtvGDDxrDL76b9uPVzIYNG+gnfhmc9MMPP7hWgZ0N9jXY4lqzBgLhwktbGjlyJK1mzS+xZGvmeBm//fZb9SGHpmXbiSEQT7uMpSw/a7q2+g5/fH48d85vCLl4DyNUAZ3n0ioBY4kGjWebJbR6fBwpiYUwbOjAryUnaEgqARwMEzYNKJZfEoEfm5ZUHTfMYYPX7f2ZWAFsxt5YNjVv3pwGDBhAnTp3VqsOaMQNGzb0XY+3/4QlhKfNmK7u48H582nRgwvV//PzsuFPflmgcbGtmBYsXEgPP/ZovN1vqhrPuUvCp1TJkom+7/FsSoBpQCfdB5xtv2ojD8t/thcq9t4sjJc+/TS9tm4dredNqxv5RQiVMOZV7PqIlRXMDvYmDjQqm2bMnPmfENMavfPOO2muZjIYe/fd9BErCE6CQNrBG0TBCG6XTy1dqti8NueCteO8npM/APjIsK0+MdXC4vXNvwO7sBqKoBLMTiDTRpneND64zz333H91XDZE58yZQ2tfe82vWtEiRZQJzEn48MD8A0F8M5tBsEJr1KiR3l1c/A5LCNsjhz2lfPnyBKHMmyGE5c/G9RtoNr8kMEsIJS8C9g73QbbXhvoS2CN+nl+ECxyA46Tb2U77FbseOmkWm5qgcd3P5gcI5CcvvXRY6mEnfARrw/B2sM1Vzrq8SUMvrljhK+INODrMpgh42kybOlWZIJz3YDM+zYLRucP/1a5d1JGX+m7kdh9Ycuq0gxUHmFScBPsktH+8vHipo0EQvmfZ1gxPiqSmApc8HGCvD4Xs1RJsqib6+dI1mGmcBK+LLmz3ddJp9sj4/tgx9TG99dZbA5qErfiBBx7wlUN+fMMxB5ArvCHmitECXkXcq60gTKs8zNnLL72k7NHt2rdXgjgeKSIhPJlfFBAe1HFjxlL2HNnZbjyaWrcJXfOJR1AulzHBNMAeC+pBhz3O9LC63a+bkNB9vSEwIUjxIR4yZIjaDHmLzVNOwkt1P/dvu485r0EYQjO0iXfblQCGZj2Ol+0gbN7k4k2jZ555hkaMGEHQegpq7lNeWqXJJu03SP6BDR/nWGwBDNs17Ir6RqBeP9Tf02fMUMpK61atQq0SNh8+YNDgt7BLGezpuBcvKsGb6yCsHEzmGlzDaggbm8dYwNoEfJz44UMDAQw3P5gss2XLFtA17LvOOod4DwACGC5hi594IoAfBZj/xFArxnk5u7j16NFDCeKavDEZbxSRELZv5qGFi9QXB1SyZCnq2r1bvN1nqhwPdox78sMHX1h4tMA3FgJT9yTACxKO7R5aLjTSuSxkIcS2vPGGH84QjpVYI4Z3Qfdu3ags+yM7CXZe5646zB+NeYOM3b6oWdOmSgOFBo2d9DvY1FCnTh0ay/ZtaPVOzXrf/v0B8wutGoLHRLrtGCaKTQ7/VawCWrAmhTbwEfPy9ND7QN+ffvqpX/ERts3iHVnJppZSbB5w8ybQ24nG71m8KoVdtCULo9Gs6WOTKjv7LOtUuXJl6sDCbzJjPXXaNLUKuokzr8Mj5SLfzze83H/88cfV6gb2V3wYnUIY9nonfjDlQPCxG6DaZHuC68IP2EnYQHN6pZxm/2pkIl7DNlw8s7179fLjhz3Y5B0BbdtE7djrASYObBRjPyHuSPdZM/kJ63zO32wXVr7A+Nu6ZasXq1yLMQL8Mlm8FPT0hwzHT9j2se3atavnHcHfE36Zdh+2n/D+/ftd67HQs7LnyGFly57dgu+nTezqZGXKnNnzPticoNhD8RNmge/zE4avrxvxCs/ij4jqc8aMGW4sifYTrlmrlsX2S9e2kqqQ3dQs+FHbfrtu/8JPGMQrDgt+2m48KIMf9HdHjype20/Yxl0fP3zFGzVurNrqP2CAxYLZsv2E161bp7Or37y6svioA+UTzkEaqiwUP+E33njD2rp1q+rrsccec22b3QOtjJkyKR63OcibL5+6v6SiiP2Evb4eg4YMphIlS7ANLyfVq///0TFedeRabBCAxvg0b5KNYi0IO/Ju0VyImAP1Yk3hd5doKnukWCbatuVTHJEGswH8eb2oH/uWI1rrAtuL8S+0KGjezmWosz7MD6vYVriVx8oO90r7xbJ1LEd09WTNaCN7bbAQ8J1V4qx7ww03qJ99OfoPUXVeBH9QftnUPZjs5eBhYUH8ISH4vEKbtZfsdtuoizbKX321r283jLNy2H6tWrWUfVzXCL3GGY1rWIW0YI8BRPZhAwuuhDplYT9iEGyxOPcFbqa79+yhsxxhCfwLsqtgXcYXnge2NoqM7Lh3G3e9TdiNcb7MXHYxhGbMQSDKHIA6ppUXVgkw/7zEm2r8oSZsLnZmF0Gs6ryo5KXNZ7RdrVo1V9YObI7AeN7kqL/il0wvTkasFN3MJq6NRbEwDaS+s732vATpc9ttakdRSBAQBAQBQSA6CDRqkEBTpk1VJhcnyXnC0cFXWhEEBAFBICwERAiHBZtUEgQEAUEgOgiIEI4OjtKKICAICAJhISBCOCzYpJIgIAgIAtFBICp+wtEZirQSDwjAE+Az3sU2EXb3sVvtRfCRXXwpcs6ND2G7CN7wCh6Bn+oUDgbyirwcPmwYXX3JK8GtH5QhyON9w/nFuI6dfd0fVW9rD3sJLHroIb3Y9xt+t5M5KMYtKtBYKY4u4IAkRFWaCL68CHrwIvjfvvDii0YW+BEjACdczxD4ju9yCaO3O2zRogXBHzhFku4TF46fsN6G/E6ZCMAv1+QfapfDf/PAgQPGG8Q50+xmFLQdk9+t3TDODw42lipVqyrfUxNxdJc6/9irHVz/7LPPTE1YOMu4YqVKnm2gfT5M3NhGPF9gV7Cg9wafbc6oY7wNPmjH4tySQdvhYA9jG14X+DCpoG3Dh/ybI0e8mkn2ayY/YXFRS5GfzugPGue+Ih/gOY5ys8/ZdesFEVdIYVWINRtdg2RhRg+xxnIr+5p6aUXQHG9mV0icM4EjK50aMTRgRJMNYy0XZ+HiPAoToZ9HHnlERbPpGvFDrLnCnxUhtl6afU0+8wRRfwi71X2eoQHjwBiMB9kdTISzervy+QTokwMFUoxGjCwUOLYRqchw9oOJoGUiGwrmvo12GBPC1BEFiHKcpmciRN7V577A8yAf5RmqRozoPYTQH+XxeWnrOCUNfsWInAu2UjONManLTS5qcFj3I9GEdUQu/9/IMgBtDlquKSOGjQIfBqN4kf1A561dp4669syzzwYFrc4NN/zHyxFaTrIjqhAlFYz4SEjVhh2NZ/Mf5+gvaLj4O3PmjGcz0PBsXkTIOalZ8+aqfVNEnZO3eYsWIfN6DihGF5EZA/eWJ2/eoD0iihG8zuwldqXSZcqoa9BWg1GZsmUVL5+sF4xVXbcj8jJkzBiUnw+WUm2Dl5NLBOVPDgaTJiw24aT+/KWA9nHWAQhRTfxweo7Y5kUWFT1Xna+dS+15NWTz2v/avKZyt7ZMvP/w2Oz7sLOAu9VX9+zBa2rfra3E8LrVj3VZYsbrxfvPpbn++1K2da/7SAwv2vHqV+8nMbx63eT+Ld4RyT0D0r8gIAikagRECKfq6ZebFwQEgeRGQIRwcs+A9C8ICAKpGgERwql6+uXmBQFBILkRECGc3DMg/QsCgkCqRkCEcKqe/v9u3vbZhE+tnshTh8eL174Wig+oiddUro8Dv028zv6DjeUKvmebdF5T+4kZixtvPJRF69587ThwNN1fYvr0ml+39hPbtlsbyVUmwRrJhXyc9YvsysU4WAN539zSBdnDxaHrSDODXF96cAMOYV/AjvhIda9nxHXebjbOzIzD2hGKirBiZ7gvkkz25iCMcZwlmbMleB4yj0O6kbMN6Y/0dEWzZs1SwRqFeZx6clLnWHAA+GEO2UXKJxwI7iSEXyOp5Pjx41XKHRMh5XoTTsuENE7PPvusyjwd7wT3wqF8iHlCQgL9yPngjnIAjokacSAEgiwaNGigglKcxP7B9BKnberbty+9vnmzqQnKywfklytXjl7mw9oRpKOn2HKrCDdDpEaqzCmy4Gp4WMuo7KyDA+e3bd9O11SqRH34UP94JAnWSA7v7BTWZzyFLfPLp5zvvf6QiiYWYct2iiOvsYwbPz6FzfZ/w03NYctez05STKYpWEM04Xj8ZCbDmBCei7BlpLPZu2+fcQQ48ObE8eMqbBnpkJyEsOWHOYwY4czOVPZ6Y0ghg8NWnlyyhB7jsGVn8kaELUPDvpMTewYLW76ld28VJoywZWhZToKWjXahTX3+xRf6EHy/a3B6IqT7Qdiynnxz7969Kmx5wIABtJwTRZoIq4duXbsqzR7j0dPBm+oldzl/OFQo8lec5Ropo0yElEbIsgxt80aXsGXO3UatOCmq1+onX758lMCaNDTqBZyhWzf9mPqexisRhC1/e+QIHeLs3iaCRn/wwAEqH0LYMuYbCWWRWHTnjh2ENFaxINGEk+LTdpm0GU7YsluIsx22/OyyZUGR8YUtayHObM5Q2m8oYcsLFy5UvHrYsjMUOVjY8smTJ4OGLfP5FEHvxw5bDoU3aGMxYEjNYcv8YfWtsAb8738xQPu/LkyasGzMxeITGOd92CGfiQlbBq8pbPnvixeD3rEvzFTjvXjpt33dqyETL0Jo+bFXf8HClr147THY/XiNJTG8Xu3E6lpiwny9eBMTipwYXuDg1a+OU6i8sH3P5P0CewMaSXBxOFFykgjh5ERf+hYEBIGYInDX6NH0G2fOxuZdj+7d1Yf6DjZ96QpFLAclQjiWaEtfgoAgkGwIbNmyhWC/xlGqM6ZPJxzfCk8W7GUsXrw42cYlQjjZoJeOBQFBIFYIYDNu2PDhqrspkydT3rx5qWDBgjTxnntU2UTOjMJHmcZqOH79iBBOFtilU0FAEIglAvBf54wwVIn9iJ3+7UOHDqXy5cvTuXPnCL7yyUFynnByoC59CgKCQMwQsDfj0CHc446yOx7y3dlkB44gcKh/v36EgKRYkgjhWKIdp33ZPpuRhi3bO86h+ICaeJ1jCQaXidfZf7CxeIUtm8boNq7E8LrVj3VZYsJ8vXh91yIIW8amGGdJoUGDBvn5WHv1q+PlxWtvxnXp3JmQBqljx46uPs3YpEMU4Qfvvx+yH7M+jnB+ixAOB7XLrA4CHUaNGkXFixVTYbdeOdmQbXk07zAjbFnPLjxv7lwVtlymTBkaNHiwESVkW57NbkLIydaVgxyc1I81EYSfjmdNZczYsZ7ZlvvyDjeyAE/jrMxOKsS2PmQ/Ru46TqUTNNsybITQhmAndNIc3ri5lzdwatWq5Xk/CD5B6PR9999Pt956q/G+4+lC7dq1CVhDKAXLtty2TRvq37+/ClvWiX21acWKFUp4es05si0vYEH7EvO24OAPJ3FKK0K+O+S5g6ZqU5UqVQjmgiqVK6tAmGDZlu9gAYqwZef5J/ZmHAJq5nBYOWgV58TT6ftjx+gaDo/+nDONI+O4HpKv80f1t+6pLDnmdERSz+9Qw5Y5oaIRFMm2bIQmLi+EEracNVu2oNmW8+bL5xlijqAaU7blRYsWqbr80XXFKJRsyxkzZQrItsybcb5M2XyWiGvbzkI7iAN59ziaLih/YhlMwRqiCUf1k5ayG4NWBNcduOyYqGnTpgEhwk5eaJ+wrUFzMVEu1oSHX9qpNvFg15pTqdP5X381sdCYMWM8l401a9ak+1n74USVxjaQbRiH+JgI4czPsEP/XNbyTcQp4ZXmnhKpY4cOdDcflnTo4EHj8NszT4ECBYzXsRJ4eulSWrZsmZEHBynhkB83GjJkiHIV69Gjh9tlaskh0VjZ7N692/U6Clu1bk0lihf3u25vxpUqVYpGjBhhrGtfwDP5ND+7HEFKCOl+MkZua3J2RNCpEQZBQBAQBCJHwHR2hLioRY6ttCAICAKCQNgIiBAOGzqpKAgIAoJA5AiIEI4cQ2lBEBAEBIGwERAhHDZ0UlEQEAQEgcgRECEcOYbSgiAgCAgCYSMgQjhs6KSiICAICAKRIyBCOHIMpQVBQBAQBMJGQIRw2NBJRUFAEBAEIkdAhHDkGEoLgoAgIAiEjYAI4bChk4qCgCAgCESOgAjhyDGUFgQBQUAQCBsBEcJhQycVBQFBQBCIHAERwpFjKC0IAoKAIBA2AiKEw4ZOKgoCgoAgEDkCIoQjx1BaEAQEAUEgbARECIcNnVQUBAQBQSByBEQIR46htCAICAKCQNgIiBAOGzqpKAgIAoJA5AiIEI4cQ2lBEBAEBIGwERAhHDZ0UlEQEAQEgcgRECEcOYbSgiAgCAgCYSMgQjhs6KSiICAICAKRIyBCOHIMpQVBQBAQBMJGQIRw2NBJRUFAEBAEIkdAhHDkGEoLgoAgIAiEjYAI4bChk4qCgCAgCESOgAjhyDGUFgQBQUAQCBsBEcJhQycVBQFBQBCIHAERwpFjKC0IAoKAIBA2AiKEw4ZOKgoCgoAgEDkCIoQjx1BaEAQEAUEgbARECIcNnVQUBAQBQSByBEQIR46htCAICAKCQNgIiBAOGzqpKAgIAoJA5AiIEI4cQ2lBEBAEBIGwERAhHDZ0UlEQEAQEgcgRECEcOYbSgiAgCAgCYSMgQjhs6KSiICAICAKRIyBCOHIMpQVBQBAQBMJGQIRw2NBJRUFAEBAEIkdAhHDkGEoLgoAgIAiEjYAI4bChk4qCgCAgCESOgAjhyDGUFgQBQUAQCBsBEcJhQycVBQFBQBCIHAERwpFjKC0IAoKAIBA2AiKEw4ZOKgoCgoAgEDkCIoQjx1BaEAQEAUEgbARECIcNnVQUBAQBQSByBEQIR46htCAICAKCQNgIiBAOGzqpKAgIAoJA5AiIEI4cQ2lBEBAEBIGwERAhHDZ0UlEQEAQEgcgRECEcOYbSgiAgCAgCYSMgQjhs6KSiICAICAKRIyBCOHIMpQVBQBAQBMJGQIRw2NBJRUFAEBAEIkdAhHDkGEoLgoAgIAiEjcBV4dbs3r07bX3zzXCrSz1BQBCIEgK5cuWiEiVK0I2tWxPeyzx58kSpZWkmFgiELYRvvfVWatKkSSzGmOx9/P7773T0++9py5Yt9NVXXyX7eGQAgoATgXPnztHhw4dp69atdO/06TRr5kzq16+fgJRCEAhbCLds2TKF3GJ0h/nJJ5/QsOHD6YMPPohuw9KaIBAFBCCQBw4aRN8cOULT7703Ci1KE0mNQNhCOKkHFq/t16hRg97avp0GDxlCTz31VLwOM6JxpUuXjipVqkSlSpakNGnS+Nr6/tgx2rt3LzVv1oy2MQZnzpzx66d27dqUPn16euuttwL6x7Xz58/Trl27Aq41b96csmXNGlB+5uxZ+uijj+i3337zu4bld7Vq1ShXzpx+5e+99x4dO35crdB++uknwgezcePGtH/fPlWuU88ePeiLL7/0jemKK66gMmXKUIXy5Slt2rQ+9t//+IPWr1+vV4/r33PmzKHcjNOIESPiepwyOEbA0qhd27bWK2vW6MXyW0Pg33//tfr27WtdlTbtZfXXslUr6+TJk67zvXLVKqta9erqWsNGjQLuG9e3b98eUF64SBGLNTTru6NHrew5cgRc3717t2t/KGQzkFWlalVVJ226dNbcuXOtixcvuvJ37NhR8X366afW0qVL1f9xL/zxsCpUrBjQ7/Hjx61Ro0er8nJXX2198cUXru2yAA+omxLmPV369NYrr77qek9SGHsEGtZvYG3fti2gY/GOCPNTDA3x8ccfp0aNGoXZQvxVK1a0KK18+WU6xhpvk6ZNqWChQpQvf37fX7h2xtmzZ9MFtqvnz5ePxt19t+uNP/nkk359od8aNWvSBdaCp7OdEzR06FAaOXIkPfroo1S5SpUA/g0bNwa0Dc28ALcFe365cuUCrqPgqquuoldfeYXy8fiwsVWseHG/tqtwXymRWFGg3r17q9WEUPwiIOaICOYGS9YXX3iB6tWvTwcPHoygpfio2otfWAik9u3b0/ETJ6IyqLp16xKW/d26daNatWqp5fGy5ctp//79fu3/wUt+2DOdhN+rVq2i7lwfNPD22+n111+nkaNGJWps02fMoE4dO9KbvHHVvEUL2rNnj1/9hIQEKs8miHZ83ynN7BAMCGwqd+zUiXbs2EFFixQJxi7XkwEB0YQjBB32yfXr1lHevHkjbCn5q8MGfODAgZAF8CbWPP9k4Wn/dezQwe8mrrzySlr44IPEJgpavWaN2rk/eeoUPbhgQUg3i9VG9erV6Thr5iC4Yb319tvq//X5w3ea23L+Qci60Q8//KCE71n6GjM6AAAgAElEQVS2Mb+xebOydzsJ7YJsWzZs/Xrbt/AHKqXSCf6gtmnThn7++eeUeguX9bhFE47C9JZk4fXSihXE9lT6888/o9Bi8jSBjbb8vHSH8Pznn3+CDmL8hAmEj5BN48eN86szePBgqlChgjIr9OrZkzJkzKg2y9q3a6c0U7Yh+/G3YvyG3Xmnr6w4mwUgINtfEu7YqCtUsKC6znZkn4aM38OHDaOCl675NXrpx+nTp6kZbwBCCG9mbRpC2aazlzYYC7H5BR+h+fPn03PPPacuY7Xz2tq1xPZVt2ZTTBm0f6x01qxerVY7QvGDgGjCUZqLevXq0ZIlS/y8CaLUdMyaWXPJLjpOE6amAfAGmLK12n+nWeO0qUCBAjR50iR65JFH1Evfq1cvJXjhBXHk22/p/gceoCxZsvg1jY8A2sTfN998Q6VLl6bHHnuMNm3apPhgt+3Tpw/BRvvjjz8qv1j7jzfZTMP0lUMQ40MJzwkI4qyXPDLg6QEtcdasWZQhQwblC263u23btqDtphQG4Dhm7NiUMtxUM075JEZxqrt26aLsjTPZWT4lEnyf582bp4Rnl86daQ+7o/FWru9WcB0CNxTCZhzsvDBBQMBB+NlUsWJF+pg3i6A5Q5u2CRtIzk2kw19/rQIPYJ++//77afKUKQT77Xs7d9JO/oNmbFNNdh0MZbmNpXljdmGDRoyNOBDqDRw4kJYtW0b72J3t448/JvbAUNfgtnY50aJFi6gMf9ywShGKDwRECEd5HqZMnkxHWIt7njfsUiKNZe8FbOJ05g9KXi38FZrrhQsXlJD69ddfA27vEG9OnmFtGF4W8IQYxiYCN8GID9WUqVOpHm/a5WRfXwj3Ay4bmw+wtgzNtDF7oLzzzjv0/vvvU11ecUBg1ud/c+bI4RsDIsa+ZqENgiZ9iH+DYEM+xtGOTjrFtmQEG0HLtoU+TCMQ+gP696dSpUr58UMrDkXT9qsUxz+wsQkPkDY33hjHo0w9Q0sDpzXn7ba/6Sbqc9ttdDPb7YTCQwAaIOyPEBpCgkA8IgBTDDaU69SpE4/DuyzH1KhBAk2ZNpUSGjb0u7/La60VJ1MH7W3VypUq+kpIEIhHBLCSacGrgRnsvoeVgVDyISDmiCTCHvbGbXzK3ID//c+3sZREXUmzgkBYCMCHGGYh2O1hPkrPyoNQ4hHox5aDsRFseIoQTjzmIdeAhwDcm2ADxbkG2NEXEgQEgcsLAQQhRUIihCNBL8S68AbAn5AgIAgIAjoCYhPWEZHfgoAgIAjEEAERwjEEW7oSBAQBQUBHQISwjoj8FgQEAUEghgiIEI4h2NKVICAICAI6AiKEdUTktyAgCAgCMURAhHAMwZauBAFBQBDQERAhrCMivwUBQUAQiCECIoRjCLZ0JQgIAoKAjoAIYR0R+S0ICAKCQAwRECEcQ7ClK0FAEBAEdARECOuIyG9BQBAQBGKIgAjhGIItXQkCgoAgoCMgQlhHRH4LAoKAIBBDBEQIxxBs6UoQEAQEAR0BEcI6IvJbEBAEBIEYIiBCOIZgS1eCgCAgCOgIiBDWEZHfgoAgIAjEEAERwjEEW7oSBAQBQUBHQISwjoj8FgQEAUEghgiIEI4h2NKVICAICAI6AkmW6PPXX3+l/3G6d2QiHTlypN4vrXnlFXppxQpKly4djR8/nvYfOEAvPP88NWjQgAYNGqT43+SU8YsXL6Zq1ap5ppSeN28effTRRzRu3Dj69rvv6OmlS+nuu+9Wfev09ttv04MPPkiDBw+mJk2a6Jdj/nv37t204qWX6PChQ/Tvv/8G9D9lyhS6+uqrVTlSlK9gzN7dsYN+O3/ex5s1WzaqV68ede3ShdKnT+8rtyyLXmT+7du30y8//xzQtl0wY8YMOnLkCD388MNGHvvCqlWrfHNnYs6WPTvVrVuXunfrRmnTpnVlu5vn6q+//qJ5c+e6Xt+1axfh3rtyG507dXLlMRV+/PHHNI6fqYcWLfJhp/POnj2bDn/9teJxYmbznThxgtq1b089e/SgO++801f9EM/Tc/ycHjp4kP7++2+9Wd9zOp3TyHvRddddR2PGjPFiSfZrmzdvpscff9xzHJjfF198ke6ZOJH27d1LK1eu9PH/+eef1IPx69Cxo8JRp3PnztEtt95Kd40erd57myZNnky7ef69CPNXtmxZL5aUc41fVD9q17at9cqaNXpxon+fOXPGuiptWqtz585+dS9evGhNnTbNSpsunVWqVClr586d6jqng7fy5stnZcma1Tr6/feqjAW5VbhIESt9hgzW/v37Xcdw8OBBK2OmTFb1a6+1/vnnH2v+/Pmq31fXrnXlX7Z8ubq+ZMkS1+uxLOQX1UqXPr0aj+nv3XffVUPC/ZctV87Ih/oVKla0WEj4bmHEyJGe/HafLLSspUuXhsTLHwpr5syZIfH26tXLFc7XX3/dV58/xq48W7duVTz33nuv63VTIZ6va2vUUHUbJCRYGK8bVaxUSfG04eedP24BLEe+/VZdv2vMGN+1hQsXWhkyZvS89w0bNlibNm3y5EG7HTp0COgz3gpYAAe9D7x7oISGDRWvkzZu3KjKChYq5Ioxnn9c79q1q1+9xk2aBO33/fffjze4go6nYf0G1vZt2wL4SC9JSiF86tQpq3mLFgpgPIRnz571637WrFnq2uAhQ3zlCxYsUGW33XabPlT1m7+06joefFBKEcIvr1ypxl2gYEElAL85ckR9iPQ/CBXWKJSABf8tt9xisdZv4SMHXvyLB7Jbt27qeuUqVSzUYS3Typwli2r/s88+C2jX2Q9rdKoPzIf9N2jwYNUerxz8yoGxLYRX88daHy/Ggw9H0WLF1Afml19+UfNiEwTe1eXLWzlz5VIfz9KlS1u//fabHw9+hCuE7eclX/78avzPLlsW0DYKyleooK7jr1Xr1taFCxf8+HQhjOcLikOevHktCKevv/464N6BBXC3hfA0VjacmDr/DwUj3umPP/7wG3+//v0VXu+9956vHPcMchPCo0aP9mGMZ9xJwKl48eLqOjDFM2gThDCwNmGHcie/X8Nx/CPZhTBeZryYePHuu+8+Vw0FL0KJEiUUj63R4aUtWbKkqzb85Zdfqhcdk2ZTShHC111/vRq7vRLwenbYXKEeVn1Voddp166d4oNwPH/+vGq/Xv36OltIv4ePGKHa+vzzzwP4bSHMy9WAa3bBTTffrOZMF8LQbNEu5mnM2LHq/xMnTQpoJxwhfPLkSSt3njxqxXDgwAGLzSJqJcXL3oD2IYSrVqtm9ezZU42hZatWfoJYF8JNmzVTfF73bHdiC+H7778/oN+UXADlCBjs2bMn4DbchHCVqlWtYvzO44OIlaqT2KSj2sIc4N8PPvjAd9kWwgGdpPACkxBOMpuw0yDz1FNPEU8g8ZeP3n3nHbr22mtd7TUZM2akCRMmEGthxFoEPfPMM5QhQwZVNpDtxKwpE39RfXVh9+N5oZls03Qjnlha+9prfpf2sA02uQm2MtZOqUqVKlSnTp2gw8F9gAYMGODJe/vtt9O69euJNWNq366dsnlv2bKFbh84kMqULu1XN02aNMTLRLqxdWvKkSOHZ7teF2GLh83ZSSzAVL933XUXZc2a1Xfpu6NH6QG2AZcvX56G8PPAmhatYHviXC7r1bMnlStXzquroNdgY/2Zbd94RmAvHDVqFLHQJzZ/0XzeN9DpyiuvVM8YCHb5G9u0obWvvkpZsmTRWQlzwMoANWvWLOCaVwH2KJ5bvjyAhT+ol49NM+DuiI4dP0572UZ8K9t88+bNS/xBUs9Jw4YNFfcitsUXK1qUHuByXomo5wV2cp2wp/H14cN+xblz5yY865cLxUQIv/HGG8T2WsKDV716dU/s+vTpQwt44wzgj2aDfeXKlalx48aqzgv8wmITDy/YOyzM2bZIndjof/3117u2+cknnxBr3a7XkrMQwgcfjwIFCoQ0DGzIgQoWLOjJb1/n5b3iW8ofPwimtWvXEpsJXOviBeHlJRUvVsz1erBCzMN4/kjqhM2ubA4BjOvDhw0jjG3uAw+oDTv8zeINFjax0LDhw2njhg16MyH/3sGblXg+mjZtSm1ZmIKw4bNs2TJ69NFHqQ8Lg6pVqwa0B0EMoY054X0EYg1eCWIn4dnFhzPU+XLWPfLNNzSZNxh1uoaf68tmY0m/Of69hd95POOYD2was5lICV4IYcwVNk9ns1KFDTl89LZs3arebZ2W8wcMG4ROwsf6chLCMXFRg4dDFxbAc+bMIV72EduGdax9v6+66irCzjI8BSZNmqTKp06dqv7Fy4CdfNCEe+4h8GIH3USYKHgFOP8WP/GEiT1m5dnYmwFf811ffeW6w64PpGSJEqros88/1y/5/YZ2DSpdqpT6N3/+/ErTO8FayUX2RHD+/clCZ82aNfTDDz/QI4884tmu10V4vuhtHz92THmmYI5441RV5w0rem3dOurAHgc33HADDb3jDrXieeutt5R3AjShVatXe3VlvAYvhSFDhyqhvpA/4Mufe061PZI1YeCM5+YO9nCAUHAj1HvhhRfo5ptuUh/3tvyv0/sEgrooa2379u1TwjgxlJCQEIAP8LqpbdvENJPieDGfV1xxBTVu1IgK84oL94tVGtvSlTDOlCkTQeGCd1T9+vWVIsCmq4D7XMcr2b8Yc+cf3pvLiWIihPGle45fjEf5ZcdDXrt2bQW6idqxNoIXFZP22GOPKQ0H7lfQZKAhP8CaFOr379/f6IKEtvHywMTh/GP7k6nbmJXDFMAbk2rJFoqmzrZedS9YWkNouhE+bPh44cN0M+MXjPCCNGMtBe0e+/77YOyJug7tGkIYQu8omyCgZbKnhnrx7uPl57PPPqu0G7b7KjfEQvySYhzQXG0tPjEdwrUOrn7DWNPOlSuXej7QNv5440iV4XlBvyaCIH6eXc+gRfPGIvVg84iTOrGbHFyqplxSCEztSDkpBerNbdvU+4pnAXQHf3RRDjdSrDjYc0Z9IEFN2WyGD+nbLBtSI8XEHGEDC6EJe2B39hlk4ztN4wcaJgcIJZ1msEBpxGYIaDB4QaAN72VNpD1rUrAFZ86cmSa4LF/0duL190TWEtexZoil6o6dO5XGkJ39a3Vqw0IBy9bhvFyH7ZQ3OIg3k5SNF7jhwT4I31X+yEFAwz+aXf9UM9CC2VNCb1L9hna4cdMm9e8111zjyhOsEPW/ZfuvTvD5xscTHz/YvWEPhAY0hf0/YfaAjzb+nMQbgcpPeSYvUTH3NkG7x56CG7XiVRUwuJf5YSq4e+xYwirj80srArvOYbYp8gYQjWVsgKf98uttQiuDzyt7miit3Ulj2L4NH1gIeCylWzRv7mpLb9Gypa8a+Exjh2adWPuyPt54/f3FF1/Q6dOnqW/fvr4hwm+8Zs2axJvGas7u4JWLTTBZgKA9t7nxRl+5CTsw3Mh8WOldFqRvOCali5rd1/fHjqlde+yKslBVrj5uZO/281LTd7l+gwaqHgsvtyopxkUNg4cHiI0D7sntz/YThr8r/Co5MMOVL3uOHBabe/y8TnLkzOnK6+wH/bu5S4XiHeE2XrsM4+SPgMUbU8pLAR4Lbv649iTyhprynsmUObPFGzo+FzWvPnijx+rdu7e6R14tuT4PdiHbrRUff9RVEbwj4E/sRnDNgncH+Nmk4mPBvTRp2tQT01D9hNF+SqNQvSPg/QTseJXjd4u2jz5vgAbcOtzV4LsNCsVP2H4vAhqK4wKTd0QajNn5NWnP9rA+t91GN/MSOBJCNBQ8E2APcvMAgG1tw8aNShMrwV4T+ErqhK/pyy+/rHZY7R1r7DZjA4f9hpU9SSdEWmHpyf7IrptNiHjaxkslbAjYkWh6G7H+zS4/KmIQWOjUkG2KefLk8RXDbob7+9URMZedtT9grO/qv8IbTG5RXWgM2gi0UniqwDShEzY1sfKA90TOnDn9LsM2usvDyyQzmx3QLjQV7JDv5vurWKECVaxYUe/G7ze7w9Eh1lrLc4Qg7hmbNV4EbD748ENlyoA9121FZdeHmQOaO3hh7sKmLkw3tham94Pn9+mnn6bWrHEVKVzY7zK7v9Eevi83bOuyGQ0vFMwsXoQ2bU8BL754ugZPGDynMNnoqzZsvp/mlRgi4z7kOYEnDPic0YhYtWETFO9m0SJF/G4NJqCTbFKDVw/eT/zfi7ASsU0dXnzxdK1RgwSaMm0qsTuf37CSTAjH083LWAQBQUAQSG4ETEI4UAVK7pFK/4KAICAIpCIERAinosmWWxUEBIH4Q0CEcPzNiYxIEBAEUhECIoRT0WTLrQoCgkD8ISBCOP7mREYkCAgCqQiBqAlheLohFJWPoDP+8VF4rgeX23jzGb/EJ38Z6/P5sITD4hNLOECe/U+N7bJ/Ih3nQ7yTm+BGxX6oxnECG6+D1zEHOCjJaw4G8EH7cBUyEZ+Z61kf7jVecwCHexzqbhoDH12pDpA3EVwIcdCTqT77Q6uDYBJLcHdEwIapXT4nWEVjmgguawgUMtVHudsZGqb2Qi1HiG8k70Sw+UBgzzd8vkViiU8wJD4m1YgHnw1OcHM0USjzgUjZxBLeIT7xzjguzBOCh0yEd0iFwHvIsf58kJbXO2Rq21QeFSGMAcF31c3P1dkxfDRxwpfbDeBQD1N0l90G6n/FceNeQkC/UZx+5dafkw/+ojhohY9C1KvH7DfuCZFGoWDIx18GjAv3iHI331UnM6IPveYAGHv52wIrzAEflRkwBkSIQVh50RXcPrJW4KQ1nSCA8XJ69Y/x4R7tczL0Ntx+I6QbbWsu8X6s8JXGvdkn1jkvwqcd98bHw7s17yvLxIIcz3G0CPOJ+/WiYPMR7J3ymg9TvwgR/+mnn0yXVTnGDYEIXp3s+dDLnb8xH/az6sXnvIZnEu+Q1/uOZwvRtqZ3KFI5FupY/fj0AJNwIuY4nl6dHatHyOhtI8IJfPr5sciuwF8ei9MO6VX8fvNZC+oAaGRDCIVw2DnOJsbh0l5kn2OMs02Ti3BPuDfcoxfh0HJgxYEYfmycXkZhywfieFVXcwQ+zJmTVq5apdplzcuzPjvhW7ly57YQzegkftlUNB8O/vYifkHUoe6ly5RRB6DbhPOPcfasKYrN2SYyMSAaEAerh0LVqldXB4i7HR7vrD/6rrvU86JnbeDwW3VviOTzIj44SEWKPfnkk15sIV3jw4zUfCCbhxchCw3OUObgKj82nPmLMZuSITiZ1Xzw4frO+TD1icQMOB+4WfPmJhZfOXjAizpOwtnCmOtg84GsJshkwoIxaF9gAAbAws7MY6oETIEtMHYSonDxbnCwiKmqKrflGKdh8uTTL5oi5qKiCSPfFjQ4nA/gRVj2gA/8TsJvHrA6A8GLfmAtCV9g+2QuL15cg7YFTQBakBexECYOpQ7K59VGpNdwT7g33KMXASNg5YYhsA22tMQcec0BIta86DRrlYja0+cKB/XgyM1gWGPsOMsBZ044tTRoTTAJBauPsaFvaD3QqEMhtInDkjDPXgRMMSbOcuLHhv5wb98HOejIHnswDL3GYF+z34lgbWE+cIay/k5grBizPk9637754EjUYKsY1MWBSPjTnz+9XfwGj83vvA6cMNfBDmtCfax69Plw6wtlwABYABMvAqZe71AwOWZ6h7z69LoWFSHs1YFcEwQEAUFAEDAjIELYjI1cEQQEAUEgyREQIZzkEEsHgoAgIAiYERAhbMZGrggCgoAgkOQIiBBOcoilA0FAEBAEzAhEJbMGHN1B7N5j7slxHRkXnIS0N6q+Vq43huvw87P59ev6b1+7nLHZi+ykk6G269VWuNfQN+4tFAzQhz5Wu16oc2DPmT3eSOcg1Pr2PcKX0+kDm5g5sPvSMTBhDz54hKAPL7Ix1Ns1lettZbz0nAWbQ72e2+9Q8TS9E6HWR99oQ58PtzGhDNnP4cMb7DlT7TLu4EUdJ2Fs8HoIdz5MY0O7kbxDiZVj+jtkGlew8qgI4TmcMddOLolEniZCXql7Of24nrr9fxzFBVcWpEBB+mu4j7gR8s49zmlzTNmV9TpIlTJr5kyVrw7JG02O60i5hKyueR2Hp+ttJfXv5ZwVGIECiNpycyRH/3jAkGYnB0ek6RgiCghZaOFm5DUHyGyMOQDmTho4cKBy7wFWXnNQnzPnIlcg5spJSNY4j9Mv1ahRQ0WW/c555dwI0XAvclJN3IvzwG8cHI8UTVk5HyEO7DdFMGZhR3s8bwgYqcYRcKHQKk5LdIpd/5AfDofMuxEEwjhOf4Rs4Ha2ZpvvCU4Oi4STCNiYxnn+THQnR4xOmjhRpeyKlJCkFi6LweajHs+D23xgfkKdjxUcmYZ3TheWbvdQgpPOsh+0SgiANFtn+b11o9yc1w/jQhIG1HES5uMEB0ZN5efQaz6QrgpzHGpS1GWcQxDBMqtWraJ3DUEzeO6QyxDPkZ6x+T5ORIy0YcDC6x3ibC6ucswNh5DKuEM/CidYAw0gPU3tOnU8U7/Uuu46ix8svUv1Gyl2OKTWs37hIkVUSqDEENqdNm2aZ7tw/OcXzOKvc2Kajjov+zlahQoX9hwrMHJLR4TBAFtg7JUSCHOEuXIjtAvnfq/6RYoWNQZJoD6CPbzqZ86SxUJqGqQQ0glBMxxmqwImvNrg7AxGDPQ28RvzyiG0KsDDq10WCsZ2j3MQDQJMvOpz8lZjfbdxBStT89Gvn2efeCfY79q1KdR/6KGHPOtjPjj5rut8uDbKhQisQYAVh1Mb28Y18IBXp1DnAwFFpmddb9P+DSyAidc8AVNTu3iHrq9d27P+dddfb5RjpnGh3BSsERVNmKOtCKnPV3IqIr45o/BHEkYkfkTGXWRPtglpbTjvFD3x+OPUrWtXoyaMZI5IEooEic5kkKYO8RVuxGcdTOYEk1v5TAOTJoxsv0iPDk3YKyOvqZ9olCM9PFLEbOa0O6bwaXzFL7ADPkc40QbORI1stjZBgx47ZoxKRumWOtzmy5o1K11TuTLNmzePOnXs6Kv/6aefqtXCk4sXKw2HnxnX28IcdOrcWSXMnMpJSm3CmBtystLBgwbRW3y2AwIF3Kggnzcwhev9xUERq/m5sVMrYW7asQaNdFgfcGg7wpfdCCmckEW5Lmvk2ziFEDIpB6N+/fopTXgna0csTF3ZoQnjTAs8n8gUjJRbNnGUIj3O2jDGa8p2DV7cSzlOzQRNH+mzIiGEZXMUJS3mfpEyyGs+uvA705pXkEicaxNCgzEfA1mjDjYfSKL7B4dmr1m92jXVlfM+EGDBkXAqndZ7HFaNDNRuhJXN84wDsom/wZm1ESpsExL+QhMOeT54nnVt2q1PjmAjzvFHr3MaK693CNm/8Q5hdYOVj00v87sziuVAuHLMbUwhlemSOxxNmM0M6ssRLFwTGgz4unfv7tctL6VVOR8ApA/H7zcLa8WHMMtQiAWT4tdDOvW6Z86cUXzQCpKLcE8YA+7Ri5D0FHyc9dePjTMEq3LOi+ZVXc0R+DBnTpo9e7YqHzZ8uGd9rBjAV+maa/z4Nm3apMr5gB/P+mybVXz4c4atIrQVZUgKGowQ2gxeXnoGY1XXs2TNqvhZgHry24ll9aShdjJW/kh61ofmhn7uHjfOky+Ui0jairbuHDbMkx0aPvjsJJk28+bNm1U5EuN6EcLIwYc/XWsFDvpRBAjdBm/JkiW9mlXXwANePdzbTlbLH1rPNpAEGPVZmPvxQdsFPjoBA/ADEy8CpuDT22DlQ5XzQWJe1S3OAq34evTo4cmnX0xSTTgkaS9MgoAgkGIQgIbbp08fwuo1WBhwrG/qdt6/wEl60MaxF5HSKSrmiJQOgoxfEBAE/BGAxwSyY+fjIynjjZCZHaezFeXNwcuBRAhfDrMo9yAIRBkBeErAlhsNd7soD41mzphBQ/jc7CKFC0e76WRpT4RwssAunQoC8Y9A7ty543KQ2KC+XAQwAJaIubh8zGRQgoAgkFoQuGyEMAz1btkeUstEyn2Scmv78MMPBYooIYCAGLh5xhvBTY4PXo+3YYU9nqiYI4YNG6YinK5mH0mv/E3YzUzgPHHDhw/3G3AP9ktdx36vXdj/lF2vjD6RiJ4BDyK6nAQjPfyMEVnzAvsm2tSyRQtq3LgxDeLdVPh6mvyE4dt5B0c7FcifP2wgI614D/sJb2QfRwgSE4ZYhuH+d+3apfylnQRMfzhzhpDDzVQf/JgD+LBizpzUk6MZN2zcSB07dPCsD79K+BffdPPNfvWxS92KoyXhA4q8aPDFdKPiHD01kaPKcN0ZHpw3b14aPHgwFStalDhDBZ0w+PPCT3gsR1K9xH7R2KBxUgceFyKw9vDzkN8xl4hiw6HuO9iv9cD+/W7DUqmNBrGP82988Hurli39eBC59QT7T4PHC9umTZoQu3RRP474i5QwH+v5eQDWwd4J8MDH20n12I8avsOIPuSADaPfdjH2h8Z8wK/b6csLhaY5vz/w9wWeNpUtW5Z68fuK+UZOSES6uhH8t/FMv/3224Q6TsJ8cPYLeo/9wffv2+dWXWGNKM7zLHBba1G4iPZE3kj4k1dmn3ebJkyYQK+tXUtnz541zhPeIeCF2ARg7CS8E/BfRuSp1zzbckx/h1xvJJRC3ZctHD9htIEoGNtPDz50bn/whWVBqHfp+237urrVRRn8CxG5pBMnHVRRVl26dNEvqd9IW2NqE+VIdcK5qVzrxrIQqY1sH0rTeIGRiYCt7W9sqo858ooM7NSpkydW8ONlR3jTEKwZM2Z41se4+MU01l+/fn3Q+qY0WHVuuEFFxXHGjYD28Yxgnk24oNwrDRaiDJGqx6s+J2kN6DfSgs6dO3v2iflwu1+735kzZ3rWx/0gXY9OiCjD/Zp88pctXx60XfCYCPPhFXGHcXEAlWt1vANIe+T2zgILYOI1T8DURHg3KlSs6Fm/fIUKnu+Qqe0k9xPGYa4WhRkAAAKBSURBVCzPPvMMcd4mo+zvwBFR+MKZaC5HcZW6FLvtxoMzIxBxpRO+hoh+qVWrln5J/b6Hv5DQukyaMM6OQKRUclMhvrdll86QcBsLvuLYFTYRsEX8PLQEE0HT9UoeOZ9XDFgZ8IPk2gS0AKeWqTNBI/+bD8sxacKIRPPy7YQ2PZ+fA6+zI6AhuREi2hD1hqg+nfCM4MyDfQbNCxFzI0eM0Kv5fsNf9jk+XwTRdCaKhgast435KMuamdd8uN2v3Y6aDz4sx3iWB7t5YXWqE1YciN5Edms36t6tG53k1e+Phoi5XKxBg8dE9nyYzo7AszyKo3DdaDGvSrDicntngQXOgUHCTjfCO4QVl4nwbuAdCibHvN4hU9um8jSQ2s6L7XlZ04eXMBxlZqoj5YKAICAICAKJRKBRgwSaMm0qcVSpX83LZmMukXgIuyAgCAgCcYGACOG4mAYZhCAgCKRWBEQIp9aZl/sWBASBuEBAhHBcTIMMQhAQBFIrAiKEU+vMy30LAoJAXCAgQjgupkEGIQgIAqkVARHCqXXm5b4FAUEgLhAQIRwX0yCDEAQEgdSKgAjh1Drzct+CgCAQFwiIEI6LaZBBCAKCQGpFQIRwap15uW9BQBCICwRcT9NZv24dHdx/IC4GKIMQBAQBQeByQODnn35yvY0AIdyocRM6evQ7OnX6lGsFKRQEBAFBQBBIPAJNmjXlE/4CT4EMOEUt8U1LDUFAEBAEBIFwERCbcLjIST1BQBAQBKKAgAjhKIAoTQgCgoAgEC4CIoTDRU7qCQKCgCAQBQRECEcBRGlCEBAEBIFwERAhHC5yUk8QEAQEgSggIEI4CiBKE4KAICAIhIvA/wEWQEGAWo8qpgAAAABJRU5ErkJggg==;" vertex="1" parent="1">
          <mxGeometry x="38.80000000000001" y="892.22" width="188" height="115.57" as="geometry" />
        </mxCell>
        <mxCell id="D3aQGoSbThy1BRufcLk6-53" style="edgeStyle=orthogonalEdgeStyle;rounded=0;orthogonalLoop=1;jettySize=auto;html=1;entryX=1;entryY=0.5;entryDx=0;entryDy=0;" edge="1" parent="1" source="D3aQGoSbThy1BRufcLk6-47" target="D3aQGoSbThy1BRufcLk6-38">
          <mxGeometry relative="1" as="geometry">
            <Array as="points">
              <mxPoint x="400" y="1090" />
              <mxPoint x="400" y="950" />
            </Array>
          </mxGeometry>
        </mxCell>
        <mxCell id="D3aQGoSbThy1BRufcLk6-55" value="" style="edgeStyle=orthogonalEdgeStyle;rounded=0;orthogonalLoop=1;jettySize=auto;html=1;" edge="1" parent="1" source="D3aQGoSbThy1BRufcLk6-47" target="D3aQGoSbThy1BRufcLk6-54">
          <mxGeometry relative="1" as="geometry" />
        </mxCell>
        <mxCell id="D3aQGoSbThy1BRufcLk6-47" value="finish ?" style="rhombus;whiteSpace=wrap;html=1;" vertex="1" parent="1">
          <mxGeometry x="275" y="1050" width="80" height="80" as="geometry" />
        </mxCell>
        <mxCell id="D3aQGoSbThy1BRufcLk6-52" style="edgeStyle=orthogonalEdgeStyle;rounded=0;orthogonalLoop=1;jettySize=auto;html=1;entryX=0;entryY=0.5;entryDx=0;entryDy=0;" edge="1" parent="1" source="D3aQGoSbThy1BRufcLk6-51" target="D3aQGoSbThy1BRufcLk6-47">
          <mxGeometry relative="1" as="geometry" />
        </mxCell>
        <mxCell id="D3aQGoSbThy1BRufcLk6-51" value="MCU Parm" style="triangle;whiteSpace=wrap;html=1;" vertex="1" parent="1">
          <mxGeometry x="186.8" y="1065" width="40" height="50" as="geometry" />
        </mxCell>
        <mxCell id="D3aQGoSbThy1BRufcLk6-60" style="edgeStyle=orthogonalEdgeStyle;rounded=0;orthogonalLoop=1;jettySize=auto;html=1;entryX=0.5;entryY=0;entryDx=0;entryDy=0;" edge="1" parent="1" source="D3aQGoSbThy1BRufcLk6-54" target="D3aQGoSbThy1BRufcLk6-59">
          <mxGeometry relative="1" as="geometry" />
        </mxCell>
        <mxCell id="D3aQGoSbThy1BRufcLk6-62" value="" style="edgeStyle=orthogonalEdgeStyle;rounded=0;orthogonalLoop=1;jettySize=auto;html=1;" edge="1" parent="1" source="D3aQGoSbThy1BRufcLk6-54" target="D3aQGoSbThy1BRufcLk6-61">
          <mxGeometry relative="1" as="geometry" />
        </mxCell>
        <mxCell id="D3aQGoSbThy1BRufcLk6-54" value="error ?" style="rhombus;whiteSpace=wrap;html=1;" vertex="1" parent="1">
          <mxGeometry x="275" y="1210" width="80" height="80" as="geometry" />
        </mxCell>
        <mxCell id="D3aQGoSbThy1BRufcLk6-56" value="Yes" style="text;html=1;align=center;verticalAlign=middle;resizable=0;points=[];autosize=1;strokeColor=none;fillColor=none;" vertex="1" parent="1">
          <mxGeometry x="320" y="1148" width="40" height="30" as="geometry" />
        </mxCell>
        <mxCell id="D3aQGoSbThy1BRufcLk6-58" style="edgeStyle=orthogonalEdgeStyle;rounded=0;orthogonalLoop=1;jettySize=auto;html=1;entryX=0;entryY=0.5;entryDx=0;entryDy=0;" edge="1" parent="1" source="D3aQGoSbThy1BRufcLk6-57" target="D3aQGoSbThy1BRufcLk6-54">
          <mxGeometry relative="1" as="geometry" />
        </mxCell>
        <mxCell id="D3aQGoSbThy1BRufcLk6-57" value="MCU Parm" style="triangle;whiteSpace=wrap;html=1;" vertex="1" parent="1">
          <mxGeometry x="186.8" y="1225" width="40" height="50" as="geometry" />
        </mxCell>
        <mxCell id="D3aQGoSbThy1BRufcLk6-64" style="edgeStyle=orthogonalEdgeStyle;rounded=0;orthogonalLoop=1;jettySize=auto;html=1;entryX=0.5;entryY=0;entryDx=0;entryDy=0;" edge="1" parent="1" source="D3aQGoSbThy1BRufcLk6-59" target="D3aQGoSbThy1BRufcLk6-63">
          <mxGeometry relative="1" as="geometry" />
        </mxCell>
        <mxCell id="D3aQGoSbThy1BRufcLk6-59" value="&lt;div&gt;UNPLUG YOUR EV - 74&lt;br&gt;&lt;/div&gt;&lt;div&gt;id, kwh, cost, time, wifi, heat&lt;br&gt;&lt;/div&gt;" style="whiteSpace=wrap;html=1;" vertex="1" parent="1">
          <mxGeometry x="245" y="1350" width="140" height="60" as="geometry" />
        </mxCell>
        <mxCell id="D3aQGoSbThy1BRufcLk6-61" value="&lt;div&gt;ERROR - 75&lt;/div&gt;&lt;div&gt;id, kwh, cost, time, error, wifi, heat&lt;br&gt;&lt;/div&gt;" style="whiteSpace=wrap;html=1;" vertex="1" parent="1">
          <mxGeometry x="415" y="1220" width="120" height="60" as="geometry" />
        </mxCell>
        <mxCell id="D3aQGoSbThy1BRufcLk6-67" style="edgeStyle=orthogonalEdgeStyle;rounded=0;orthogonalLoop=1;jettySize=auto;html=1;entryX=1;entryY=0.5;entryDx=0;entryDy=0;" edge="1" parent="1" source="D3aQGoSbThy1BRufcLk6-63" target="D3aQGoSbThy1BRufcLk6-59">
          <mxGeometry relative="1" as="geometry">
            <Array as="points">
              <mxPoint x="405" y="1510" />
              <mxPoint x="405" y="1380" />
            </Array>
          </mxGeometry>
        </mxCell>
        <mxCell id="D3aQGoSbThy1BRufcLk6-72" value="" style="edgeStyle=orthogonalEdgeStyle;rounded=0;orthogonalLoop=1;jettySize=auto;html=1;" edge="1" parent="1" source="D3aQGoSbThy1BRufcLk6-63" target="D3aQGoSbThy1BRufcLk6-71">
          <mxGeometry relative="1" as="geometry" />
        </mxCell>
        <mxCell id="D3aQGoSbThy1BRufcLk6-63" value="unplug ?" style="rhombus;whiteSpace=wrap;html=1;" vertex="1" parent="1">
          <mxGeometry x="275" y="1470" width="80" height="80" as="geometry" />
        </mxCell>
        <mxCell id="D3aQGoSbThy1BRufcLk6-66" style="edgeStyle=orthogonalEdgeStyle;rounded=0;orthogonalLoop=1;jettySize=auto;html=1;" edge="1" parent="1" source="D3aQGoSbThy1BRufcLk6-65" target="D3aQGoSbThy1BRufcLk6-63">
          <mxGeometry relative="1" as="geometry" />
        </mxCell>
        <mxCell id="D3aQGoSbThy1BRufcLk6-65" value="MCU Parm" style="triangle;whiteSpace=wrap;html=1;" vertex="1" parent="1">
          <mxGeometry x="186.8" y="1485" width="40" height="50" as="geometry" />
        </mxCell>
        <mxCell id="D3aQGoSbThy1BRufcLk6-71" value="LAST CHARGE" style="whiteSpace=wrap;html=1;" vertex="1" parent="1">
          <mxGeometry x="255" y="1640" width="120" height="60" as="geometry" />
        </mxCell>
        <mxCell id="D3aQGoSbThy1BRufcLk6-74" style="edgeStyle=orthogonalEdgeStyle;rounded=0;orthogonalLoop=1;jettySize=auto;html=1;" edge="1" parent="1" source="D3aQGoSbThy1BRufcLk6-73">
          <mxGeometry relative="1" as="geometry">
            <mxPoint x="240" y="1380" as="targetPoint" />
          </mxGeometry>
        </mxCell>
        <mxCell id="D3aQGoSbThy1BRufcLk6-73" value="" style="shape=image;verticalLabelPosition=bottom;labelBackgroundColor=default;verticalAlign=top;aspect=fixed;imageAspect=0;image=data:image/png,iVBORw0KGgoAAAANSUhEUgAAAWEAAADSCAYAAACb1nG4AAAABHNCSVQICAgIfAhkiAAAIABJREFUeF7tXQeYFEXTLlSyknMGARGQJEFyBgGJEiQqSUGQnAwoIggSRIKgJFFRQEQyGMhZDJgQVEQUUUAMgAom5q+3f+a+2dnu2d27vdvbvarn2eduezq+PVtTU10hlcVEQoKAICAICAIRQeCaiIwqgwoCgoAgIAgoBK7T4bBxwwb67NNPdZekTBAQBAQBQSABCDRo2IiqVK0S14OWCW/fto2+OHKUypQtm4ChpKkgIAgIAoKAE4G9e/ZQzpw5AzNhNKrfsCENGzFcEBQEBAFBQBAIEwJ9e/X260l0wn6QSIEgIAgIAkmHgDDhpMNaRhIEBAFBwA8BYcJ+kEiBICAICAJJh4Aw4aTDWkYSBAQBQcAPAWHCfpBIgSAgCAgCSYeAMOGkw1pGEgQEAUHADwFhwn6QSIEgIAgIAkmHgDDhpMNaRhIEBAFBwA8BYcJ+kEiBICAICAJJh4DWbTmU4S9dukTvHTxInx8+TD+f+5n+/vtvypc/PxUtVpRq1qpFGTNmDKU7qSsICAKCQIpCIN5M+NSpUzR3zhxat3YdXfrzTy1oadOmpUaNG9OQ4cOoaNGi2jpSKAgIAoJASkYgXkz4laVLafKTkxTzhaTbpl1bqlKlKuXKnYtSpUpFZ8+cpf379tHu3bsJEdneevNNGjhoEA14YKC6LhTbCPz++++UPn16uvbaa2N7obI6QSAMCISsE5721BR67JGxdOW//2jQkMG0990DNOahhyhDxgz00aFD9MnHH1Oqa1LR8FEjaR9fGzF6FKVOk4aeefppGjZ4CEkM+TDsWjy6OH78OPXp25cKFy5MadOlU3vi/Nx4442q1w4dOlAafoP57bfftKP0v/9+df3YsWPa6z/++COVKFmS2rZrp72Owjn8BuUe3/6OvtG+V69edObMGZ8+MKeHH3mESt18M2W8/nptHz/w+KAePXqoeXp91q5bR0ePHtX2Y88nb7581OKOO+ggq9xMtH37djXOxIkTVZXOnTtr+8ycJQtHz6qq1v/vv/+aupPyFIZAyJLwpk2bKHeePPT8gvmULXt2evThR2g938w65lqzVk0a/eCD1KJFC+rbuw9t2bKFICXdcMMNKQzmyC73vffeo2bNm9P58+cpCzOC6tWrUzpmxE7KxeH1QFeuXFF7qdvPYK6PGTOGzp07R5s3b6bXV62i9nfeaVx8uXLlVFg/J/3HD/djX31FL/Pb1rGvv6YdzOCuueYa+umnn6he/fr05ZdfqrmjbebMmf36TssPF+c8qzLTS506tV89FGTPli2uvACfY9xUqpRfPTxU3n77bTpw4AB9yjG28+XN61fHxsuNWZ06dXzGPn36NH322Wc0dNgwevudd+gNxue660L+CfqNLwXRjUDId8Ca9evUa+Zhvpl6dO1GFy5coLx8YzZu2oRuuaUc/fXXX/T9yZP0Dt+4e/fspfZt29GkKU/Rhs2b6OKFi8KAk/h+gcR19z33KAb8+LhxNHr06ERTE+zatYuWLV9ONWrUoA8++IBGjhhBtzdtStez1KqjRx99lFq3auV3CYy4e/futPL112n//v1Us2ZNGsF9gQF3aN+ennvuOcqUKZNfO10BGF3u3Ll1l1QZJGFQS57HrJkztfXmz59PAwYOpAULFtBjPOdgaeVrr1E2B6NHu2+/+466dOmiHlKQiIcMGRJsd1IvRhEIWR2Bmx964NkzZ9HFixfpgcGDaNuundTprs7q+59//kG16tSmDW9upnHjH1ewzZg2XT3xs2bLGqMwJt9l7WPd/FcsWbbkV+qHWG2UWHpaMPshQ4dSGpZEFy1cqJjL93x4++SkSSGDgzna6gwwXrw9QaouVLAgLVq0KGgGHPLAhgZQ0YC+/OILQ43giwsXKkSvvPKKwmnxCy8E31BqxiwCIUvCNhKTp05Rr50F+YcxoH9/2rZlqw9IN5cuTbOenaOY8b//iP4rUnfQF1cZx+233x7yFEaOGkVvvfWWTzu8nusIUh1e1x9hnW3x4sXpIVZDLV+2jGbMmEFdWEdaNsQsLSdZYgRlyZqVvvnmG2X6WK9ePXXgB5o2bZqSlN1022230cxnnvEpnjBhAm1kNZqTIJ3jbS0YOslvdiDMJRxUhPXypfn3Abwg9SfWgzEcc5U+Eh+BeDPh/KxDw2fiExMUAy7F+rR27e9k/d21bA2xmW2H36MpkybTvPnPJ/4qZAQjAvYPPD5WKVlZf5yPD6acdIHVGu5DO+g6J/ChVMECBWjE8P/PxpIhQwaaNHmyevUeNHgwbeXzAN0cTv3wAx09ciRuCOikj/D3yU89RVmZ6TXiDC82E0zFumGbcuTIQcUcZo+QxNesXUsodxP04G5drs5+HTbveHNw0mk+HATDB0EVEk6CrhsfoZSNQLyZsA1bN9bd4WS9fccO6rXxb9YJ393zHnVYV6xYsZSNbjJYPQ6wQDhc6svWEaEQ1BcPuRrc168fLV682Kd0FEvM0DlDdwqzRDBdJ6HstZUrqVPHjn7Db9q4ke4fMMCvHKqHF198UZ0h4P4C09y5c6c6c4D9+T2s58bHpj/++MMoqQ5kfS4+gQgPk9ubNfOrhgfKDLbugSQeDjr5/ffqQYO90T2YwjGG9BE9CCSYCRcuUpjw+fijj6gr64X/+ecfmj33WWrVunX0oBDDM7311lupUqVKSkqcyQdPg9heO5w/fBzGLV+xghqyxNqubVvFoNs7JEZIqFBVjGZG3ZwZnNsypjlbzrzpeFjjIO7x8ePZ5jx3nAoDTBcmZ/PmzaP72UQO/dlqiXBuXR62+nmTD8xsOvfzz9SPHzrQ39Zi789wEBg91oKHyb0hPhTDMb70kfwQSDATtpd0YP8Bunz5svq6iyWWJnwqLhR5BMBwl/ABUANmkiNGjqRnWF9avkIFSu8yUcvOr/FzZs8OacL2YRxUHtOmTlVtYd/rJphuYVyoLJ5iFYWT8rO6Ax+bwMz/5gf5JD7Qwz0ERx+oJSayXheqgpdefpnWswMQHi5ZHCZqJrvbnjwfMFEd4cGAvm0CY8f4ToLpHiwnGjdpohg0xg2W8ObhHBs2zB+xsPInOznhgeWU5IPtU+rFHgJhY8ItW7dS3nF//PE7denaNfaQiuIV3czODbBzHffYY4qBbWQVgJvw+k8hMuHZXB+HS0PZKsLr4O3RsWPpNZaWZ82aRd2CuDdgSnf27FllCQH1AJgfmOX2bduUnvlVti6AzXkw9A7b45oIZnBOJqyrV59tkzEPSK+wtcZc8GYRDK1bv96vGs5OIAFDohd9sB88KbIgFUsplnvlI9iYPF++/JLy3g1MjHyHKaFbcgRDgPPDr7/+qt5o8GquU1tA9wtJLleuXOov+oGKIZDTAXS2sHCAtIl+0RYWCiZHChzQYSwQ9MFuaRaHaPabl3Nb0B/6xXWoxrwIul7MBbbuUHngu4lQB5YMmIf7UA/lWB+cSHDdXqu7L9063HXke2wjgJT31WtUp159+sQtNGyScGxDF1urc+tlnasLJBmCUdueal79uBEDA3IyLzA9L8JDwWsuYOZeeuFA10NZM+p6OYdAHeO87l6r1zrlmiAg9jFyDwgCgoAgEEEEhAlHEHwZWhAQBAQBYcJyDwgCgoAgEEEERCccQfCT69A40ILjjYmgb3VHYdPVhWed5txXVXXrUXXtUYYDPNjUmgi62EBuvzg8xGGkibAWL/2y3Q4HhTgw1JF9sKm7JmWCgBcCwoS90EmB18D0WrdpQzt27DCuHuZsMBHzypYCxxDYJZsIjBNRybp362aqoiKcwT4XDg4mas5mYzB/Mx30wSKjY6dOWrM8u09EWUMcCZjymQhOKIilbGLCsLJAzIr+HEdFSBAIBQFRR4SCVozXhWkVIq798ssvniu9xCZsiO8L91sdIWjQjx6ME21g1vULe6TZAYbc/SAIPZivl0SONpgzIq3pzNFgwgZGjrl6ESRtmOadOHFCW02thx0tTAwYjSDxAzfTerQdS6EgwAiIJCy3QRwCcDX/jqOXQcpF5hQTwUQN0iWY1gF2M3YGzYF0+wC7Rq9g6fQrZo5GdQSHNn2bI7TBew91nXGFETWtVu3aKngPwkd6MWIwUHgDNmzQgF5mbzon3cXR2w59+CFtYycPL8cImNrBu+1DrruP1+P04HuVI8HBC/AF9jpENhETLtewZA+PPqwHUjMixwkJAsEgIEw4GJRSSB3EgQBBQq1YsaLnqlEXDBZM28mEEawHUi4Yki5gu7NTU93Dn3+upFeMgcwb7uwbzj7g/WfXdU8Y7aELRlJaZLnwol08bzhkIKuHkwnv2bNHrQd/O991l1cXNGXKlLi6woQ9oZKLDgREHSG3gyAgCAgCEURAmHAEwZehBQFBQBAQJiz3gCAgCAgCEURAmHAEwZehBQFBQBAQJiz3gCAgCAgCEURAmHAEwZehBQFBQBAQEzW5B+IQuOWWW5SDRA42C4Pzgong4ou6cGDImzevTzWUL1u+XAV593Lzhccc6hLb4boDwt/I6Y4QDvIWzsFmihtsD1qkSBEVPxh13YT+P2dzNySk9VoP3JZR9/Dhw1SYMyE7qRzmyIS/XuuBHbKzrnsu8l0QMCEgTNiETAosh/MEHDB69uypkmqaCIzPdhV2M+GR7KqMtPNwfAAzNxGYMBwgtm3dSrXZMcNJcB9GdmbY595YvLinxxvSBCHbhZuRo791nFcP3nRDOUnBZkfuOPecYBe8atUqFWAea3MScsyVKVNG9ZOTA9mbnE/gtjxv7lztetzjyXdBwImAqCPkfohDABIuMkMEclu2M0dkcuR4c8KIWAzIp+ZFYLBnWOpGXR1ly5ZNuSRDEvYiJOM0ZayAhIvPuXPnvLqgPzheBlycvdYDqd/EgNE5rqGOaT2eE5CLKRoBkYRT9Pb7Lh6Be7799tug3JY7sfcYpOb97Bnn9JhbuHBhnNtyf5YiTYzrWnZbRtAc2225VcuWcZOB23JNzm6cULdlzPGjQ4doK0vb8XVbhmoFbwZLlixRcTUsQxS1VKyOQB6/cuXLKwk/kHed3HaCgI2AMGG5F+IQsFUQwbgto67ObRmuwggduXfvXnIyVh3MprrJyW3Zdq3G37s4XoYXTeWM05DwUVeYsBdScs2JgKgj5H4QBAQBQSCCCAgTjiD4MrQgIAgIAsKE5R4QBAQBQSCCCAgTjiD4MrQgIAgIAsKE5R4QBAQBQSCCCAgTjiD4MrQgIAgIAmKiJvdAHALwOoPbcvYcOTzdfOHUgbpwTsjjcluGdxkIfwNlW3bWdW5DsaJFlQNGWXYVDpRtGW7Gdl33VmKOcFvOxx5xgdyWURduy4UKFfLppuzV9eBvILdlZ133XOS7IGBCQJiwCZkUWO50W7ZTHelgAOOz3ZbzuZjw6NGjldvyIXaSgJuvieC2jFxsW955h+rWretTrXTp0qocNrfFS5TwdFtuyw4mgdyWhwwdSm+xS7aJsAa4LV/HDiTuDNL3c4ZlPCzgqBHIbXnus89q12MaV8oFASAg6gi5D+IQQC43MKFg3JYRZ8GWZN0Qgqme+uEHd7HPd9tt2c2A7UqVK1cmpKuHJOxFP7FLMoLvIIiPm7JkyUI33XQT/cyuzV4Et2VQBU7SqSPMEW7YJu8/tME11DGtR9evlAkCQCAV3zyWG4oRHPAkX778NGzEcPcl+Z4CEEDMhrNnzxpXimzLiO0QiODWrLm9VDO4LRcqWDBQF2oemI+JEEAI8SG8CIz8zJkzxirItux0vTZVPMEu3V5uy0VcEdhM/Uh5ykWgb6/eVL1GderVp08cCKKOSLn3g3Hl0LG6X8uNlT0uuCOSeVQ1XsrlodIwNnJdyJAhQ3jWI0w2WMilXggIiDoiBLCkqiAgCAgC4UZAmHC4EZX+BAFBQBAIAQFhwiGAJVUFAUFAEAg3AsKEw42o9CcICAKCQAgICBMOASypKggIAoJAuBEQJhxuRKU/QUAQEARCQECYcAhgSVVBQBAQBMKNgDDhcCMq/QkCgoAgEAICwoRDAEuqCgKCgCAQbgSECYcbUelPEBAEBIEQEBAmHAJYUlUQEAQEgXAjILEjwo2o9JcsEdi0aRPt2buX+vTuTcWKFdPO8cCBA7Ru/Xq6u0cPFX1tFIflbNyoETVu3Fhbf8eOHbTitddoGIfKLMEhNxGPeMKECdq6KCzAAYuqV69OCL+ZKlUq+uSTT+jJJ5+kTnfdpcpMNHv2bNq3bx9Nmz6d8nNsZB1hHmtWr6ZJkyaRHbMDkeqwHszzrCaAUSGOhfHU5Ml+3X366adqXmnSpKHpPKYpuNGzHLpzz5491Igx6s24IlDS8uXL6d2DB+nC+fNx/SIEKKLLtWndmhDCFPTdyZM0etQoql27NiFcqI7++usvuueee6hatWo0ZMgQNSfMTUeI6oc9aNeunTG6H9r15sA5f/z+u66LuLIXXniBhg0fTr/9+iuNHz9e9WuiCxcu0IABAyg9xyd5ds4cwjxCJkRRc9PwoUOt6VOnuYvluyAQtQiMGDnSui51amv79u3GNTBTUXU2btxoffPNN+r/DBkzWmvWrtW2seszk1PXt27dqtoE+vTr31/V5xjHqi4zF23/dmG3bt1UvaNHjxrrjX30UVXnww8/VHU4apxVo2ZNz7lUrFTJ2B8zIdW2Tt261uXLl/3qvbZypZU6TRrrlnLlLA6Yb/EDxeKgT57jVala1eIQp6ovZqaqLjNZv77tAo6ep+p06tRJFd3erJln/6iL/dqyZYuxzxw5cwbsgx8m1ty5c1U9jOlF9n01Y8YMr2px1/r07GUtWrDAp66oI0J+bEmDlIAAYhmD8Ldz5860es2aoJf98MMPK8nT+TnNsYZ3skR6880306JFi+ijjz4Kur/4VOzO0vxBlkjr1atHCNb/PUue7jnt2L7d2PXUKVOodatWSgLv1auXT0jS/fv3q7LcuXPThg0blPTXmqXck99/T3fffTftZekY68V4p7gMAfqbNGmiAv3fxVI/cyDjuMFc+JFjVbvX8h2HGV2yZInqG1KsFyEONvAwfZA55r777qMqVaoQM3TasHGjtjt+KBLeBpCEANJwfEnUEfFFTtqlCASaNm1KUFN07dqVli5dSu3atg247nRp01LWrFn96tWoUYMee+wxxYjef/99v1RKfg3iWYC+t23bRhUrVqTNrIZBxpBQ6ZprrqGXX36ZGrKqgaVeFTh/zJgxhJjK7Tt0UOqUVa+/rmJCL1iwQDHgHsz4F/L/bkI4Uqgd6jdooJj67t27g4pH7e7H/g5sbbWGs07XLl1o9RtvKBXMxYsXCXGidQQ88ADxIqx/1syZVLNWLRrG8dUbNWzoF7eapWD6999/aeYzz8RPDXF1AqHvjtfM5ZogEGMIVKpUiZ5gvWDT22+nLvwjh76wMzPR+BJ+tCDoWxOL8NAA9WX9p82AFy5cqM2zV79+fUIWEx1BInydGW1Nfng8yg8PMK4ZzHDOcTaT11gHXbVqVdXMHq9/v366blQZmBqkSzBhSNItWrQw1k3IBawX0rCNs1df8+bNo99d+uFS/KbS8o47VDPgggcLJOxneN14CNnEKiqVMqsbP5zxtpEQEiacEPSkbYpAABIl8tixfpB69uypfuRdWEXhRaxHVYlQncR6Zho3bpxijJCKjx8/7tVFSNecr/h2JpK8jkO86U8/TceOHfPrE2oHExNGZeTfYx05sW6Y7mUmCpo2dapSVdikG89vIC7ImyePKrbTSenqxLcM64eEvYn3CeoG3ZuIu++JfNDnzrjSoX37OCaM+pP5oHM9S9aT+ACzMz+EC3MiWOztSJaCM2XKROgjoSQ64YQiKO2jAoG0rCIAnefTbBMhmzJIly4JEvE6ln6QdQT60FdefdXUjSqHSqAkW1g4P5CmwXgfZ0ZcvHhxz/bOi+lYIgV55cr76aefVB3MrwjnCQR98vHH6i/oCGed/of12/ZnxYoVcdcC/QOdJyRBUPs776TBgwf7NNGNp+sT1iCgokWKEKRs0M+//KKrqsqQPxCENbkJ6qFcLJnbn8ycTxCqE0jcs2fNclfXfoce+fKlSz6fV155xadu9uzZaRy/BcDy46EHH1TXpk2bRkjdhXJ3olvtQAEKRRIOAJBcjg0E7Pxv7733no8U51wdTKtASO30zz//+C0cWaQ3sFTUgl9X+/Crfp06dfzq2AXIfYc6NkGHCubTkHWLYOihUImrDBt6XkjQbsLhIUzF8KApxJIaErYi8elMZkZQoYQjzdSNV836it14o3t4pSeHKRtUFrVYh6rTxX5/6hRNZeYF5tuM3yggqeJ/PKxg5gWp0k3beb0g3QOrZs2alIlzHdoEaf0SM1TocaF/DobAsIOhe++9l15i/Th0482aN1emgpC2+3moX4Lp164jTDgUtKRu1CJwBzPO4SNG0NP8Wg772TvZnhSv69AdnvzuO6XrxQ8Zek4w4S+//FK7Vtj5bmSLADBiMEUT3cjMat7cuabLPuWwlHjppZe0dW9n6RmvwXjtnTBxopKkwQjwag/p7FuW5ubzYdgXX3yhVCWQ4vGBHnsoHyhV5hN+lJdkW1c8CGz6kC0VwkXADLpTrKHSrbeqQ8wC+fOr7qEm+IrVINCrsikbTeJ15LmqlkA96KpvY0zv79+fgBmY8VmW6oEt2mAtXbiem9y2xbDRxsHfwAceoAIFClAD/t9Ev7L0bcIbbfDgch5mglnP4PsGKhm8BYHibROsm5SPwdrVL2InrENFyqIdAdj7Zsue3WgnWrpMGYv1pmqZzNRUPdjf6oglTytL1qyqDusiVRXbTpgdJnRN/MpsO2H0YfrYfaMuO3sY63Xs2NHiQyafMfjgyXO9GDNY+1Y+UFNjP/Tww37rQAFL4xZsZtlpQTvHrNmyWbNmzfJpCztgthRR9sa69ecvUMBiJ5u4NradMD84tXPgA0KL1RIWS8gWM3FtnWDshFky17bte++9ap78UNNeD6ZQZycsKe91TyYpi1kEfmEpaN26dfQx6ychEfGPimBCBQm3Kduy2lYL0LHCEqAeSz+wcdURVBuvLltGE9lLDhmd2RFBmYThoKtChQq6Jj5lqP/O22971sOru21OBbXDrl27lGfeb6y/hikc1B54NYcUqSMcmu1lT8EfeCydxQBULGXLltU19SnDARYOqMqXL6/sZ00Ey4kD775LZ06fVlIwJMp8/MaBOep0u+gH0j3UKTjIvMxecllYzQA9NLzsnFYk8HrEOuCd55TqnXOB5QXwYacNZcXirreMPfr+5jG8CBK6zqwPZm94Y4IXn0594tWnfU2X8l6YcDDISR1BQBAQBMKAgI4JB6eZDsPg0oUgIAgIAoKAPwLChP0xkRJBQBAQBJIMAWHCSQa1DCQICAKCgD8CwoT9MZESQUAQEASSDAGxE04yqGUgQSB+CMCza+H8BXTFuuLXQUt2H67GFg5C0YuAMOHo3TuZeYwisJJdii9f/otatmpJbItM77LJ16sud1p76Qh8Lkw4um8EYcLRvX8y+wgjANtbeLPBPjUQwdUVnmywKTYRsjlMfGKCiu61hsMyrlr7vzjG9/XvRyM52wcIsYDZ8N/UjZRHEQLChKNos2SqyQsBMMpu3burwO8NOCSk2zHAOdsrV67QOxwgHEFmkIbIFM8Wku/KN1bRmJGj6GMOwPPmps1x3aSi/7kde42VvFCS2QRCQJhwIITkuiBwFYG17GkHtQBiTozi/GjIJoEwl89xXNpggsGM4NgVCOpTmwP/rEdf7G2HuBGIu4BYFjaVKFmSXmNGPJjjICBgeK8+vdWlRRxnYdnV6G1QQwjFBgLChGNjH2UVSYDA0SNH6A2WYkFrOd1RY3ZnDpYBow2yQSBgjYrAxi65iEuLIDwIGORkwnbdxo2b0GefTI9bGSK72eE2k2C5MkQSISBMOImAlmGiH4HRrI9FzAbEk0UM3fs4xGF8csUhAtjnzNA5KacKIP7MjBlacApzNuR0GdLTddeaf6Ze17SdSmGyQ8C8u8luqjIhQSCyCLy+ahXN4bTmIAScQQjGhBIyQSDNTn8O5eim3BzyMUf2HByisT6V4SA7GZghIwznlSsW5cyVk9KnS089et7jbibfowwBYcJRtmEy3cgggEMySLDIyQZLiN9++y3BE0GEMASGn8rpgqCSQOxgJ+HwDZmMcVhX6dZKVI/HHjzwAWU5sW7jBuLQmwmeg3QQeQTEYy7yeyAziAIEcCjHsXdViqMvONV5p44dEzTratWq0WeffqpCX25madjWNSeoU2kclQgIE47KbZNJJzUCiHVr50XLli2bSgd/V6dO8ZoGLCreevNNJf2CkJboNMffFUqZCIg6ImXuu6w6RARgmTB0yBAVCN7O2aaSf3Kg81KlSgXd2ynOtYYA8gi0DmsJJLOEhA3GLpQyERAmnDL3XVYdDwR+YGm4n+sADUktd+3cqaTZYAh50OZy7jl8nNS4ceNgmkudGERA1BExuKmypPAjgISTMBlDUtCznOoH+twsnGYdKW/mz58f1ICHOLkmJGD08/XXX6t+OKedyk6clg/p3IQUOlCD/PrLr3Tsq2PxTqnj7le+Jy8ERBJOXvshs0mmCORnL7mff/5ZMU3kZUPK9gfHjKHR/Hn4kUcUM4YlgxctWrxY5V2byFmTCxUsqNyd9zBThsMGJ7X0a5ohYwa6m03QOrVvT7cibx3rkoViDwFhwrG3p7KiREAAadenTZ+u0qpD9YAgPLDZBV26dIkeGzcu6FEHDhxID7BLMkzNoGuGbrj31VTq7k6Q7h4fodhFQJhw7O6trCyMCBQuVIiyZ89OnA6dELcBn0dYAs6QPn28RgHTBgMGwR4YFhNCKRMBYcIpc99l1fFAIDOnYrcJkvCwoUOVPjc+BM87HPSBYBmBKGteQYCgxrhyVfIm+v//A7WJz7ykTdIjIEw46TGXEaMUgfcOHgzbzL8e3q+zAAAgAElEQVTlbBmh0JHPP6c32G26aLGiSg2CaG6169SlZi2ah9KN1E2GCAgTToabIlMSBNwIwEVZ3JTdqMTGdzFRi419lFUIAoJAlCIgTDhKN06mLQgIArGBgDDh2NhHWYUgIAhEKQLChKN042TagoAgEBsICBOOjX2UVQgCgkCUIiBMOEo3TqYtCAgCsYGAMOHY2EdZhSAgCEQpAsKEo3TjZNqCgCAQGwgIE46NfZRVCAKCQJQiIEw4SjdOpi0ICAKxgYAw4djYR1mFICAIRCkCwoSjdONk2oKAIBAbCAgTjo19lFUIAoJAlCIgTDhKN06mLQgIArGBgDDh2NhHWYUgIAhEKQLChKN042TagoAgEBsICBOOjX2UVQgCgkCUIiBMOEo3TqYtCAgCsYGAMOHY2EdZhSAgCEQpAsKEo3TjZNqCgCAQGwgIE46NfZRVCAKCQJQiIEw4SjdOpi0ICAKxgYAw4djYR1mFICAIRCkCwoSjdONk2oKAIBAbCAgTjo19lFUIAoJAlCIgTDhKN06mLQgIArGBwHUJWcakSZPohSVLEtKFtBUEBIFkgECqVKkoT548VLlyZep3331UokSJZDCrlDGFBDHh2267ja67LkFdpAyUr67ywsWL9Omnn9KWLVvor7/+SlFrl8UmfwSOHz9O+/bto+eee46enTOH7rnnnuQ/6RiYYYI4aP369QkfodAQ+Pa776hPnz60Y8eO0BpKbUEgCRD4+++/6V6WhjNefz11aN8+CUZM2UMkiAmnbOjiv/rChQrRhvXrqXWbNrR169b4d5RELTNnzkwZMmSgH3/8MagRURdtvOpnz56dMmXK5Nff+fPn6dKlS5SDr5vozNmzBEaho9SpU1P+/PkJr9c2Ofs89cMPdOXKFZ+muXPnVv39+uuvfl3mz5ePfv7lF7p8+bLftSJFiviMgwqWZdEPPIZpflmyZKGsWbP69HXq1ClVv2CBAn5j2AVeazY2SsAFrKN3795UqGBBqlatWgJ6kqYBEWCw/Wj40KHW9KnT/MqlILwIMHOwKlSsaF2XOnWy/kyePNn6/tSpoOe4fsMG6/Tp01bOXLn82pQoWdJilYwRyGnTplnt27c3XseFevXr+/VbtVo1a8+ePRarefzaPvXUU3F9FixUyK/toUOHrMWLF/uVFyhY0GLGbL26bJnfNewZM2a/sVDADNV6eelS6/obbohrN2jwYOubEye09XEPpEufXnvNLrytenXtHBL73smTN6917Ngxz7nJxeAR6NOzl7VowQKfBiIJB3xMJV4FSIKrV6+mWrVq0ZkzZxJvoCTsueUdd9AdLVooyfGJ8eNp4AMP+Iw+duxYJalCyvrzzz/9ZvbFl1/STz/9RG3btlXXypQtSxOeeIKYidFJVuOAPv/8c592kEjffust+vW332jU6NF05vRpn+tHv/iCit94o09ZMF/44UPp0qWjznfdRS+88AJt377dr9mLL75Ib775pk95ocKF1dqPHDlCU6ZMoQEDBtAzM2YQP5xo/OOPK0nfSSdPnoz7+uyzz6ozAzd99dVX7qIk+X7u3Dlqw3uxe9cughQvFH4EhAmHH9OQeizCP9i1a9ZQg4YNtUwppM4iXDl9+vT09NNP04rXXqPPPvuMHh83jl586SV677334maGH/KXzGhfevllz9lu2LhRXcdhJmjnzp1+zNfuYBAzeqgf6tapQz8YVCahMuGaNWtSl86dqTN/hg8fTjOfeYZuZcuBf/75x2feH338Mb2+apVPGb7g0LpO7drEkj09OGaMYsDt2rXzq2cX2AfcH3/yCdlrN1ZO4gtHjx6l9h060CbekzRp0iTx6LE/nDDhZLDHt956Ky1atIi6du3qp69MBtMLegqjRo6kXLly0cMPPUQ/sjTavVs3mj1rFtVghmbrYRfzOl9//XXaz6fw0NXaBJ3o4cOHadr06fTzzz8HPSYqli9fnvbu3WtkwO7Oli9fTnlYD2wTzLFYJRH3HQxx1syZSvJd9cYbdOLbb2kf9z9o0CCazvMLhrJny0a/sI45L5t9Qee8kh9MoObNmxMeGk7aw31D6rbp/vvvp1YtW8Z9Rz9dunTxaZPUX/AQxFvN/OefT+qhY348YcLJZIvb33knfcmvzY+x9BiNVKxYMRoxYgRNmDiRUl1zDZVlNQKkXagSevbsqR4yIEh5lfihU7duXbqeT99tAuPrySZRNxYvTh07dgwJArzehyKhgWE7X60xdydBfXDzzTcrybdixYrqsA1M6JGHH6YVzMBZP+5Tv2nTpkoKt4n13lSbpWC8xl++aoqYJm1adfn777+nrdu2xdXtw2qZ8xcu+PT3Bd8HW/hw06bff//d53qkvkAlc3OpUjR06NBITSEmxxUmnIy29SGWIE/yj3ThwoXJaFbBTWUGqyHAYPiAS+kPs7EkCILeF4x4DatcbAkXOl23XteuO2zYsOAGdNTaxhIrdLDlypWjT/h1PhDNnj3bp4pT6sybNy89ynrrOWwnC13ziw5nJOiHp7J6ASoKJ+VjC4pKlSqpIvwPBg7d9KZNm1TZRx99RPf27UvLli1T83POsUnjxj594QssZpKr1cyYBx+kYqxfb92qld+8pSB+CAgTjh9uidYKr8Fff/219hAo0QYNouPrM2ZUr+NuAqMpzUwHr9kwucOhWin+bhNMnOCgAiZ5P0uYLfjQrnTp0u5u6Nprr6XevXqpt4FQaf78+XTP3XfTDmbGL7EOGmZoTnr33XeD7hJqAUjWE598UqlLcjnUFgMHDiQ8bJaw5PsWHwTaBAkRHxD04tCdjuS3grffflupWMCQN7JO+MD+/bRu3Tr6w3EgWYjNFaFusKkhnw043xDs8pUrVxJbnMTVi9Q/UCt1796dtvLhYZUqVSI1jdgaV2dcISZqOlSSrowlRuvm0qUjYpKkM3maMGGCMrvSfbp162Z98803FszSdG1RNn78eOu///6zWDesTLd0xK/cFutgrdJlyvj0A3M0jFv2lluM/WMMmFIxM7aYAVvMKHyGCNZErW69eqote4ppx0qbLp318ccfW2ypYLEjgzJRG8LmnO51Z8+Rw2Lp12KLF6tc+fLqOvpm6da6cOGC3/JZ72yhbz70M36q16jhN4573KT8zg8PMV3z28nABToTtVRo5n6sjOBXwnz58tOwEcPdl+R7EiHAtplUm/WMMBESCg8CkLb5YeDX2TWsw8bPQPNT8KsrBf9DAKqbVXzIKhJx8HdF3169qXqN6tSLPWZtkihqweOXpDWL8wEVXvny8Y0uFB4EdAwYPeMVWxhw6BjDI7IWH0De16+fjxli6D2l7BaiE07G+w/d6QcffEAPP/IILV261OgKm4yXIFOLcQTwAMNhLD44jC3IZwA5cuSI8VX7L69q1arKESc+JEw4PqglYRvc0M9zVKvJHDb07XfeoWPsOeU82EnCqchQgoAgYEAgVGcgZzfChA2gJrdiBH3pFKL9bHJbg8xHEBAE/BEQnbA/JlIiCAgCgkCSISBMOMmgloEEAUFAEPBHQJiwPyZSIggIAoJAkiGQ6DphZJGAHaYuYDXMgr7l4Cj4C08jfH7hANoZ2TsLgWBAFzmKFmxl4TIKu0QT2fUQHhJ1v+Nx0QeCh7sJYRbZwUCd5iK4SnKgf//9V3l6XdHYseJw7oYbbvCZJlyA2fA/rgyxCWDO5gxm7mzwG4d51AUtt+vkzJlTea2dOHEiIBw3sttqKLEaAnYoFZItAnA7x280EMGkEr9T3Gfu+wMeoPhNI4edjhClDdec8TzgHeh1v6IfuIgjeUDUk87HI5wec/ny51feTm6C5xBHhlJeQJWrVFHeNxzi0EqfIYOVN1++OM8ieEDdkCmTlSVrVuvs2bPubuK+c5hA1RfHYrU2b96s/oenlI7ef/99dX3EyJG6y0laBk+xYcOHW/CyMnk8cSyJuDmxu6xVpWpVbV14MSEoOrzTbEIwdg6Tqa3vHA+ebPv37w9YD204Tm6SYiSDRQ4BDlwU1D3BjNZie2FVl5lq3IQRZJ9dv5UHKAsafgthIU0Fv+d4HD7X2MU94LhLlizx6y+5F+g85hJdEtY9pRAlqgOf9CPodTcO3zh37lwlBYOQXHDBggWE4NZjOA4rpLv7ON/VMxzPdSaHRUQwGDchXi3itTZp0oTge+8Osu2un1y+I9lnM465wMyPIIm246hb2TSSeymOXAVCnN4ePXqoN4caNWrQTTfdpKRXEFLk7N69mxBgBbF87VgGwzji1S4OqIP4tohsZqISLMngreDee++Nq4L9QZ/AFNKNTRLc24Ri7JVD2nTeE7i3kAy0MQceKlq0aNyCdamqcBF18XaLD36jbVq39gEJv328mb7JsTgQqxnpqZwEi6BMBmkX939MkO7JkZiS8CuvvmplzpLFYmZjMVPxG57zc6nrkAwRQwHEQWFUfZTDH99NjZs0sVKnSWN9+OGH6lK0SMKzZs1ST/uGjRpZfJO6l+XzndUtVu48eVQanI0bN2rrIn2OHXMCEjMI0nGOnDlV/IVQ6fnnn1fzW7Z8eahNpX6MIsAR6NQ9gXgXbtJJwuxopOojNgbeyJz0xx9/KCkZ11AH6alssiVhFtjcw0T1d50knGQHc5D6EEXrbo52hVB/H7z/PnXkaP1ugt4X0boQwWo6R6wCQSeKMt40JQ07CZGqEHwbKWgQ+1VHvGtxsQHwf3Kh1zgyFmghS/7u5I/uOSJcI/TASAuEiGU6QpYORPkCrWSffhDnVFPhJCOVHkc3TylLOQi8ww5G+P3id483MniA2vQyx5uGhDxq1ChV5IyznHIQIkoyJvzEhAlKzQBmuZNTvSNWq4mGcwAhbBxiutoZe4cOGaKU8Hh9QbhEEBjq2EcfVYdE48aN03a3jQNo49DK+eGkidq6SV2IA48CnG/NCwt7Tif4IBGEtDtehOs4nMPBIwiulAiYXr5CBWKJWIVmdH5uYlUHQi268555jSHXBIFgEMBBHWIpN27UiAazEIX7cu68eaopfrtzWOWIrCYIlo/fNhi2jqBig0rC/dHVjcayJNMJN2/WTDHhzZwUcdPmzX66ISd42JAxzBj44IwmcXxXxNgFU4EFBHzVZ7B++EnO4IDcXqyCoAc47YpTP+XsC/Fa3XFwf+KU6fyKHfH9gh4c0i1uSJNVgz1JnC6DLrqyMLgXAYzQn12/QYMGKoj4W4w7LFXcbwLQ8c3gJJSwKImv77t7DvJdEAACWzg4PX6vjZgJIw5K/fr1acWKFTSRBTIOCUqwipjDAfYhRCEfH/gCLCLcb4XIWhLT1jg6BUti6YS/O3nSslN39+vfX5ue3J4PYrVyqhsrQ8aM1vHjxy3ofXGKCmsL6IahO0bs2azZsvlZTUSLTphf0ZQujA8SddvgU4Y08agLHLxo5syZqt6TTz7pVS3uGuLnFi9RwkK8WjeJTtiNiHwPRSfcu08fdS9ythgFnB1z+oknnrBa3HGHOqvAWQeID+JV3TdWr1bfRSecSA9y2ApvZ/UAco4hhU8dzjNmsktNyyqEx/lVGgkgkasLel9YSYzliGLQDTe9/XaVtReqC1gWRCNBgod1Q1+2SIBuG1KDiWDZAIkCOCDhIuwxnYSTZaRff/Sxx9SrXS/OUhEMIV8a9HIxLWkEA4TUCTsCCMUKCRgqNxDehmFlM4ulX9zvuEftLCKwtgCZVBJhn1wy6jDJ1BH2mvHai4ytVTk1ymDW80I/+wKHwWvGG+Qm6I9hmga9EjYL2XzxqgJ1BMyn4IzhVjW4+0jO35FlGQdpnJ2BWDJQa9Q9UDizhTrERLJMmOGxhEpI6YObm6UHtUSYqOGBlYETRC7lAw/bCaV9+/b0CacX0hELHMRvFKqdBAfSISRl8UUAOQTxgB/M959NcNoawJmk2S5eCR/9OQ6xTdAN42zEzYRxv9v3uHsu/LanPdx310vu3xP9YA462QIsAbupD0eW38KKeNghggnZ2Xid9bBp06ZOVd5iyFEGpgs7wilTpiid59Sr19x9Q6qDN5xte+y+joMqXLf1pu7rSfm9f//+KjFmF04eiVisXgSbaeQpg6007H6dNydsifvxTX2IdeS381tCMAQ9dLVq1ehZPgDFW4abWP2jPB2TA07uucn3yCCA3yLuiQxX7fqds4B3Kq7hN/rhoUPqnKaZ616ElQSyW/flxKfuA2kIDLgn4TmK3yeEDHz/j71JdR+vN8fIoBO/USW9Ufxwk1aCgCAgCISMgKQ3ChkyaSAICAKCQOIikOjqiMSdvvQuCAgCgkB0IyBMOLr3T2YvCAgCUY6AMOEo30CZviAgCEQ3AsKEo3v/ZPaCgCAQ5QiE3U4YwZhns8kTbFB11JDdaBEa0UQI9MMxcY0ZhRH8p3u3bqbmxnKYs7A3Gf3E/uw6ys+mcvezDWMg92Fd23CXwRUbLtkmupvDWXqF8fvhxx9VKFDTHsCXHy6kJkJoQezBn5cuaauUKVOGunbpor1mFyLGB+xEdZSDTZmGsI04TBBNtHrNGkKIUh3BBApOOqbwibo2dhmcXd5hJwIdYe8HcJApmAKaCGFYX3zpJdNlan/nnVSpUiXj9fhcCLQfcIhASFgvmscxG9hzTVslO5uDYT/ssKjaSoZCjopIhw8f1l6FGduIESOUS7yJdnAcGWQR11Ew+6FrhzL4FtgBsnR1enTvTnaIWN31QHysEfMwhAQICykfQRclxG25dZs2yv3Q9EFwdoSmNNFj48YZ29p9Ivh4qMR2yAH71YXWDHWchNZHEGy2o/Sca8VKlSy4G5sILqEm/FGOsKB2mFBdH4+MHevZHn0cPHhQ11SV8QMkYHt2NjG254hvceENTeuA23uohDVj7aY+UQ7sTATMgb1Xe+wd9jCcxEGqPMfEfN59913jkHAF9pozrj333HPG9qYL/JAM2C9CWZoomP1o3qKFqbmxHGFbEfLAa83lypf3SX7g7qxV69ae7QPxMXd/9nddKMuw2QnjyQH32wc5EPvGTZuMUlgtjvLFsUjpznbtfEIyQgJGQHe4Mh44cIAusTSmo5LsWYMoanhK4ikbiCABDxg4UEnfiET2CwcI0VFudgRBQHU8QeEgEgmJGGH+JnPAIkhjJukAc4f751SWVKc89ZSPRAwJGE4X2IMNGzfqlqnKateqRSs5jGanTp2oadOmcfUgcWEPYEi/l4Nx47uOSnEwbXjowRkGEpSTRnJYwrIsKSP10o98T+goa5YsxD8S4pjHNI8lZqdE/BJLmZ9yUKGqVavSITb41xGcbSDNP83ehnDVDkYixljLOWhTRw4SvnvPHl23quyOFi1U0Ch4JTolYkjAiDY3ku85BJoxURN2v7UTEsAjMiEE/OHij/Cl+9hJx7QfN5UsqaINwtV/KDs+OWk03ws3syMPZ3Ah3B86ysJu7iW4D465ovYjGIkYb5UIHwBHrKOMjY4gAeP3Diw5C4aP8xTclpctWxbv/dCNhzLcM/AwRUgAr98QnEimTZ9OT/FeOyXikPgYv63CwUTn7Wuan85OGMzSj+IjCfPC1ZMjUMogZrCqXoWKFX3G3bBhgypv1Lix33ycBRxyMe4JFUygco4gpuqXvOkmz35xEcGBUJcjtgWsmxgV2lx9i1i+YoVn9xziU82zT9++PvXGPf64KufQf57tETwb9W6tXNmn3tp161Q5x+XwbI9g3KiHj1MiR6oalCH4fCCyg8/bgfjt+miLPtCXF3Xt2lXVW7x4sVe1uGtYK+o7A4frGgI71AOWTgLWKAf2XoS9Qz3sZUJp3fr1qq8mTZt6dsXxolU9fJyprRAwC2U5c+XybI+LZcqWVXVZEAhYFxXs8ZCey4tub9ZM1WX1kk81O0UXZ27xam49+NBDqj3ekIMhO80Zkkd4EatnVL8s9PlUQ3AhlLMw4dU8LhUY3oxCIZ0kbFbKmVi5oZwnYrjiW2yqF1zroIbwqWQaz6un+LTx6i/Ua4HGD3Q90Him9qZyd3+meqZyd3vnd1MbU7m7r2Dr2e1CrR/qeAntPxhsgp1TfOYSaptg65vqmcrdawz1e6B+TddN5e7xg63nbqf7HjYmrOtcygQBQUAQEAS8ERAm7I2PXBUEBAFBIFERECacqPBK54KAICAIeCMgTNgbH7kqCAgCgkCiIiBMOFHhlc4FAUFAEPBGIGwec3U5VRHsNfEXGY5Np4fI+IAUJ077VEyxXLlyyi6zKUfSh50wbBB1hMDn8FSBbSnsRQMRgsrDDhAeYrABRmJNHWFeGBs2qggeHwkCJu8ePEjFGZ+tnCTRRBU4c3IWtrW1U8LY9ZAQcSYH3YYdcKA9QMBt9x6UL1+e8l7dA3aIITZ90k4Be4B9hh2o0546F6eZgrcY7IjhRQWbSx0hYDcCz6OtO7A39gB2p5d4bBMGCNqPjAvwfENQ+mAI48F2GbiZ+sV8gB3sWoGlk4D1GvbiA/am9qiPvUN2FDe2wczRXce5H4F+E/Xq1VMpqpz7kZMzlsNWuQTbZAfaD8wXv1lTwlz33FAfdsvIzHLy5En3ZfUdWV6wn0gmW5FxcxLaI6lnMPvBjiRUj++3YAj9wqYa/gRe+wR+g7HZJNanW8XH2Aa6Du9/oN8QgtOHY5/DZifMG6i8sGx7StuO0P0XSSXhEaXz+EJ7O+Gfu539HYk99+3bZ8E2MljiHGoWO4h4emGlz5DB2rRpk8W524LtNlHqsdG9VbVatTg7TB0OsBs1eR0CQzbw92wPm+ljx45p54/2s2bN8mwPrzN4LcJm203AD4lLkaBVN3eUpUmb1lr5+usW9sVNnCvP4oellTdfPmN79MG59Dy9/tz94jvWjLWb5oVyYGfyJgTmwN6rPfYOexguwlzs5JqmcfGbMO3H+fPnLXZUCbgf7OKr3Q/TOrD3sPkP5IGIxLMmPL/++uuA+8HOQ8b2prkBfzuhsAkz+CN4/YbsJKWm9l58zDQvlOvshAOLksE8frgOG4nT0qVLVSp7pFg3ETzXDnJMgNT81C7MUqqTIGng6V+jRg2jdxCe6vD+QXyFmuyNEwwh9TZiQ0BawNNXR5CEkbpl1+7d1JLzvUWCMLe1a9cGjAPAjgrK+wvehZA2bPqX08BgD9qyN+JhzvFlIkiR+/ltg5mhSkfjpNWrVytptjrn/oMXo47gocU/bvVmgTRLToI3WmZ+I0JSUpMkDAkEbz3waHLntkMa9BPffkutWrUyeszBo6s+7yUwQLyPYAhxE7BmeMzBW8tEwA4Yol/nmxbeCjAesHcnWXX2hRgO2EOM407dbhrTqxz7UbFiRc/fBKQ+7Ae8xbBvTmJnCPWGCkkeXnU6wn7g96HbD119lGHvMWaL5s3pC064qyN48EESf4M9ZJHOzEmIKwKJFV6b8GY0UTuOxaHbD1N97A34CPbBK/0RYp9gP+GR6EzfZfOxtm3aEGc4Nw2j7m+8teI3VChAWjJjJ/YFHdeOj8ecnWr98fHjdV3GlfGricUM2OJMyz71du7cqSQMeLx4EbzkkPIevtvMdLyqqmuQftKmS2dVrlIlYN2bSpWyIBHzK1bAuolRoUePHgqDjRs3enbPrrqqHidM9Kk3ffp0VT5x4kTP9pA0sQf1GzTwqcevX6p9hw4dPNtDCsqUObOSgpxvNMx0lcQFKSEQVbvtNiURszuwT1W0RR/oy4sQOwJzhQQXDGGtWDPW7kXADv0CSycBa5QDey/C3qEe9jKhxMGGVF/sGuvZFasF1G8CErFzP86cOaOwZPWfZ3tcrF6jhtoPfgj61MVvDNK0m7D3uAd0b0POuvwwUmvYsmWLTxcNGzVS+8EPDnfXPt85madqzwGl/Orp3qQgOaM+vA296OWlS1U9TjbsU40TC6vy8QH4GDNoNf+69ep5DeN3TScJh+1gDvo20MWLFz0ZP67zzJR+zkkXrraz/5o6wZMK+mJIw15POrs96qKNezxd/5gbUsebfPR1bcJZZs8xEAZx9VwYXmRMQPZf09zCsQeQDN2YXmbJGZmbA90DmBfaYv+wj05CW/SBvrzoon2/uTAwtcF4uO8Czc2EoQlz93hx93GQ83K3d34P9Tdh76vdh70fge4n1DftB+KIsAqGmNn6TBX1cQ/g7cuLTGtI6H4gyiALTX5vS8Huk+n+sdvH9zfkhYXpWtiYsGkAKRcEBIHoRQAqCgSWOmc40I7UynDoBvUdDiyjncKmE452IGT+goAg4I/Agvnz6ciRI35nB/41k7Zk7Nix6s0GUf+inYQJR/sOyvwFgUREAGEaQwnVmIhT8ekaB7vPcaD6WCBRR8TCLsoaBAFBIGoRECYctVsnExcEBIFYQCBsTBieaSC33akbJHgTISODXd++jtcL2GUGao86qAu7RmdGBuiHBnI0/amcFcNJyJYBO0D3eO55qbmzvR9sJmEvHAkqwONjTQXy5/ccvqCNtcs+0cYuEIbwCIS3m9u+0d4DZEvwIuR4g2ede5wbrr9e2cYCx0CE/YCNc3b26nIS2qIP9OVFwAreYe654sAGp/luKwisFWsO5A1pwtBek429aW7YO7WHQWBg6sMuj89+OD3mwrEfnBaM2AHLzxIJeObJk0d56XkR9gd23fi9OgntYUcM+3wvMu0HfBFqs1eb2/Y5lN+Qun9c+xQsH4v7Dbl8HbzWYrzmZ8jGBfGxE0Y/8DhD7jDYz8HWTvdB7ibYo+o801AObyvYH+raouyWcuVUdgR43TmJjb9VG/5R+y0Jnj27du3y9MIqXLiw6jfYzAJ+g4ShALnJ2JHAsm1gTRggBxynotHmyIKdKrIGeO1B27Zt1R7o7D+Ziam+vfagfIUKFjIiwOPJTciUARzZHdm4h3ny5lX7Ac9HN8FGGzbjtWrXNraHLTfy2METzE3ICgLc1qxd63MJa8XasHYTrsAM2OnstJGxArgEyr+HvcMehivPXDD7gXxppv2AHS72g92RjetGNhNgrij9CDcAAAOISURBVNsP7BXw+ubECR88jx8/rsZEhhwTnjdkyqQwwxrcxKZgqtzOhKHrA/vBCWO1+8Gp1NS48O50EvwIgD+nNDPOC+2QsQO8RudrAD7GruuevyHk0jTxMfdand8T1U4YXB4K/FPsS86DGpn+Oc52DC+azJzXyk2I7wD7PNiJmugCe+lACivOnnNOysNPVHhfDRo0yK+pHV/AFAsBDX5ne2I8mcOdKddvMh4FkCrg1XfGEHPBbvoDexvBZ12Xrbg5ezDBG8lrD5BxunLlytrcbIjLAdtOk7cc5oA9yM8SH3zn3QTvLrzpAE8TYR9gI+z27kJ97G1J9shjQ3xTc2Wbeo7zDMLzz039+/dX+enq1K7tcwleY1WqVDFm20ZlYAbsgKGbgDUwB/ZehL3DHgaSEL36cF7DfgTzmzDtB2Jd4I3Daz9gAwxbet1+DOK3S+SDdL+dIcYEpNzz7KFmIvyOz7M9sS4rMd42sU+m7Ofo02s/erJVRNmyZYmFOp/h8ZYGPnLa4B1oV8Y+wotQl08vGD6GPJcmPmbCw1QetkSfzgFMrsGocz2/ZgIoL8KrpMkIHK+U+JHrCD9sHWOy68Jxw8TgwYCdLsC6/pOqLJBzCR5gXuvEPBO6BzBaxzx0BPy90pijDRitiZFj/3EfeBHamh6aWLvuIW7353UfwBnH7SDinEcgV2P0DXddE4HZ637YpvrBlnv9JhJ7P7zwhGOT25HDXhNwCJSENSH74TWv5PAb0u2tLtFnopioBbqRdZNzlsVXJxuIMUE37PQTDzSPSF3HzZtQDBPaPtCPJxA2eKAl5KGGhyI+8SGv+wAPgIRgg74T0j4+60Gb+P4m7PESsh9eeOJhHOiB7LXmhOyH17ySw2/Ia93Oa2E7mAt2QKknCAgCgoAg8D8EhAnL3SAICAKCQAQRECYcQfBlaEFAEBAEhAnLPSAICAKCQAQRECYcQfBlaEFAEBAEhAnLPSAICAKCQAQRECYcQfBlaEFAEBAEhAnLPSAICAKCQAQRECYcQfBlaEFAEBAEhAnLPSAICAKCQAQR8HRb9goCE8E5y9CCgCAgCMQMAkYmPHfOHMJHSBAQBAQBQSB8CFSvUd2nM20UNYRpcwfFDt8UpCdBQBAQBFIuAtk50YQzCqCWCadceGTlgoAgIAgkLQJyMJe0eMtogoAgIAj4ICBMWG4IQUAQEAQiiMD/AYguVJWvoY5IAAAAAElFTkSuQmCC;" vertex="1" parent="1">
          <mxGeometry x="10.000000000000004" y="1320" width="201.71" height="120" as="geometry" />
        </mxCell>
        <mxCell id="D3aQGoSbThy1BRufcLk6-76" style="edgeStyle=orthogonalEdgeStyle;rounded=0;orthogonalLoop=1;jettySize=auto;html=1;" edge="1" parent="1" source="D3aQGoSbThy1BRufcLk6-75" target="D3aQGoSbThy1BRufcLk6-61">
          <mxGeometry relative="1" as="geometry" />
        </mxCell>
        <mxCell id="D3aQGoSbThy1BRufcLk6-75" value="" style="shape=image;verticalLabelPosition=bottom;labelBackgroundColor=default;verticalAlign=top;aspect=fixed;imageAspect=0;image=data:image/png,iVBORw0KGgoAAAANSUhEUgAAAWUAAADbCAYAAAC1MoAKAAAABHNCSVQICAgIfAhkiAAAIABJREFUeF7tXQm8TVX7Xg3mmcicTCHKHJWEUEohc6NZpsiUuahUSIgGUZ9KpUjmiEoqGpBSSEWGSGmUxm//n2d99v3vu89a+5xz77nDOfd9f7/zu/esvcZn7fOud631Dqc5ICUkCAgCgoAgkCkQOD1T9EI6IQgIAoKAIKAREKYsL4IgIAgIApkIAWHKmWgypCuCgCAgCAhTlndAEBAEBIFMhIAw5Uw0GdIVQUAQEASEKcs7IAgIAoJAJkJAmHImmgzpiiAgCAgCwpTlHRAEBAFBIBMhcKatLzOmT1cb1m+wPZZ0QUAQEAQEgRQi0L1nD3VdmzbG0lamfODAAVWiRAl11dWtjAUlURAQBAQBQSB6BJ58Yq764fvvrQWtTJklKp93npWbW2uUB4KAICAICAJWBFYsW259xgdyphwIjzwUBAQBQSB9ERCmnL54S2uCgCAgCAQiIEw5EB55KAgIAoJA+iIgTDl98ZbWBAFBQBAIRECYciA88lAQEAQEgfRFQJhy+uItrQkCgoAgEIiAMOVAeOShICAICALpi4Aw5fTFW1oTBAQBQSAQAWHKgfDIQ0FAEBAE0heBQIu+SLry77//qg/ef1+99eabauenO9WPP/6o/jh5UpUqXUqdW768atK0qbr4kkvUmWemuqlIuiN5BAFBQBCIawRSxSlXrVipHpo6Ve3bty8EhK+//lptenuTeuY/C1SxYsXU4DvuUNd3aK/OOOOMkLySIAgIAoKAIPA/BFLElE/+/rsaPmyYWrNqta6lQcOGqu317VS9evXU2cWLq9NOO019d/Soeu/dd9X619fD29x6NfrOO9XyZcvUrDmzVcGCBa34f/rpp+r7AGcdLHjhhRdq5v7BBx9Y6ymOflSqVEllz549Kc++/fvVl3v3Gsucfvrp6txzz1XnnHOO7r+JuPjQUdNff/2lH+fNm1dVrlxZFSpUKFn23bt3q4MHD5qq0DuGChUrqtKlShmfp3Wi4ziK/Tty5IjiLsdLOXPmVJdgV7Nz50517Ngxdemllxp3OHv27FGHDx9WF110kcqVK5exy++88w52S6VVOeBpogPAZw/6YSLORbly5fRc8H8T7f/mG3UAnz///DPkMfudI0cO9fnnn6ujeA+DqHr16noMmzdvtmYrWrSoOg9+YFinjbhD/Pjjj/Xu8JyyZRXfY1PbuXPn1u/lWWedZatK0rM6AviRGmnokCHOtClTjc9uvuEGp8I55ZzmTZo672/Z4vzxxx/Osldfde4cMdJp37ad06l9e2fIoNudRS+84Pz888/O9m3bnOuuaa3LtGjaTOe3UZs2bZwzs2UL/Kxdu9b56KOPAvOwjkKFCzvz5s1LauqBBx4IW6ZipUoOmH2y7oHBOHXq1jWWzZEzp9O5c2cHTC6pzICBA415veOqVbu2s3fvXhsMaZL+4qJFToUKFax9K1++vG63Xbt2Os/x48eN/ejdp49+DuZsfE78iEuVqlWdkydPGvPMmjXL2g8XJ/aH2HuJdUMICCx76PBhXeQGvKfh3qVXli51wLzD5itQsKDzyCOPGMfCxPXr1+s6Jk2apPPwnbC1nT1HDqdt27YOFiZrffIgcRHo2a27M2/uXOsAUyQp58ufX7Vo2VLdP+VBLQ23bHaFQTL8UIFRq/vvm6yPLhYtflndc/dELb1EQiNHjkwm5XrLgLGon376SSfVr19fNW7cOKTK3377TT3//POq/4ABWoKvUaNGUp4O7durcpCK/fQNJOmXFy9WXW+4QX28fbuWoN577z09Vkpkl19+uapZs6bKli2bLvrLL7+oDRs26DLbISURC+8uoHv37qpIkSL+ZtRnn32mVq5cqW659Vb19saNVsk8pGAqEp566ikFZqp3GNdde62qBAnfvyMoWKBAKlr4X9H//ve/6vbBg7UUjkVHTcXx1tixY631toVPWSyEIc8PHzqksIgoMFb1ySef6F3J1q1bVdNmzRQYvZbi69atmzQX3gry5smTrL478P7l8aW5GapWqaLw69Bfa9Wqpa644oqQvvyOneELL7yg7hg6VL9LfOcipYEDByruQFw6ceKEehP3L8tXrNCSNSV0SuJCgkASAjZ2HSQpu2WemjffqVjuXKfSueW1ZLwOEuyhQ4ccMDcH58nO2FGjnfMqVNQS8vix42xNJUt3JeVff/01ML8rKd85apQ136pVq7S0MuGuu3QeV1KmpG0j/PB0mbfeektnqVe/vv7ulbi9ZcGskySyMWPH6keupLxr1y5bM06HDh10vTh7t+aJ1QMsHs5ZRYs6ufPkcTZt2hS22tRIynMhAXBc/fr3d0qXKeNgATeO0ZWUl2KHZaNx48frulavXq2zXNa4sf4+c+ZMW5Fk6a6k7N3FmAq6kvLAQYNMj3Ua3we2PWz4cGMem6T8ww8/hOT/+++/nT59++r6sICFPJeExEYgnKRsPrCLcNH66KMP9XnqgueeVRMm3q3PWydOuEvdjc8WSAC3Deivlq5Yrs8Hd3y8PcJa/z8bjjkUmHOyDyWNSOkCnD2T2K9IiefVpIOQ1HhuuW3bNi2VUeo1Ec+ssa3VUv2r2BlESm470fQt0rr9+d586y29s+jRo4c+M46GcPykz5+9H2rXmAjHHQqMVPE8f/J996l7771XS7WUVFNCLkZY6NV3332ndy21a9dWlD5JlGB5luv/cJfkJ9O7ZMrnL+d+v+CCC/S/B6N4l2x18V5hGnYQ+bHjXPrKK7Zskp5FEUjR8YWL1YxZs9Q///yjdu/ara6+8kp15NsjSTC++cYb6ql589TDM2eqtRvWKwfb2mjpVmzvFy9ZkqwYo6HwmCES4o+YdC4WhUjJW8b9AXLLGkQ8suDljUkLxVbuPSxaPD4wHaPYyqQ03R0Ht/vRUt++ffXxTCQ0eswYfUm7YMECzXBuuvFG9fTTT+utOo9rrr766kiqScrzLo6DSFzUyZghP+kjC5dGjR6t5syZE1JnixYt1Eq06aX+/furBc88kyyNfQyKAOHN7L4XsZovHqecf/75+viCvyFRGQ2ZxiybkCqmzJtxSojUqjh65Ki68eabVacundUZp5+h1qxepeY8Mlstfvll1aw5zukst+hByHfr1k01atQoWRaeLfqJUtxMLBBeOvLtt5qZkGHefMst/iKK2gErV61KSudZKLUO1qxZo88MGzRooG/QSZH8cLFNVQXwI/cTmdE7p5gLn/EHSK0RHCOo69u1U2WgoZDWxDsAUiTj8PelS9eu+qzVS7gcUx9++GGyNI6J59bcVbS//npFlUjSAJzpv/3222oIpOWm0Fk3aWu8Dz13HGMk1ce5wNGPwvGTooTKs3x3wTsOnF3q1LGjqgHtCZd47j94yJCk795/umIclLK9ZNKmoLQ/ddq0ZPmoRbEY7xLfvR6WHZOx0TCJXMDInIUhhwEqiz1OFVN2sRo2Yri+HCt3bjkdbPXEid9Uf2wxO3bqrPLlz5diSFvigo2fcMSXe8qUKSHZqJr0MhaFsmXKhDwjUzGVoZT1NJgLpdiqVavqizoyb7ZhU2MiI+fC0LFDh5B23sClzowZM0LSu3bpYpTyQjLGIOFSHFlwPAtx8cmtfzRM4NrWrRU/Xvryq6+SMWUyUTJDtjHj4YfV7Nmz1fARI5KVIZOegi37+HHjQkbECy/TXPAC91lIt7ychCaGKlWypFr3+uvqWyy43DFdfPHF+uMSj7ZsTLkZLgj5CUc8rjH1pSTae+mll1RFqDPGgigU8CI0kvc7Fu1JHfGDQKrOlN1hUlomQ169cpXqjXNLXPqpeXOfVMVLFLfeescSIuqa/g3dYfdzCDqwPE7gufBOaDqY6Pbbb09W5vV16/Qt+XZoXfD8kkTmNRQSHqXga8CYKNFR0nWJ2hfP41a+G6QnnRe3836aisXC27dnwGS4w3gfkuVPYADpQdz+U6rk2Dp16qT1lHkUECvCJajGpnfv3lqyJaNcs3p10mfF8uV6QSOz+woM3U+9evVKhtE72EVQgiSz5rEFiQx/+PDhikzz6muuUTzawIWZv6pUf6euune+uOOqAg2Nb7Ho8n4htcSFg7sC7kA4phEYk5Ag4EUgJpKyWyENDkz/pwTykgHGFS9DYrFJrWyLFoRkBI2x7eXlFl9+SqZBRKnsueeeUx3BvKgCB00SVa1aNc1oqcL2LJ5dcsoogQYAJDIISolUkXvs0UdDtsem9jqDKf6Eyync9Gv1K9zaK0phaU28jPwGl1TLgAs/HIN/+14KmG+D2lk0xO3++AkTVOHChdUEXPKRTCpjkyZOVLf166fH7T/v9bfH8guB9/VQXbyqVSvN3Hn00A/lP8GREhcBzi2FAa+qm22hofqfjbhInhfwnDslaH+oxpddpvvOBZWLSKR0Hhg63z+XuJBTXZDSPy/7/MdzkdYr+RIXgZgy5Y6dO8HS65A68dsJBZWoFKFGndU6deoEls2XL59mKvyhcktrIm53qSfNfnA7XQ1HEdQKYBle8JiI2/RHcDY998knFS+teIzBM2melZJZU1f1K2zDvRZ9PG/t1bOntvhyiefEbAcGFKZmFC/PeBzCC7BRsHR84oknQhiksWAqEgtAB3k9tv48wuCCxV2E36KP+JCgyqalQ5tJfElgzucwgtALWVkcE/FYxKST7XaZ2iuvvfaaXhiob1wUCycxsulGtwIzJi5cTMj0ORdciLn48cx64cKFau+XXxot+twjhvLQZw/3LuXHu8QdEvtiO9+n9eVyYNYLO4H56Ad13nnn4CW+U2yLCxuJln3+M2ym871l+Z4QFlyNjmQVyZcsj8Bp1Ag0oTAM2/aSJUupO4aFbslN+SVNEBAEBAFBIDwCvbr3UA0vbqi6Q5gzUUzOlE0VS5ogIAgIAoJA9AgIU44eMykhCAgCgkCaISBMOc2glYoFAUFAEIgeAWHK0WMmJQQBQUAQSDMEYqp9kWa9jLJi3l3SGuwkfGeYiCpKV+N23+u9y5Rvx44das8XX5ge6bSa8JMRK2MCayMZ9IDGHh8FqMdVgHaB39LP31VqqayARSPVBk1ElbbW0Dn2qoyZ8lEn+TD0hW10CfSiaUwSRPTfvGXLFmsWGhiZVPm8BaitQo0Zr6669zl11Tkem9aKtXF5IAh4EbD5Y4rES5ytbEanjx03TnvgCvpcB7/NQQRjCCd/gQKBdRQvUcKBMURQNXH5jH5+y5QtGzj2PHnzOhs3bgwcX5BPYXduYH4dWAd8nzj0Pxw0l/TbDIdL1npgDBToR5p158qd24FlprUOPujZq1dgP1gP8wgJAkEIhPMSl1CSMoBQ8+fPV1fC+OMVeN9y9YlNyzB9IdAIgf56/RIz/d3SR0OTJk204YiNGsGYhBIlvY15/TXb8sdDOq396GfiGkh8r0Ov2UbcIRAjuEFVNE33Ei3t6IiIVmtbYQXHeTERJUv6doa7T9UT6kF+iZnOqCiRM8IJzdhtBDeoaj38WlN32G+Iw7HQ4ASLsNY1thF1renXmJL9NT7HSZSQ+a7QDzf9eNgkfxqWMA/1q2m0JBKzDW1JD0TAxtHjUVJ+7LHHtCRDX77h6PHHH9d5YWWWLCvCHGkJuUTJkg59JQdRNHmD6slMzygh582Xz+gD2d9PMDKHErPfJzR9DhPbhx56yF8k5Dt8ZBjz4qhBS8gXNWgQUsafwF0NI53Uv+gi/yOnarVqWgqGs6mQZ/6Eauefr/PCEVWyR3dPnKj7OBF/wxHzMC/LCAkCJgTCScqZ4qKP/gDodze1dORUPLajAVKV24YtL81g6aeXJuO2s0O3Dvp6jjRvaseWXuXp7Ie+h+mjOBzRHwQ9s9HU2ksu/i7GQfXY8n4H/CmR0vdEOKKvEkqzpryUsCm5h4v7yDZseV0pPZLxuHmCJPtw45HnWRuBDGfKZMZ14a+4IS5rgo4bsvY0yegFAUEgqyCQ4UwZW1ztwpC+jBHmJ6vgLuMUBAQBQcCIQIYyZUQd1j52eUFCj2X3IoQQ04QEAUFAEMiqCGQoUx49apR2vbgLEa55Hsgo1fSaJiQICAKCQFZFIMOYMhX56SD+cvgxpmNxhtqhS0amIXJwVp0PGbcgIAhkcQQyhClDTUTHbOPfHzw3979Am4E0iFFB0iCqRBafaxm+ICAIxAECGWI8wmgPDLRJOgjzV5cYxolEgw3oEeugm9EQndRDV1l1RpQRBiwNMrNu0by5ehQO02ng4KVzzjlHMQrJ2XDC/gVMrL/AJaSNqsLRO/MWg9GBKSCorVxmTr/5ppu0aTlNoIOiWNOo4ybkpbFJZV/kDoaceg1GJTTCWAIjHpuxBe8ROiB4APO2hXGHl+pDI4eBA9q2basYSTroroGRQ+h0/7rrrguBln1kPDxGRgkaD+M5Mi8D2vqdz9MghIFT26EvDOVkU5WkMQzzMC4kywgJAilCwKTczLS0Mh6Bbq9DowPXbLZgoUJJXWjarFlSeuEiRRwaZ0RLCNHkjBs/Pqketx3/3zYws2ZeE0Fv2gEjCGtmTQMTGhpAqjdVE5dp0Pd1wGiTzZEfO36ngQksHx1YMxrHSWy7dOkSdh7uGDrUOg+sA0xdG4aY+uCm0UAEEU2M/cCCoE3hK1SsGFiHa2YNPXVjPewLIo8E1sH+MI/tvTJWLIlZDoFwxiPpLilPvv/+ZM5laKIMvwU67NIBhApyiUYcDAM0Fyar0RClFErBS2CiG6T3TGmaeWlu7TezphTPNIa2/xyXkDZilGiGn8dbpRi8NRGI6ok0HWdsvA0wXbYRL2V5SUtnQc2Bt5d49LRo0SLVqXNn7dSI+JjIdeDDvG4sRW++1xG/8FwEfa0HqZk426hdu3Y6ujbNmv1m1vu/+UYHz70W5twr4EzIRmXgkIhm1m9t3Gg0s37xxRfV9WgH/j6skj+1iJiHeRn+SsysbWhLeiACtmUqLSRlSiyUsPxSzyeffOJQovE/y5Y9u7N582ZbF0PSXdPp/gMGhDzzJ8A/ge6H3yQ7GtNp5i1QsGBEJtn+9jPr92jNrE0m2a7p9PTp08MOc8TIkXoe/Hld0+lIzKyxiMbUzNpvku2aTk+aNCnseJiH44nEJDtsZZIhIREIJymn60XfiBEjtAmvnz7ftUtRovE/w4zoCML+AJ/+8u53mv2STOa2/jK2vNGaWdNEPBKTbH/7mfV7tGbWnDO/mbWLv4tx0FhteY8GmE7766MUHUsza29UdrbljiOS8UST1z8O+S4IEIF0Y8r0vMZLEhP16dNHNcFRgYm2wcsYo0kLCQKCgCCQFRBIF6ZMKQYXOlY87588WT355JM6/LqJxowdG5FDGVNZSRMEBAFBIJ4QSBemTH+5ODc24kIfutfDaIS+i3nRYiJuj+EK0fRI0gQBQUAQSCgE0oUpT502zQoaz40bXXaZugz6vvv377fmI2OPxJ2ktQJ5IAgIAoJAHCCQLipx48eP1wYA4Sgoekc5GHVQbU5IEBAEBIFERiBdmDKtxPgREgQEAUFAEAhGIF2YcnAXYveUZr00nabRQjgz6yuaNVNz5szRJtleYqy2Ro0aaTPrPXv2qL1ffmntIM17L8PRC82s/QYo1kKZ/MGNiFlIM2sadgSZJZeHEynm3Q2M/GbWHWFmvea111Srq64KNLOmKXd7xNdj3jY+E+l6devqemF5qQ1UgqJZV65USZtk00DET4zByPKFChUKHA+jWTMvTbL9ZtY0CKGhEfsYzsyaeV566SVtRCIkCKQIAZt2dloYj9jaimU6oxpHYmbNaNa2CMg0HcYPOUuaWcOvg7Nr166IolnTzJpm8yYitpGaWdvmgemRmllDz93UDW2U9OWXX0YczdpmIs2+RGpmbRuPsYOSmOUQCGc8klCSMlelAgUKqNaIxBzWzBrSNPOaiObDlJbCmVlfghBWlNAoVSYK0TSYkaqvgpT7xhtvWIdFM+uaNWtql6smIraRmFnTEZFtHpjeAJGsw5lZ02kRJV0TUbuHrmFbQ4rm7slGpUuXVnXq1FH58+c3ZmFf6GQonJk189jGY6xYEgUBHwKncZkyoTIMrjVLliyl7hhm1y82lZM0QUAQEAQEATsCvbr3QEzShqp7z57GTOmiEmdsWRIFAUFAEBAEQhAQphwCiSQIAoKAIJBxCAhTzjjspWVBQBAQBEIQEKYcAokkCAKCgCCQcQgIU8447KVlQUAQEARCEBCmHAKJJAgCgoAgkHEICFPOOOylZUFAEBAEQhAQphwCiSQIAoKAIJBxCAhTzjjspWVBQBAQBEIQEKYcAokkCAKCgCCQcQgIU8447KVlQUAQEARCEBCmHAKJJAgCgoAgkHEICFPOOOyl5XRGYMaMGeqiBg3URx99ZG35JfhNZh76Vf77779Vvfr11YS77rLmf/a551RleAp8//33dZ63335bFTv7bOunbr16auCgQUmBgOmJj/kffvhhaxt80KdvX51v79691nz33XefzuONhwmXpmrQ7berGvB6aOrX5YiNaaIdO3aosoj2Uxre92x4MSAy42uy3unTp+tqmPcmBLSoBF/Y3vaq16ih+g8YoL7++uuk5j7//HOdp1///qYu6LSTJ0/qPD169NDfO8D/tmkcTGNfmzRtqh577DFl8bOm6/D3zVTfiRMndIg6PnsN/r6DiHNSslQpOBm6WL8zqaXE8TmZWiSkfMIjcPDQIbV161YFH9DWsR777judB36V1b59+9T27dv15/fff1dTHnwwpNwvyEdGQ+ZB4o+SsSRLlSypzi5ePFl+MjHW+fHHH+s2Nr71VlJ+t3xIA6cSfgeTYL2sw0Z//PmnzgOf2DrLBx98oFoh8AP8OysGFGDQAP71UmkwExPRde1DDz2kHf+3gWtUBgooA/emXho6bJhatny5dmk6ePBg9dzChaonPJ+x/Xz58qny5csruoL966+/1BcInLB79271/PPPq1eXLtWBJDgW9vcksLURmSvzkEmSfjuFQ61atRTdsnqJGG7ZskVt2rRJ4zpw4EBjtcTjjz/+0P2zEd3x3nvPParZFVeo2zG2j/EO5MiRw5idOBw7dkw9iTii2bJlM+aJJlGYcjRoSd4shYArbfHHT0kWDvPV1ClTQpiBCZS+kGzvvPPOkEd/gnHeeOONOoJJkL/qkIJRJpARdgVDJQMaP26cGjlyZAhDDldle0jBXyCyzPgJExR9Vr8Jqd71nz1v3jw1e/Zsdckll6j58+erAwcPKo6ZTInPusBfuZdpkklSmh6LvlCSppScGnoPiwQZvp+4M2jYsKGafP/9VqbMMvSD/iEWrSDiwsEFZxEiyXCsd8CdsZ/oo3vVqlU6Kk2rVq38j1P0XY4vUgSbFMpKCPTp00fVrl1bzZw5U2/Bg7bG4XChtNW9e3edjZJjWtGGDRu0VE7GOg6M0C8hR9ruqFGjtPRL6Z5MntLt2rVr1QBIoeXKlVOLXnxRh0J77tlntfQ5dswY1RUh1vxSLJn1iBEjNEM+dPiwWr1mTaRdiCrfOQjnxlBvlFz5SS1NmzZNBz645957Q0KSceEbjjHlypVLTcFiHSsSSTlWSEo9CYsA4/utWb1aXYloLHOxRSVTngPJyc94IgXAPRf2H29EWj6SfDt37tTZGHHFJZ7LkiH6qXfv3qodJGEbzcAugccPq4EBF5QVkA7JqFbhbzHEsiR9+umn+u91vliL/jr5fMGCBTo/YyumBR3FEdTpp59ujYrjbZPHM8dxPOKlxoi76e5yiuMIajQWpjvxGTN6tHrqqaeSsnL3RFwm3n23XqBiRcKUY4Wk1JNQCPgZLhnzCpyftmjZUj355JN6rGTMQXTkyBG1YsWKZFm4vZ41a5YqUqSIanL55dZLNFu9PEKxkfuMfXf7bzsHZR3fgXnxUvBKjCmIKGVTIm4EZrUQZ8KUeldiXJU8TJVMkBROIs9+6syVp8FuHyMdk7+PiL2oz/5doqS+7vXX9bFQS4yJEmw4orTLj5fcM3k37XZclPJCl2fmXNguvfRSxbl9AHcMDIs2ZMiQcM1E9VyYclRwSeZ4RoCxF0lHjh61DuNb/NhIptiDRRG1fC1u4l3GTIm5RvXq1rooEd/Wr1/I85IlSuhzWDLmSCnfqdiBh3BZWbVqVWOxgwcO6HTGCDz//PP1/2RQbmRtnvV6CUFpVSdEHo+EChcurGZCe4W7BUrWTXxaG972GBPRRhtOxX2kNkbSmAzSu1ue4yXlN8TTvGPoUH2e6ydeAj7++OP+ZON3Rh4PR7z049h56TcE58qb33tPn9H/8ssv6tlnnol5JHthyuFmRJ4nDAIu41iGS7bOBmbESzhu0Sn1kfEdP348ZOxkzK/hPJSMmUzOFrCVBatUqaK1DVyiZFgOambsB89ho6E6ONOeiwLcPjOgrz9Y7zdgyK/hrPess85S51CVDZoS/EupngzUZczRtOnPmzt3bp3kLm7e5zxv5rkrIsmrCy+8UAeh9ROPPXhhxkWJ0jkx4PHH5s2btcReA4zaS1z05p7alXD8fhoxfLg+o3Zpzpw5WiXx2tatdRuxJF76dYQ63ouLFqm+t92mnn/hBcWgvwwwHGsSphxrRKW+TIsAo5zz7I+6yF9BjY3nqCWguvZfqqrt368WYnv61VdfqZugHUHmZmLKHBwZyTowwOYtWij37NY0aNbBi7ZIaPGSJdaLvzG4POsMbQZul6kJsAU60dyeF4cO7Uls2ffjQo+qady+UzuEiwo/T0EavxpjZlmquFVClHLvsQxVBGNFXJwewqUYLwB5zFG3bl2tFkgic92LowZeFvI4hQuFe7QwChoqlD7rI2p5KzC4CuhjAewKvsMlHaV8amlwcenatWtIV6n54aUWzZtrafbuiRP1+EfjDNhG3+AY6dZbb7U91rrO/oVz6tSp+oLy6aefVlygHozh5V6yjgAwIw0dMsSZNmWq8ZkkCgLxigCOFBwYGDhnZssW8smdJ4/Tq3dvBzoTtj7XAAAgAElEQVSxenjQjtB5IP0Zh4tzRQdGGToPdIJ1nvXr1+vvkydPNpbxJ8IwIaQf/r5B+tPFIA07YLAO++nPg7NNB4zEX72zbds256pWrZwcOXOGlHHrgKpaSDlTAnSVdR2jx4wxPdZpOEN3YHAT0hbbx+7C+fDDD0PKPvHEEw6YcUiZXLlzOx07dnSwYCaVwfGJzodz35B6mHD06FGnStWqOg+MaYx5zipaNKQtP544mjCWxeWeLgsGbXweSWLPbt2deXPnWrOexiem5WIYVq+SJUupO4YNNT2WNEEgrhHghRut1n7EEcUZODM8G9Ivt9y80HOJBiPv4fyQZ6Q2QwMaNrwNYwVK4ZRCacDASyDWU7BgwbAYUbqltkAQUSL2XtixDG/92TalueLYqgcdo7Butx3uCvzE82KeQ4cj1vHtt9/qvCwTRL/99luSStrp0Ccmvn7J01+eus7f4nyZ7RA/XiT6y7B9Pg86t+bln7vL4c7If2nLHUKQEQ77RTz95ZhOdknNkeq4SzA994/J9L1X9x6w/muoukPV0ETClE2oSJogIAgIAmmEQDimLMYjaQS8VCsICAKCQEoQEKacEtSkjCAgCAgCaYSAMOU0AlaqFQQEAUEgJQgIU04JalJGEBAEBIE0QkD0lNMIWKlWEEgNAjQ9dk2XWc8H73+gRsH5zb8GM+uevXupG6BbLZQYCIiknBjzKKNIIASodjUS1mq39e6jdny8Q49s376vtde3f+GruGzZMvqTBwYMB6Dat33btgQavQxFmLK8A4JAKhE4DN1ZRvDIBsc94T61oQsdzmXnz/CB/MmOT7TVYC94ZfM67LkWpr3/gZtMfkaMCvXXnMqhSPFMgIAcX2SCSZAuxC8Cn332mWoDRkmfw9NghhtkUEDmugq+NRhmiF7XGuOviQrCcGLp8mVqJlxDzoNJ8jSY85Y75eTn6NEj6lP4iSDRS5pQ4iEgTDnx5lRGlIYITJw0SdHxDf1fTEe4JDrioSP0G/E3EqJPCIZVop9jejKjtzhaDTJ00WTE2HOJlmwj4Bfi9NPPUOvgma5nn9760SuLl+iPUOIiIEw5cedWRpYGCNRH4NNHYU5NRznXQUKm45pIGbLbnW7dumlzXf4l0YS6WrVqxt5WrVZVLUNMO6Gsg4Aw5awz1zLSGCBw5ZVX6ojKjz76qKLfXvpqSGkoILqqZFBWOk2/weAFjd09D8FOS5YupfLlzWftPaOACCUOAsKUE2cuZSTpgMBgRJkgQybRDzA/qSXGvGNYomfgMN3vJzlvvvwqV85cqnnLFqpZ8ytUKUSf3vvFXkRr/ktd3rQZHAMVUi2xUAglDgKifZE4cykjSWMEGLn4zTffVA8+8IB2NB8LoiN8hrL/7cQJfb5sI0ZuLgn/xI3R7g74JabecqNGl6oOHTvqeHlCiYOAMOXEmUsZSRojQBedDyB0PWOyUV3tUVz4mcLcR9oNXu5t27pVR3mmQ3pGzRASBIQpyzsgCESIAP0X79mzJyk31eC8GhMRVqOzde3SRUfqcI8rdu3aFRJVOZr6JG/iICBnyokzlzKSNEaAjtFHIGAmz5HPORVS/ggMRxj2ydWkiKQL69at0wwYETx09u+//14tQTioetDsEBIEhCnLOyAIRIgADUMYfn4nDEYYc+6HH35Q+xHbj9LuYIShp+5yOKIq3FKouK1BrDcaf+TLl0/9+uuvitEybIYnbnAgc4ygcC3K83hDQI4v4m3GpL8ZhkDevHl1lGv6mtgCaflzMOfKUFkjox4/YUJE/WI0ZIZyYnTknQgrxHpoocfQUflQv5/OKnqWOozwRatWrFTv4ky7TNmy/izyPcEQEEk5wSZUhpN2CDAaNK35aNXXGBGbKeV2QaRoRk+eN2+eZrbZsmUL7ACCj+rnLIegpuon+LlYvmKF/stIzn6iFD4N5taLEYG7/6CB1liB/nLyPX4REKYcv3MnPU9nBBiSfjK0LyaBKU8ytL1x40ZDqjmpX//+yR6QmQ8ZPNiYucYFNRQ/QlkDAWHKWWOeZZQxQCA3XGXmgCc4L62FX4pIIkGbmqfOMSMzk3iJyAtDIUFAmLK8A4JAFAhc07q1ovoaKRecBjVs2FDReVBKqC18Z3x37JguWjQChnwMeXfB5wYZOIk6ztmxSFSsVCklzUuZTIqAMOVMOjHSrcyJwMPTp8esYwsWLIiqLgeuP//+62/Vu08fOLv/F5eDhcCg/xtVHZI58yMgTDnzz5H0UBDQCBQ7+2zVlJ8rmgkiCYyAqMQl8OTK0AQBQSD+EBCmHH9zJj0WBASBBEZAmHICT64MTRAQBOIPAWHK8Tdn0mNBQBBIYASEKSfw5MrQBAFBIP4QEKYcf3MmPRYEBIEERkCYcgJPrgxNEBAE4g8BYcrxN2fSY0FAEEhgBIQpJ/DkytAEAUEg/hAQphx/cyY9FgQEgQRGQJhyAk+uDE0QEATiDwFhyvE3Z9JjQUAQSGAEhCkn8OTK0AQBQSD+EBCmHH9zJj0WBASBBEZAmHICT64MTRAQBOIPAWHK8Tdn0mNBQBBIYASEKSfw5MrQBAFBIP4QEKYcf3MmPRYEBIEERkCYcgJPrgxNEBAE4g8BYcrxN2fSY0FAEEhgBIQpJ/DkytAEAUEg/hAQphx/cyY9FgQEgQRGQJhyAk+uDE0QEATiDwFhyvE3Z9JjQUAQSGAEhCkn8OTK0AQBQSD+EDgztV0+efKk+uOPP1JbjZQXBASBTIBAzpw5Va5cuTJBT7JuF1LNlMdPmKAefvjhrIugjFwQSDAEqlevrm4fNEjdcsst6rTTTkuw0WX+4aSaKd9+++2qS+fOmX+kmaSHP//8s/rkk0/U0//5j/4rJAhkNgQ+/fRT1at3b/XWW2+pJ598Up1xxhmZrYsJ3Z9UM+XSpUopfoQiR6BJkyaqf//+atI996h777038oKSUxBIRwSefe45VeSss9TUKVPSsVVpKtVMWSBMGQKUPu7C0c8///yjHnjggZRVko6latWqpSqUL69eXrw4olarVKmizj33XLV69Wpj/jKlS6sGDRqoAgULhjzfsWOHOvLtt+pyLF42WrNmjfruu+9CHhdEfbVr11blypVTp5/+//fYH3/8sTp65Iiu86WXXlK8C/HSNVdfrX44fly99957IXVed+216hNIj1999VXIs27duoVIkv/973/V/v371bvvvhvSDjGpVbOmKlykSLK6lixZon788Ud10003hbThJqxcuVL98MMP1udp8WDGjBmqUsWKqk+fPmlRvdRpQsCx0NAhQ5xpU6ZankpyrBDAD9jBD9E5M1u2TP25//77nYOHDkXUx9x58jiff/658/fffzs1a9UKKXPlVVc5YIpWCKdOneq0b9/e+pwPwFxD6u0/YIBz4sQJYzksfEl1lilbNqTstm3bnPnz54ek17/oIgcLp7N161YnR86cIc9xyW1sj4lffvmlU/ZUW1h8nKWvvmrNS5xy5splfc4HDRo2DGk/Pd4bjnvFihWBfZOHkSPQs1t3Z97cudYCohJnWqnSMY0XKU888YSWGhOFBuGS6JxzzlFHjh5V0x96KGRYt912mzp8+LCWZoudfXbI5+6JE9XyFSu0FM1PK0ixpItOSdZMoxTqpUaNGqlZM2eqda+/ri648MKQOu9JwTERJe1HZs1SX3/9taoJ6bZXr14hY2HC6DFjQtqrV7++yps3rxoxYoQuM+XBB1Wrq65SQ+64wzhuLGJJdQ8YODBp7C4G/IuFwdh+Wif++++/6qabb5Y7kLQG+lT9cnyRTkAHNUM1pFewfb3k0kuNW+SgspntGe8XxoweraZMnao+xUXmokWLVKeOHdWL+OvSb7/9pvhD/xV/f/nlF+sQfv/9d/3szz//1H+peumm+Qt1795dQZJXN954Y0QqmtmyZUumWWDSMmCdPAqBtKyGDx+uJt59t+Ixg//YhEchPHrwEr+/8eabqmrVqipHjhy6X48++qh65JFH/F1P+n7mmf/7Of7111/WcVoLp/GDX3/9VbVt21a988476mwspEJph4BIymmHbVQ1n4ULlaWvvKJ4JhrP9CAuhY6DIU2bNk29snSp4tkvjiNUgQIFkoY1efJklS17dvXD99+rv8GA3M8JMOktmzdrRhgtlYNk/tFHH0XEkFn3rl27FNtzPxdCuvZS4cKF1SRI7I8//rjiGTeZMu8B7sXlbCTEhbYm6jx48KAqVrSo1v0lQyP17Nkz2bg5/hdffDFZtQ9Pn67+wmLkfr7BGXVG0/5vvlHXtWmT6RaMjMYl1u2LpBxrRFNRH6Wqhbjxvva66/QFYLxR06ZNVYf27VWHDh3U1a1aqXK41PoWF3ZXXnmlGost/vBTW3kyxGrVqqnyuDjMkydP0jApvfLycyYuly7FcUQ09N2xY4qMOVLqCOmdjNOluThC8tI9kybpr/fjEnbYsGFaqt69e7fW3Z03f77ajMXDS/369VO3YIvvUinsGLJj4ZmKxYmLFOcTZ9n68VIsVt6jiDmzZyeri1+4qC145pmkdJzPh+TJiAQufLzcfP7555NdpGZEXxK1TWHKmWxmmzdvrvgj7R1nt91kQGSmr+NMd8Mbb6jZGIO7Hd+yZYtWAaRu9s6dOzXiZDJkcn7a+PbbKbrpXwKtkGeffVbxyAEXdv5qQ76TuXgJF4RJX+vWrat69Oih+qHP1CKpU6eOfkZJsUTJkvrsGpdu+gjGJer2upopFStU0NL+UDBz96z4tddeU3fgPHn58uX6iOp77BJc4tGAnw5AwuYnM9IS7Ogm3HWX3kkIxR4BYcqxxzTVNVIS+QwXP5nNUrIItvSv4Afppyk4srjkkktUBTCjTjAk4jmxV7WLF15kWrNxntoE0jQv+ngx56c8uXMrStuLoLIWLbHM1ddcox5/7DE1CBdlu/fsUVRNc2nZq6+GqKeZ2uDl3gxYqFKF7qmnntJ1vIFFxqVmzZqpNVDzo4rYnDlzktI3btyo+HGJjPZBSNk8onlu4UJFIyueMW/ftk198MEHipK9S9w1bDp1tMG0AVgMroUanp94afjFF1/4kzPkO7RxVNkyZayXnxnSqQRpVM6UM+lEPoCX/trWrTNN7/aAGZDpZMcRg//D89KLcBk2dty4JEnY23Fe7JFR8qKOEiSPLArh7Nz/+RcM8D6cNw9EXi8dh/7w2rVr1W8GidLNB/0ifbTQtWtXtR0MtUD+/Mnqh7qZOgYGyTG4F4feNig5k5E3hARMhkoNCC9Td/OuX79eUXf3sssu08cTZNgHIEH7acTIkZppd+nSRZ133nlayqYEPhnz+jMWLe/YadnJD9vjOI9An9qPMb979a797WXE98FDhiio+WVE0wnd5mlUljONcBi2WiVLllJ3DBtqeixp6YAAt9QtcR7L7b+QIJAZEeARFY8xuBPgnYBQeAR6de+hGl7cUHXHha+JRFI2oZJJ0ihRcqvMizIhQSAzIsALzFFQgYTxi3oQutjbt29X3NkIpRwBOVNOOXbpUpLnscuXLdN6vjNxwcTzSMvmJl36I40IAiYE9uDoZ8zYsfqTVakVNI5ehWZNakmYcmoRTKfyNMDgh4YLMN/V1nLe2/906oY0IwgIAhYEShQvbnkSXbIw5ejwyvDcxYoVU/wICQKCQGIiIGfKiTmvMipBQBCIUwSEKcfpxEm3BQFBIDEREKacmPMqoxIEBIE4RSBdzpQZwYCesugXwU/0pkXPW9QooFMYOuRhGBr6DrgKrg5JVLxfB6V6RkFoC4coNqICPnV6aaDAvCtg0kpjAJODG16Y0dk5XTLSGi2jiYYD1KygWa7J7wUt4GiE4BL7/xYMIX7+6aekNPi9VXVhEkwfGn6iWS9NmI8HOEm//PLLtbvJxRE4sqeRRqFChfzNyPcEROAw/JfQi2E4ohUnfXrQlN7/frwAh0t0zESLTRPRepK/RQZTcIl8gJagQUQLS5rCJxTZPC3H0sl9yVKlnOo1aoQ0Rcfilc87Tzvu7nvbbQ4dhoNJO2cXL+7QUTr82OoycNfowD+vkz1HDgeMN6QeJkATwalTt66TK3duB6aoDiJe6Hrp3NxEH374oX4+bPhw0+N0Tfvss8+c2nXqBDowR6w03Sc6XIf/Xo2PzcE5/A87sApLGgO8kzlFixWz5nfreebZZx1E3gibj/npxF4oayAA5hjRO0Gn/n369tV54XQqCRzoLWsH/oi24sAEPwQ0CFK6DEzwkz2D75Gw7T799NMh9WX2hHBO7tNFUjatYmAAasCAAdppzUL4BnClaErUw+HI5c5Ro9S9992n6L2LZrwjYbY6CFZDdPv4HCRvPz3/wgvaXwH9KlRE+Jq9e/f6s2TK7zSpbd6ihToKFbcW+Nsa/hvOgkThpzqn3FnSlJmuMOnqs2/fvlp6dh3/0L0jJRKa6tIx/HtwBE9TYGLJHQm9nbnOdfz183u9evVUPkjK9ADmEh0MzZs3T5s+X3zxxUnp3MkIZQ0E6JvD+07QHet/4FxqCMys68OZv0s2P8t0UMXdH32isBx/916i/j2JobiYJz9M5L30EDzm0RGUiWi6nnBkW1XSSlJmGCB4QNMrICJJ6JA5fmIeuHXU4XdciQyOv51KlSsbpWU+o8RdsFAhB64idXXxIinDnaXGAn4E/DCEfD90+LDeCXAnwdBMJiIW17RuretkeCMSQxIVL1HClD1sGvwJ67qw6IXNKxmyBgKzZs3S78TiJUtCBmySlG/r10/n527tvCpV9K7WJb7HfKfdndyy5cuTnrmSMrwJhrQTzwnhJOV0vejj2fDFOL/l+dHgwYPVRpwZ0aeun+jndvz48do44m5EeyDRrn4srIV49nofJGgvMQw63SFy5S5uUOCmlEhHMt4Pz28zA1Gqdf0HhOvPhg0btMtLehErZZEciJPrC5h1kyhNMOAmo17Q8Q7P/bwfzovJ+U64/shzQSASBLjbqly5srodYcJo+LTKE0yX0Vj4ToPR66qY10T7sAukD2v/x5Q33tPS9fiCrih5Gde7d28dsyyIGD5nOvJjNdYMhJd1N+ByiVtwpvEy4fzzz1d02kPPW0Wx5R8CRm8inF0rBOs0PcrwNF7A8SiAF2zhiG4gSVUMF3nesrz4oFN21z0kHaaT8TI+nI14ycILV0aZFhIEYoUAjxEZ45BBAPi7Z9AAMmBGD2cYLR6N8bKO1qqj7rzTypR5xOEybm/fGJnFFMorVv3PiHrSlSmPhD9YXLDpQKGUDulvlmfIJmLonXsQeodxwcYjGgU1Kehc242Fxmc85+JEMboFw+fky5fPVJXW6mCoJS9xxaYT8owmLib0kUtpIZyXLfesOVxooG/AgLG907fdJAYoZZgl/jj2G8IKMdwRz50Z9YM/EiFBIFYIrFu3Tld1xRVXaMGJEV8WLFighbP3339fO/sfeOqMmb62+YxSsT+KTH8wdZMr20RjyMQqXZkyjxbewBacTJaO0Xmw/yIu6M5F2CATcTW9FMFEGbWB2xoeX7AOfsig6Rv3ITBjlrdFGma9RYoUUVefiojstuOPPGFqPz3SGGmEaj/0vUv3h0HUpEkTzbgfQ9w4XvLlhlN4E007FUGadbvERY4XoPz4iZIKQxx9DOYsJAjEEgH+bimANYb/aRJ3s2S8jyAyDY8QGRjBVX0l4+azDThqZAQZLzEfP1mB0pUpE1BO0H0I9169enWtKVEXN/6UnK9v186I92ScH1/WuLHqgBWWztIZcoiTwygTDOKo07C1oZZBPBLP1nkjPRJbt2+hidEG8flMt9jUtihZooRmxtwdNMJLzkWqOo5wXO2Lffv2KagIqYXYQfAI44YbbtCQ4IJQB+A0ESXqLZBYuHMgcxYSBGKFAHd/b+LeqEGDBkkaFfzdM0AA31PeY0yHAOE6778C7x//p3TtZcoMPmvbRfJ3Ydshx2oc6V1PujNld4BdEZHhfKjakNkyOgNjuPE4ww8+J/Q6hMZhhANuwxk7jQyYhg5vIrzOBRdcoDoiUGe8EhktQxURB5798mOix3AhwrHfD5XAH+GvlgY53AqaiC8+lf3do6H2MNrhsVEQEfdhQyWgQRBG8iw6BGjIRRU3MlsvUSWOu1wy05s9wWZ5vMHfM8NmeS+eGejBRu7vwvY8HtPThSlTYjNdZPGsl7q0vKjjhR11bG/CBZ+fGBGYEh11ZV2JmHHUKCmOg96uKUxOCTC79tdfb70UYwh5PveHlve3nR7fGUrpM1xc0sKQRwimcEWu1RLHT+0VSsy8xaZln0t0ik9dYp69udIzn1H65kWejbgwXA8sqI/qJ96a3wxLrfKWIyZ/fvme+AjQYpTvhP/clyO/GBa0f//1l5aMebfRE9E12vl2wXw/mU5LWr9OMoPLkmHzvaZA9gcuA4OoUqVKQY/j8pmEg4rLaZNOCwKCQLwiIOGg4nXmpN+CgCCQJRFIV+ORLImwDFoQEAQEgSgQEKYcBViSVRAQBASBtEZAmHJaIyz1CwKCgCAQBQLClKMAS7IKAoKAIJDWCKSJStymTZsU/BRrNTYT0bpuPFTZbEQzSyqPU03ORNRvfuyxx6I2GKFTnlu7dUumRuatn05+qNTuV9Mx9SGt0+hkaS4+NqIPEFPQADc/HYTTIMU2B1RLGjNmjK16bZLdHXrR8GVtzENdaOqI+vXK3cy//vqr6gasD0Dx30TUSX0aqn1U/jcR9VTpq4MOaEykLRvRPvsRLd0L4yV4IzMWo9nuA1DRbAyDJRu99PLL2n2qjXpB3YsqX7EkGgZ1w2/COh8wIqJzH5sRFeeDv6lvDhwwdovzwPngvERDNBCBL3SrM3panc6H6b7Napdt0cHYq8uWGZvlfFA3n3YJ0RK8JKrHYZhmI6rf0eeGjd5GUAh4cbT+hmhxTJXcmJPNBV5KXXfSifUtt9wS6JyaDutdB/b+9ll++vTpgeXz5c/vvPvuuw70ef3Frd/xUjqLXnrJyZY9u7VuugpdsWKFAytBaz3p8QD+AJyatWpZ+0k3iJc3aeL8/PPPxu4QQ+iGB5bHj8TB4mctD6YTWD5/gQIOGKZDV6F+In6rVq3SrlfZV9OH80B3oJwXP9G1I/xxhHXMD38dRqfp/vq83zlmjt3UJzeN2JmcsbMeYk7sg8pz7jiHsSL2BUZFgW1yPhigwPSbgHCjXdnS0byt35wPWIJax20aC+ee7wDbttXLdLhUsNYLR1naTW9QeUQxsZY39YtpEMDCBo6ApbDz008/Gasg5jBsCewXjNmcr/ftM5YPSgznujOmkjIteNrAgdBTWKFoqYOOGRcRmhFfC4MGWpp5JWaaA1NCoX38m3CMjUgkxvIlIdHSgc4ZMMlk6KJwTkloVdQUVkW0raexCibCWC+lhSfmztWerNbC3wad66c3UVK/66679Lhs/WSfKIFUxY6BPjNo8egSFivVDoYgz8CHACVVG3EOuGPp3KmTNsJxCf5t1eWYA0ri4eZgBAIP5IRDKRq9uMQ5o4N9Ghi8j/fh2LFjxi4w7Bf9lzwIb4H0h1KgQIGkfPCjq8NivQXLrsN4J0xEXx5HEBigGiTE9adcQ5ryedPoxIoGSssglTGogI0opcN3t1qCOfA69qc0R29nL2O8NomVdXJsDCbAebz11lttzUSU7s7HUFhbhpsP7oyyYwfxMiR5lzgfV7VqpYMh0CmVbT6IP8fnzgfHEI5oFPY7jDs2w4eNbZ5oVUqPjjReosm11wshJWS6BFi6dKl198o+2ObD1j/6z6AEy98QFlFbNkVjK74/dGnrDTNHPkYXDv/Bb9FrceivSPMx/Pb8fMyfL+rvNo6eEkl50qRJemUJF2LJDTlEicJLyyGlsvwVzZvbuqXT6QTfXVlNkpq/MCKS6Px0hB+OGLqKeeGfOVzWNHnepk0b3X44p/Kuo/GevXol68ddd9+ty1OKDCJszXQ+htDyEszZdTpMW4OK692EOwf40STlpSTKdDriD0dYVHReOIdKlpVlmW6T5N3M7m4Anu3CNaWfc6ysl2MPImLHfMTSS8Sa6cQ+iDh3zMe5TC2BUeq6WrRsGVgVpWHm48frRJ6SKNPoRD4cnV+9us7LUGmRkNueabfjLQ+3ubpeLMLJqq1Xv75OhwVfYHOjRo/W+SbcdVdgPvchLAh1frgiCMwPgUbnw7FOsnwTJ07U6QxAEUTcrTNfrdq1g7KFPAsnKctFX9TLmBQQBAQBQSDtEBCmnHbYSs2CgCAgCESNgDDlqCGTAoKAICAIpB0CwpTTDlupWRAQBASBqBEQphw1ZFJAEBAEBIG0Q0CYctphKzULAoKAIBA1AjHVU74FOpkboF9MnT/G4LMRdTjpYJ7RNrzUFDHoGK+rb58+OsSTydk7859bvrwaPXq0oq6qzaLMWy+jXjPSSfMWLdRc6CHb9H9pzcTgoR9+9JGCgYut+2maPhyWkH8gdFNpRLgOwpAOwqnTPQiO/71EvVhGZGmNcFlB5evWravaQae8CyKEe4lRIq5EpAcGqpyB0FtQOTSOtwJi/Y2EnnKunDmT6YmXLVNGx0u8oEYNHebK64TfWxH1YqlLunLFCh1twkucgx0IrLkTsQsXQa/YRJx7Ws0xYjdUz0xZQtKoj70QEVtohRaEDbGjJaFfx5hY09KRkdWDyjeEo3fqxHMuU0vNEEyU89EPVnNBv4nyCJF2J/SUcyAIgjfoA/WCGUWaVrDU37XpZ9OKlfgwQHGkgR/uhh72CVh8rkX4pi8RtdpEtDAcjNiTnK/mwMRLbO/ZZ55R//zzTyCetJxjPM8gvXtvvdSxZ7/ohD9onpJ+Q4MGJesXrX4Z/YTBIYLKk48xjF2nzp1NQ095WogS3amElOgpu3W5urauHqP/b8FChRwosdua1vqI/jL+79R1jpaoz+qvx//9xUWLoq025vlplRXOyom6kV79YH8nrmndOnCshYsU0VZPNho7blxgeXrQYEgAAAkwSURBVFqAIRqxrbjz8uLFgeWJO2IzWssjwnegBRrL39avn7W87QHHzLH75937ndjZiJgT+6DynDuTZZ2tzkjSx40fH9gm+wOjB2tV1BEO6jOfwXWBtbztAYKfBlrJst4xY8faiut3MNx8IB6ntbztAe0XIDgEjvnCmjWT6XT764IBSWD5QoULB/Ixf33u93B6yjGNPMJVuA/CFI2AhLBi5UrrSnEJQhbReoirTMuWLZPyUTJmHDquiO/AMs1m0VcRUsGPP/6oJYIhQ4ZY23Ef0CJoEFbrppA6uKL/aLHoKwZJGUr2CsYmOl5gRtC2bdvU/fC9wHBP62CpZqOrID3BHF09gH56Q+IcQfBV+iIINweXQtKmRR1t/71RrzkH9JHAeXgbPkxsu5XKCMNDKZhWjwzT5SVaW3J3chy+Ro56wlV58xSEpAxjHh2pfDYsqrzSHeMPMsJ3rVq19FyYiJJXS+x8HkZYMIbHiiR4JgNy0qKP792md94xVavTKJk9iJ0efWswcrpLWCj07oDv3Oo1a6zlKRHSNwslV44hNeTOB+eEfbbNRyXsXGDareMyDvJJfjC+UFURSJc7RFpBmqgAJOUqsMJcg3H558OUn2m0hKN/GmK0e88eYzb2pxEi0tOXC31R5MTOyiVGuoahTcTz8SisVxnmLRxt375d+9Og9SWleBu5v6HJ8K1Bi0eXouFjjB3KXb+Xj9nac9PDRR6hKbSRUiIpw4xVryzhLPpoL898fos++p1gejiLPjDrpBUsEos++lFgvZFY9JUqXVrntfnmMIIVw0R3lwHmEVgrfhC6nym16IPTKF3eb9HnWpCFs+hzLcgoMXsldteCrHiJEoH950OYuOo+bN26NVlelmU66woi16IPP/agbEnPXIs+jj2Iwln0Efsg4tyx/7Gw6IPjJF1XOIs+mH3rfPx4LfrggEinFTv77KAu62euRZ/fwhJMSvsi8ZPrRyacrxjXou+VpUuTVeFa9IWzsLRZ9PG9W79+vb9bjmvR99zChSHPvAlw4KSx8Vv0uZbJ4Sz6XMvkTG3RhwGHWyT0c1u+yErby9sat7Vnyu/mjaaMqZ7UpoVrP9zzcO3bytvS/fXZcLKl+8vzuy2vLd1Uh7ce23N/eqRj9Jdzv4crH+65rV5TeqR12fJFi6UJT/qpgaCkjiOKupeirTtcH03jD0qjhAuGb/X4Z2sv3DyGKxeufFCfI3km2heRoCR5BIEsjACdL/HYhMeAmYnoDIkMFL5wMlO3Ut2XmGpfpLo3UoEgIAhkOgToVe8Q/GLbfF9nVIcnjB+vNXc6duiQUV1Ik3aFKacJrFKpIJA4CFC1jJ/MRlSHTTSGTIzl+CKzvWnSH0FAEMjSCCQcU6baj83gIUvPdBYbvM2ZexaDISbDpbENVVAzIyXiPMf0+OKyyy5TefPmVY0aNVIbEE3CdotJj/2M2eXVj+WE14AVGPUQqedJiypbjL7SsFJizC5GHDnzzP8fAvWaocqlyqPu5xHRwKWyZctqPUSWoQ4jY/WZqBh0lNn2J9CR5f8ZQcRkMyIfVIDVItR9rF2g1RWtsJrBAs9LlwF7zgGtlYLmgONDOJuQObgQZ3ScH+JAKypbhA3OAeeZeqjeyC9FEb2FUSaqAG/qGtssyAoXLqzb5jvCfniJbe/avVudxAWTDQNuXTn219auVfXr109WHqGT1HToL29CjDVv3WyPizatCW31cizEjnrGxNJLbG/JkiXa4s1Wnvk5dzx/9b/fySqL8AvPTKkHHMl88PdHCzr/fFBXmnrMjABCPXYTufMBdbqQ+aDO+meIBLMRkUMY8cYljo+XbIcQreagJRYj8+vfFCw0awI3L7E8NToY5cSGp54P2DU8infaPx8w9PqfLjJ03Wld5+0X7Rw4Zlu9zEt+w3eBUYm8FCkf42/IxMeSVZaSL/hRGCklesqsiJZ6boQGV2/S/7dipUrO7t27jRZpLD979uwknUt/WX6nJQ29/lNX1kt44bR1kUlHlpZDtGoKihuXK3duHVsOUoERk/RKRFgs56IGDQIxoB4xjDeMXSKGMMAJLE+dbVrNmawCWR4mvYHlaYVFPU3qx/qJ+MEIwcmdJ4+1juw5cjgIQGqMZQfJzIERjVOiZElreb4H4ydMMFpUudaMK1euTNY1jpVj5thN75WbRuxsFqfEnNgHlefccQ5jReyLG2nG1i7ng78J03wwDh2MdMLOB2NYmmILlilbVv+uEAQ32ZAYAYjvQDiLPJjrW/HkfJxXpUognjB3N5ZH2DBdjvrGfkJ4KqfhxRcH1kt7COpgm4iY9+jZM7A8QoY5e/bsMf6GTHW6aeEs+mIqKXNRoIRACxcom1vXiCbwcUErNFNsPZanREL/ATbrJUoilMb8MfQo4dEayS95sSOUBBpcdJH2FxHk+4JSVyTxyayDi8GDktgtMHYeJtFaWxfY29siD+s5QPzDnZ99Zi1P3wwVYBlpmwNKMUFzQCmEEqN/Dtgg8atXr56eR5ukTAmF8e+KFCkS0kfufhil+hr4oAiy6KOPCpNGwMOwdJwPCZM+I7zEsXLMxIbWZDbic1O9zE/MiX3Qdp5zxzmMFbEvnK+g+aCVq+k3wT4Q69TMB2PVQYjS/li8ROs8tknLuC8CfF/wXbLhWRHv0fXgF0Hz0QHaFaby1L7gTs3kE4M7bs4TJX8b0R+ObUfM9hgtnhK+jcjH2H/Tb8hWJpL0mJpZR9Kg5BEEBAFBICsjEM7MOuEu+rLyZMvYBQFBIP4REKYc/3MoIxAEBIEEQkCYcgJNpgxFEBAE4h8BYcrxP4cyAkFAEEggBIQpJ9BkylAEAUEg/hEQphz/cygjEAQEgQRCQJhyAk2mDEUQEATiHwFhyvE/hzICQUAQSCAEhCkn0GTKUAQBQSD+ERCmHP9zKCMQBASBBEJAmHICTaYMRRAQBOIfgUCHRAwB884meyj2+B++jEAQEAQEgfRFwB+A1t+6lSnT09fqVau1X2MhQUAQEAQEgdghkCdPXmtlVi9x1hLyQBAQBAQBQSDNEJAz5TSDVioWBAQBQSB6BIQpR4+ZlBAEBAFBIM0QEKacZtBKxYKAICAIRI+AMOXoMZMSgoAgIAikGQLClNMMWqlYEBAEBIHoEfg/U7ZtECgT/VYAAAAASUVORK5CYII=;" vertex="1" parent="1">
          <mxGeometry x="584.14" y="1194.5" width="180.95" height="111" as="geometry" />
        </mxCell>
        <mxCell id="JxHvAmkqkVdUlSO1OqlA-1" value="Loading..." style="rounded=0;whiteSpace=wrap;html=1;" vertex="1" parent="1">
          <mxGeometry x="255" y="-60" width="120" height="60" as="geometry" />
        </mxCell>
      </root>
    </mxGraphModel>
  </diagram>
</mxfile>
